<svg xmlns="http://www.w3.org/2000/svg" xmlns:xlink="http://www.w3.org/1999/xlink" version="1.1" width="576" height="288" viewBox="0 0 576 288">
<defs>
<clipPath id="clip_0">
<path transform="matrix(1,0,0,-1,0,288)" d="M0 0H576V288H0Z"/>
</clipPath>
<clipPath id="clip_1">
<path transform="matrix(1,0,0,-1,0,288)" d="M54.51 47.76H296.06V258H54.51Z"/>
</clipPath>
<clipPath id="clip_2">
<path transform="matrix(1,0,0,-1,0,288)" d="M328.97 47.76H570.52V258H328.97Z"/>
</clipPath>
<clipPath id="clip_3">
<path transform="matrix(1,0,0,-1,0,288)" d="M54.51 258H296.06V282.52H54.51Z"/>
</clipPath>
<clipPath id="clip_4">
<path transform="matrix(1,0,0,-1,0,288)" d="M54.51 258H296.06V282.52H54.51Z"/>
</clipPath>
<clipPath id="clip_5">
<path transform="matrix(1,0,0,-1,0,288)" d="M54.51 258H296.06V282.52H54.51Z"/>
</clipPath>
<clipPath id="clip_6">
<path transform="matrix(1,0,0,-1,0,288)" d="M328.97 258H570.52V282.52H328.97Z"/>
</clipPath>
<clipPath id="clip_7">
<path transform="matrix(1,0,0,-1,0,288)" d="M328.97 258H570.52V282.52H328.97Z"/>
</clipPath>
<clipPath id="clip_8">
<path transform="matrix(1,0,0,-1,0,288)" d="M328.97 258H570.52V282.52H328.97Z"/>
</clipPath>
</defs>
<g clip-path="url(#clip_0)">
<path transform="matrix(1,0,0,-1,0,288)" d="M0 0H576V288H0Z" fill="#ffffff"/>
<path transform="matrix(1,0,0,-1,0,288)" stroke-width="1.07" stroke-linecap="round" stroke-linejoin="round" fill="none" stroke="#ffffff" d="M0 0H576V288H0Z"/>
</g>
<g clip-path="url(#clip_1)">
<path transform="matrix(1,0,0,-1,0,288)" d="M54.51 47.76H296.06V258H54.51Z" fill="#ebebeb"/>
<path transform="matrix(1,0,0,-1,0,288)" stroke-width=".53" stroke-linecap="butt" stroke-linejoin="round" fill="none" stroke="#ffffff" d="M54.51 80.28H296.06"/>
<path transform="matrix(1,0,0,-1,0,288)" stroke-width=".53" stroke-linecap="butt" stroke-linejoin="round" fill="none" stroke="#ffffff" d="M54.51 119.09H296.06"/>
<path transform="matrix(1,0,0,-1,0,288)" stroke-width=".53" stroke-linecap="butt" stroke-linejoin="round" fill="none" stroke="#ffffff" d="M54.51 157.9H296.06"/>
<path transform="matrix(1,0,0,-1,0,288)" stroke-width=".53" stroke-linecap="butt" stroke-linejoin="round" fill="none" stroke="#ffffff" d="M54.51 196.72H296.06"/>
<path transform="matrix(1,0,0,-1,0,288)" stroke-width=".53" stroke-linecap="butt" stroke-linejoin="round" fill="none" stroke="#ffffff" d="M54.51 235.53H296.06"/>
<path transform="matrix(1,0,0,-1,0,288)" stroke-width="1.07" stroke-linecap="butt" stroke-linejoin="round" fill="none" stroke="#ffffff" d="M54.51 60.87H296.06"/>
<path transform="matrix(1,0,0,-1,0,288)" stroke-width="1.07" stroke-linecap="butt" stroke-linejoin="round" fill="none" stroke="#ffffff" d="M54.51 99.68H296.06"/>
<path transform="matrix(1,0,0,-1,0,288)" stroke-width="1.07" stroke-linecap="butt" stroke-linejoin="round" fill="none" stroke="#ffffff" d="M54.51 138.5H296.06"/>
<path transform="matrix(1,0,0,-1,0,288)" stroke-width="1.07" stroke-linecap="butt" stroke-linejoin="round" fill="none" stroke="#ffffff" d="M54.51 177.31H296.06"/>
<path transform="matrix(1,0,0,-1,0,288)" stroke-width="1.07" stroke-linecap="butt" stroke-linejoin="round" fill="none" stroke="#ffffff" d="M54.51 216.12H296.06"/>
<path transform="matrix(1,0,0,-1,0,288)" stroke-width="1.07" stroke-linecap="butt" stroke-linejoin="round" fill="none" stroke="#ffffff" d="M54.51 254.94H296.06"/>
<path transform="matrix(1,0,0,-1,0,288)" stroke-width="1.07" stroke-linecap="butt" stroke-linejoin="round" fill="none" stroke="#ffffff" d="M99.8 47.76V258"/>
<path transform="matrix(1,0,0,-1,0,288)" stroke-width="1.07" stroke-linecap="butt" stroke-linejoin="round" fill="none" stroke="#ffffff" d="M175.29 47.76V258"/>
<path transform="matrix(1,0,0,-1,0,288)" stroke-width="1.07" stroke-linecap="butt" stroke-linejoin="round" fill="none" stroke="#ffffff" d="M250.77 47.76V258"/>
<path transform="matrix(1,0,0,-1,0,288)" d="M97.85 119.55C97.85 120.62 98.73 121.5 99.8 121.5 100.88 121.5 101.76 120.62 101.76 119.55 101.76 118.47 100.88 117.59 99.8 117.59 98.73 117.59 97.85 118.47 97.85 119.55" fill="#333333"/>
<path transform="matrix(1,0,0,-1,0,288)" stroke-width=".71" stroke-linecap="round" stroke-linejoin="round" fill="none" stroke="#333333" d="M97.85 119.55C97.85 120.62 98.73 121.5 99.8 121.5 100.88 121.5 101.76 120.62 101.76 119.55 101.76 118.47 100.88 117.59 99.8 117.59 98.73 117.59 97.85 118.47 97.85 119.55"/>
<path transform="matrix(1,0,0,-1,0,288)" d="M97.85 119.52C97.85 120.59 98.73 121.47 99.8 121.47 100.88 121.47 101.76 120.59 101.76 119.52 101.76 118.44 100.88 117.56 99.8 117.56 98.73 117.56 97.85 118.44 97.85 119.52" fill="#333333"/>
<path transform="matrix(1,0,0,-1,0,288)" stroke-width=".71" stroke-linecap="round" stroke-linejoin="round" fill="none" stroke="#333333" d="M97.85 119.52C97.85 120.59 98.73 121.47 99.8 121.47 100.88 121.47 101.76 120.59 101.76 119.52 101.76 118.44 100.88 117.56 99.8 117.56 98.73 117.56 97.85 118.44 97.85 119.52"/>
<path transform="matrix(1,0,0,-1,0,288)" d="M97.85 121.19C97.85 122.26 98.73 123.14 99.8 123.14 100.88 123.14 101.76 122.26 101.76 121.19 101.76 120.11 100.88 119.23 99.8 119.23 98.73 119.23 97.85 120.11 97.85 121.19" fill="#333333"/>
<path transform="matrix(1,0,0,-1,0,288)" stroke-width=".71" stroke-linecap="round" stroke-linejoin="round" fill="none" stroke="#333333" d="M97.85 121.19C97.85 122.26 98.73 123.14 99.8 123.14 100.88 123.14 101.76 122.26 101.76 121.19 101.76 120.11 100.88 119.23 99.8 119.23 98.73 119.23 97.85 120.11 97.85 121.19"/>
<path transform="matrix(1,0,0,-1,0,288)" d="M97.85 129.41C97.85 130.48 98.73 131.36 99.8 131.36 100.88 131.36 101.76 130.48 101.76 129.41 101.76 128.33 100.88 127.45 99.8 127.45 98.73 127.45 97.85 128.33 97.85 129.41" fill="#333333"/>
<path transform="matrix(1,0,0,-1,0,288)" stroke-width=".71" stroke-linecap="round" stroke-linejoin="round" fill="none" stroke="#333333" d="M97.85 129.41C97.85 130.48 98.73 131.36 99.8 131.36 100.88 131.36 101.76 130.48 101.76 129.41 101.76 128.33 100.88 127.45 99.8 127.45 98.73 127.45 97.85 128.33 97.85 129.41"/>
<path transform="matrix(1,0,0,-1,0,288)" d="M97.85 129.01C97.85 130.09 98.73 130.96 99.8 130.96 100.88 130.96 101.76 130.09 101.76 129.01 101.76 127.93 100.88 127.06 99.8 127.06 98.73 127.06 97.85 127.93 97.85 129.01" fill="#333333"/>
<path transform="matrix(1,0,0,-1,0,288)" stroke-width=".71" stroke-linecap="round" stroke-linejoin="round" fill="none" stroke="#333333" d="M97.85 129.01C97.85 130.09 98.73 130.96 99.8 130.96 100.88 130.96 101.76 130.09 101.76 129.01 101.76 127.93 100.88 127.06 99.8 127.06 98.73 127.06 97.85 127.93 97.85 129.01"/>
<path transform="matrix(1,0,0,-1,0,288)" d="M97.85 119.71C97.85 120.79 98.73 121.67 99.8 121.67 100.88 121.67 101.76 120.79 101.76 119.71 101.76 118.64 100.88 117.76 99.8 117.76 98.73 117.76 97.85 118.64 97.85 119.71" fill="#333333"/>
<path transform="matrix(1,0,0,-1,0,288)" stroke-width=".71" stroke-linecap="round" stroke-linejoin="round" fill="none" stroke="#333333" d="M97.85 119.71C97.85 120.79 98.73 121.67 99.8 121.67 100.88 121.67 101.76 120.79 101.76 119.71 101.76 118.64 100.88 117.76 99.8 117.76 98.73 117.76 97.85 118.64 97.85 119.71"/>
<path transform="matrix(1,0,0,-1,0,288)" d="M97.85 122.3C97.85 123.37 98.73 124.25 99.8 124.25 100.88 124.25 101.76 123.37 101.76 122.3 101.76 121.22 100.88 120.34 99.8 120.34 98.73 120.34 97.85 121.22 97.85 122.3" fill="#333333"/>
<path transform="matrix(1,0,0,-1,0,288)" stroke-width=".71" stroke-linecap="round" stroke-linejoin="round" fill="none" stroke="#333333" d="M97.85 122.3C97.85 123.37 98.73 124.25 99.8 124.25 100.88 124.25 101.76 123.37 101.76 122.3 101.76 121.22 100.88 120.34 99.8 120.34 98.73 120.34 97.85 121.22 97.85 122.3"/>
<path transform="matrix(1,0,0,-1,0,288)" d="M97.85 118.57C97.85 119.64 98.73 120.52 99.8 120.52 100.88 120.52 101.76 119.64 101.76 118.57 101.76 117.49 100.88 116.61 99.8 116.61 98.73 116.61 97.85 117.49 97.85 118.57" fill="#333333"/>
<path transform="matrix(1,0,0,-1,0,288)" stroke-width=".71" stroke-linecap="round" stroke-linejoin="round" fill="none" stroke="#333333" d="M97.85 118.57C97.85 119.64 98.73 120.52 99.8 120.52 100.88 120.52 101.76 119.64 101.76 118.57 101.76 117.49 100.88 116.61 99.8 116.61 98.73 116.61 97.85 117.49 97.85 118.57"/>
<path transform="matrix(1,0,0,-1,0,288)" d="M97.85 118.07C97.85 119.14 98.73 120.02 99.8 120.02 100.88 120.02 101.76 119.14 101.76 118.07 101.76 116.99 100.88 116.11 99.8 116.11 98.73 116.11 97.85 116.99 97.85 118.07" fill="#333333"/>
<path transform="matrix(1,0,0,-1,0,288)" stroke-width=".71" stroke-linecap="round" stroke-linejoin="round" fill="none" stroke="#333333" d="M97.85 118.07C97.85 119.14 98.73 120.02 99.8 120.02 100.88 120.02 101.76 119.14 101.76 118.07 101.76 116.99 100.88 116.11 99.8 116.11 98.73 116.11 97.85 116.99 97.85 118.07"/>
<path transform="matrix(1,0,0,-1,0,288)" d="M97.85 130.93C97.85 132 98.73 132.88 99.8 132.88 100.88 132.88 101.76 132 101.76 130.93 101.76 129.85 100.88 128.97 99.8 128.97 98.73 128.97 97.85 129.85 97.85 130.93" fill="#333333"/>
<path transform="matrix(1,0,0,-1,0,288)" stroke-width=".71" stroke-linecap="round" stroke-linejoin="round" fill="none" stroke="#333333" d="M97.85 130.93C97.85 132 98.73 132.88 99.8 132.88 100.88 132.88 101.76 132 101.76 130.93 101.76 129.85 100.88 128.97 99.8 128.97 98.73 128.97 97.85 129.85 97.85 130.93"/>
<path transform="matrix(1,0,0,-1,0,288)" d="M97.85 119.8C97.85 120.87 98.73 121.75 99.8 121.75 100.88 121.75 101.76 120.87 101.76 119.8 101.76 118.72 100.88 117.84 99.8 117.84 98.73 117.84 97.85 118.72 97.85 119.8" fill="#333333"/>
<path transform="matrix(1,0,0,-1,0,288)" stroke-width=".71" stroke-linecap="round" stroke-linejoin="round" fill="none" stroke="#333333" d="M97.85 119.8C97.85 120.87 98.73 121.75 99.8 121.75 100.88 121.75 101.76 120.87 101.76 119.8 101.76 118.72 100.88 117.84 99.8 117.84 98.73 117.84 97.85 118.72 97.85 119.8"/>
<path transform="matrix(1,0,0,-1,0,288)" d="M97.85 57.32C97.85 58.39 98.73 59.27 99.8 59.27 100.88 59.27 101.76 58.39 101.76 57.32 101.76 56.24 100.88 55.36 99.8 55.36 98.73 55.36 97.85 56.24 97.85 57.32" fill="#333333"/>
<path transform="matrix(1,0,0,-1,0,288)" stroke-width=".71" stroke-linecap="round" stroke-linejoin="round" fill="none" stroke="#333333" d="M97.85 57.32C97.85 58.39 98.73 59.27 99.8 59.27 100.88 59.27 101.76 58.39 101.76 57.32 101.76 56.24 100.88 55.36 99.8 55.36 98.73 55.36 97.85 56.24 97.85 57.32"/>
<path transform="matrix(1,0,0,-1,0,288)" d="M97.85 127.46C97.85 128.54 98.73 129.41 99.8 129.41 100.88 129.41 101.76 128.54 101.76 127.46 101.76 126.38 100.88 125.51 99.8 125.51 98.73 125.51 97.85 126.38 97.85 127.46" fill="#333333"/>
<path transform="matrix(1,0,0,-1,0,288)" stroke-width=".71" stroke-linecap="round" stroke-linejoin="round" fill="none" stroke="#333333" d="M97.85 127.46C97.85 128.54 98.73 129.41 99.8 129.41 100.88 129.41 101.76 128.54 101.76 127.46 101.76 126.38 100.88 125.51 99.8 125.51 98.73 125.51 97.85 126.38 97.85 127.46"/>
<path transform="matrix(1,0,0,-1,0,288)" d="M97.85 119.16C97.85 120.23 98.73 121.11 99.8 121.11 100.88 121.11 101.76 120.23 101.76 119.16 101.76 118.08 100.88 117.2 99.8 117.2 98.73 117.2 97.85 118.08 97.85 119.16" fill="#333333"/>
<path transform="matrix(1,0,0,-1,0,288)" stroke-width=".71" stroke-linecap="round" stroke-linejoin="round" fill="none" stroke="#333333" d="M97.85 119.16C97.85 120.23 98.73 121.11 99.8 121.11 100.88 121.11 101.76 120.23 101.76 119.16 101.76 118.08 100.88 117.2 99.8 117.2 98.73 117.2 97.85 118.08 97.85 119.16"/>
<path transform="matrix(1,0,0,-1,0,288)" stroke-width="1.07" stroke-linecap="butt" stroke-linejoin="round" fill="none" stroke="#333333" d="M99.8 95.45V116.19"/>
<path transform="matrix(1,0,0,-1,0,288)" stroke-width="1.07" stroke-linecap="butt" stroke-linejoin="round" fill="none" stroke="#333333" d="M99.8 81.46V62.29"/>
<path transform="matrix(1,0,0,-1,0,288)" d="M71.49 95.45V81.46H128.11V95.45H71.49Z" fill="#f8766d"/>
<path transform="matrix(1,0,0,-1,0,288)" stroke-width="1.07" stroke-linecap="butt" stroke-miterlimit="10" stroke-linejoin="miter" fill="none" stroke="#333333" d="M71.49 95.45V81.46H128.11V95.45H71.49Z"/>
<path transform="matrix(1,0,0,-1,0,288)" stroke-width="2.13" stroke-linecap="butt" stroke-miterlimit="10" stroke-linejoin="miter" fill="none" stroke="#333333" d="M71.49 88.32H128.11"/>
<path transform="matrix(1,0,0,-1,0,288)" d="M173.33 213.26C173.33 214.33 174.21 215.21 175.29 215.21 176.36 215.21 177.24 214.33 177.24 213.26 177.24 212.18 176.36 211.3 175.29 211.3 174.21 211.3 173.33 212.18 173.33 213.26" fill="#333333"/>
<path transform="matrix(1,0,0,-1,0,288)" stroke-width=".71" stroke-linecap="round" stroke-linejoin="round" fill="none" stroke="#333333" d="M173.33 213.26C173.33 214.33 174.21 215.21 175.29 215.21 176.36 215.21 177.24 214.33 177.24 213.26 177.24 212.18 176.36 211.3 175.29 211.3 174.21 211.3 173.33 212.18 173.33 213.26"/>
<path transform="matrix(1,0,0,-1,0,288)" d="M173.33 135.25C173.33 136.32 174.21 137.2 175.29 137.2 176.36 137.2 177.24 136.32 177.24 135.25 177.24 134.17 176.36 133.29 175.29 133.29 174.21 133.29 173.33 134.17 173.33 135.25" fill="#333333"/>
<path transform="matrix(1,0,0,-1,0,288)" stroke-width=".71" stroke-linecap="round" stroke-linejoin="round" fill="none" stroke="#333333" d="M173.33 135.25C173.33 136.32 174.21 137.2 175.29 137.2 176.36 137.2 177.24 136.32 177.24 135.25 177.24 134.17 176.36 133.29 175.29 133.29 174.21 133.29 173.33 134.17 173.33 135.25"/>
<path transform="matrix(1,0,0,-1,0,288)" d="M173.33 213.36C173.33 214.43 174.21 215.31 175.29 215.31 176.36 215.31 177.24 214.43 177.24 213.36 177.24 212.28 176.36 211.4 175.29 211.4 174.21 211.4 173.33 212.28 173.33 213.36" fill="#333333"/>
<path transform="matrix(1,0,0,-1,0,288)" stroke-width=".71" stroke-linecap="round" stroke-linejoin="round" fill="none" stroke="#333333" d="M173.33 213.36C173.33 214.43 174.21 215.31 175.29 215.31 176.36 215.31 177.24 214.43 177.24 213.36 177.24 212.28 176.36 211.4 175.29 211.4 174.21 211.4 173.33 212.28 173.33 213.36"/>
<path transform="matrix(1,0,0,-1,0,288)" d="M173.33 213.38C173.33 214.45 174.21 215.33 175.29 215.33 176.36 215.33 177.24 214.45 177.24 213.38 177.24 212.3 176.36 211.42 175.29 211.42 174.21 211.42 173.33 212.3 173.33 213.38" fill="#333333"/>
<path transform="matrix(1,0,0,-1,0,288)" stroke-width=".71" stroke-linecap="round" stroke-linejoin="round" fill="none" stroke="#333333" d="M173.33 213.38C173.33 214.45 174.21 215.33 175.29 215.33 176.36 215.33 177.24 214.45 177.24 213.38 177.24 212.3 176.36 211.42 175.29 211.42 174.21 211.42 173.33 212.3 173.33 213.38"/>
<path transform="matrix(1,0,0,-1,0,288)" d="M173.33 215.87C173.33 216.95 174.21 217.83 175.29 217.83 176.36 217.83 177.24 216.95 177.24 215.87 177.24 214.8 176.36 213.92 175.29 213.92 174.21 213.92 173.33 214.8 173.33 215.87" fill="#333333"/>
<path transform="matrix(1,0,0,-1,0,288)" stroke-width=".71" stroke-linecap="round" stroke-linejoin="round" fill="none" stroke="#333333" d="M173.33 215.87C173.33 216.95 174.21 217.83 175.29 217.83 176.36 217.83 177.24 216.95 177.24 215.87 177.24 214.8 176.36 213.92 175.29 213.92 174.21 213.92 173.33 214.8 173.33 215.87"/>
<path transform="matrix(1,0,0,-1,0,288)" d="M173.33 220.55C173.33 221.63 174.21 222.51 175.29 222.51 176.36 222.51 177.24 221.63 177.24 220.55 177.24 219.48 176.36 218.6 175.29 218.6 174.21 218.6 173.33 219.48 173.33 220.55" fill="#333333"/>
<path transform="matrix(1,0,0,-1,0,288)" stroke-width=".71" stroke-linecap="round" stroke-linejoin="round" fill="none" stroke="#333333" d="M173.33 220.55C173.33 221.63 174.21 222.51 175.29 222.51 176.36 222.51 177.24 221.63 177.24 220.55 177.24 219.48 176.36 218.6 175.29 218.6 174.21 218.6 173.33 219.48 173.33 220.55"/>
<path transform="matrix(1,0,0,-1,0,288)" d="M173.33 132.89C173.33 133.96 174.21 134.84 175.29 134.84 176.36 134.84 177.24 133.96 177.24 132.89 177.24 131.81 176.36 130.93 175.29 130.93 174.21 130.93 173.33 131.81 173.33 132.89" fill="#333333"/>
<path transform="matrix(1,0,0,-1,0,288)" stroke-width=".71" stroke-linecap="round" stroke-linejoin="round" fill="none" stroke="#333333" d="M173.33 132.89C173.33 133.96 174.21 134.84 175.29 134.84 176.36 134.84 177.24 133.96 177.24 132.89 177.24 131.81 176.36 130.93 175.29 130.93 174.21 130.93 173.33 131.81 173.33 132.89"/>
<path transform="matrix(1,0,0,-1,0,288)" d="M173.33 212.77C173.33 213.85 174.21 214.73 175.29 214.73 176.36 214.73 177.24 213.85 177.24 212.77 177.24 211.7 176.36 210.82 175.29 210.82 174.21 210.82 173.33 211.7 173.33 212.77" fill="#333333"/>
<path transform="matrix(1,0,0,-1,0,288)" stroke-width=".71" stroke-linecap="round" stroke-linejoin="round" fill="none" stroke="#333333" d="M173.33 212.77C173.33 213.85 174.21 214.73 175.29 214.73 176.36 214.73 177.24 213.85 177.24 212.77 177.24 211.7 176.36 210.82 175.29 210.82 174.21 210.82 173.33 211.7 173.33 212.77"/>
<path transform="matrix(1,0,0,-1,0,288)" stroke-width="1.07" stroke-linecap="butt" stroke-linejoin="round" fill="none" stroke="#333333" d="M175.29 184.05V212.6"/>
<path transform="matrix(1,0,0,-1,0,288)" stroke-width="1.07" stroke-linecap="butt" stroke-linejoin="round" fill="none" stroke="#333333" d="M175.29 164.99V138.45"/>
<path transform="matrix(1,0,0,-1,0,288)" d="M146.98 184.05V164.99H203.59V184.05H146.98Z" fill="#7cae00"/>
<path transform="matrix(1,0,0,-1,0,288)" stroke-width="1.07" stroke-linecap="butt" stroke-miterlimit="10" stroke-linejoin="miter" fill="none" stroke="#333333" d="M146.98 184.05V164.99H203.59V184.05H146.98Z"/>
<path transform="matrix(1,0,0,-1,0,288)" stroke-width="2.13" stroke-linecap="butt" stroke-miterlimit="10" stroke-linejoin="miter" fill="none" stroke="#333333" d="M146.98 174.94H203.59"/>
<path transform="matrix(1,0,0,-1,0,288)" d="M248.81 133.02C248.81 134.1 249.69 134.98 250.77 134.98 251.84 134.98 252.72 134.1 252.72 133.02 252.72 131.95 251.84 131.07 250.77 131.07 249.69 131.07 248.81 131.95 248.81 133.02" fill="#333333"/>
<path transform="matrix(1,0,0,-1,0,288)" stroke-width=".71" stroke-linecap="round" stroke-linejoin="round" fill="none" stroke="#333333" d="M248.81 133.02C248.81 134.1 249.69 134.98 250.77 134.98 251.84 134.98 252.72 134.1 252.72 133.02 252.72 131.95 251.84 131.07 250.77 131.07 249.69 131.07 248.81 131.95 248.81 133.02"/>
<path transform="matrix(1,0,0,-1,0,288)" d="M248.81 248.45C248.81 249.52 249.69 250.4 250.77 250.4 251.84 250.4 252.72 249.52 252.72 248.45 252.72 247.37 251.84 246.49 250.77 246.49 249.69 246.49 248.81 247.37 248.81 248.45" fill="#333333"/>
<path transform="matrix(1,0,0,-1,0,288)" stroke-width=".71" stroke-linecap="round" stroke-linejoin="round" fill="none" stroke="#333333" d="M248.81 248.45C248.81 249.52 249.69 250.4 250.77 250.4 251.84 250.4 252.72 249.52 252.72 248.45 252.72 247.37 251.84 246.49 250.77 246.49 249.69 246.49 248.81 247.37 248.81 248.45"/>
<path transform="matrix(1,0,0,-1,0,288)" d="M248.81 140.01C248.81 141.09 249.69 141.97 250.77 141.97 251.84 141.97 252.72 141.09 252.72 140.01 252.72 138.94 251.84 138.06 250.77 138.06 249.69 138.06 248.81 138.94 248.81 140.01" fill="#333333"/>
<path transform="matrix(1,0,0,-1,0,288)" stroke-width=".71" stroke-linecap="round" stroke-linejoin="round" fill="none" stroke="#333333" d="M248.81 140.01C248.81 141.09 249.69 141.97 250.77 141.97 251.84 141.97 252.72 141.09 252.72 140.01 252.72 138.94 251.84 138.06 250.77 138.06 249.69 138.06 248.81 138.94 248.81 140.01"/>
<path transform="matrix(1,0,0,-1,0,288)" d="M248.81 244.52C248.81 245.59 249.69 246.47 250.77 246.47 251.84 246.47 252.72 245.59 252.72 244.52 252.72 243.44 251.84 242.56 250.77 242.56 249.69 242.56 248.81 243.44 248.81 244.52" fill="#333333"/>
<path transform="matrix(1,0,0,-1,0,288)" stroke-width=".71" stroke-linecap="round" stroke-linejoin="round" fill="none" stroke="#333333" d="M248.81 244.52C248.81 245.59 249.69 246.47 250.77 246.47 251.84 246.47 252.72 245.59 252.72 244.52 252.72 243.44 251.84 242.56 250.77 242.56 249.69 242.56 248.81 243.44 248.81 244.52"/>
<path transform="matrix(1,0,0,-1,0,288)" d="M248.81 136.45C248.81 137.53 249.69 138.41 250.77 138.41 251.84 138.41 252.72 137.53 252.72 136.45 252.72 135.38 251.84 134.5 250.77 134.5 249.69 134.5 248.81 135.38 248.81 136.45" fill="#333333"/>
<path transform="matrix(1,0,0,-1,0,288)" stroke-width=".71" stroke-linecap="round" stroke-linejoin="round" fill="none" stroke="#333333" d="M248.81 136.45C248.81 137.53 249.69 138.41 250.77 138.41 251.84 138.41 252.72 137.53 252.72 136.45 252.72 135.38 251.84 134.5 250.77 134.5 249.69 134.5 248.81 135.38 248.81 136.45"/>
<path transform="matrix(1,0,0,-1,0,288)" d="M248.81 241.35C248.81 242.42 249.69 243.3 250.77 243.3 251.84 243.3 252.72 242.42 252.72 241.35 252.72 240.27 251.84 239.39 250.77 239.39 249.69 239.39 248.81 240.27 248.81 241.35" fill="#333333"/>
<path transform="matrix(1,0,0,-1,0,288)" stroke-width=".71" stroke-linecap="round" stroke-linejoin="round" fill="none" stroke="#333333" d="M248.81 241.35C248.81 242.42 249.69 243.3 250.77 243.3 251.84 243.3 252.72 242.42 252.72 241.35 252.72 240.27 251.84 239.39 250.77 239.39 249.69 239.39 248.81 240.27 248.81 241.35"/>
<path transform="matrix(1,0,0,-1,0,288)" d="M248.81 241.92C248.81 242.99 249.69 243.87 250.77 243.87 251.84 243.87 252.72 242.99 252.72 241.92 252.72 240.84 251.84 239.96 250.77 239.96 249.69 239.96 248.81 240.84 248.81 241.92" fill="#333333"/>
<path transform="matrix(1,0,0,-1,0,288)" stroke-width=".71" stroke-linecap="round" stroke-linejoin="round" fill="none" stroke="#333333" d="M248.81 241.92C248.81 242.99 249.69 243.87 250.77 243.87 251.84 243.87 252.72 242.99 252.72 241.92 252.72 240.84 251.84 239.96 250.77 239.96 249.69 239.96 248.81 240.84 248.81 241.92"/>
<path transform="matrix(1,0,0,-1,0,288)" d="M248.81 237C248.81 238.08 249.69 238.96 250.77 238.96 251.84 238.96 252.72 238.08 252.72 237 252.72 235.93 251.84 235.05 250.77 235.05 249.69 235.05 248.81 235.93 248.81 237" fill="#333333"/>
<path transform="matrix(1,0,0,-1,0,288)" stroke-width=".71" stroke-linecap="round" stroke-linejoin="round" fill="none" stroke="#333333" d="M248.81 237C248.81 238.08 249.69 238.96 250.77 238.96 251.84 238.96 252.72 238.08 252.72 237 252.72 235.93 251.84 235.05 250.77 235.05 249.69 235.05 248.81 235.93 248.81 237"/>
<path transform="matrix(1,0,0,-1,0,288)" d="M248.81 238.44C248.81 239.51 249.69 240.39 250.77 240.39 251.84 240.39 252.72 239.51 252.72 238.44 252.72 237.36 251.84 236.48 250.77 236.48 249.69 236.48 248.81 237.36 248.81 238.44" fill="#333333"/>
<path transform="matrix(1,0,0,-1,0,288)" stroke-width=".71" stroke-linecap="round" stroke-linejoin="round" fill="none" stroke="#333333" d="M248.81 238.44C248.81 239.51 249.69 240.39 250.77 240.39 251.84 240.39 252.72 239.51 252.72 238.44 252.72 237.36 251.84 236.48 250.77 236.48 249.69 236.48 248.81 237.36 248.81 238.44"/>
<path transform="matrix(1,0,0,-1,0,288)" d="M248.81 138.31C248.81 139.38 249.69 140.26 250.77 140.26 251.84 140.26 252.72 139.38 252.72 138.31 252.72 137.23 251.84 136.35 250.77 136.35 249.69 136.35 248.81 137.23 248.81 138.31" fill="#333333"/>
<path transform="matrix(1,0,0,-1,0,288)" stroke-width=".71" stroke-linecap="round" stroke-linejoin="round" fill="none" stroke="#333333" d="M248.81 138.31C248.81 139.38 249.69 140.26 250.77 140.26 251.84 140.26 252.72 139.38 252.72 138.31 252.72 137.23 251.84 136.35 250.77 136.35 249.69 136.35 248.81 137.23 248.81 138.31"/>
<path transform="matrix(1,0,0,-1,0,288)" d="M248.81 239.82C248.81 240.9 249.69 241.78 250.77 241.78 251.84 241.78 252.72 240.9 252.72 239.82 252.72 238.75 251.84 237.87 250.77 237.87 249.69 237.87 248.81 238.75 248.81 239.82" fill="#333333"/>
<path transform="matrix(1,0,0,-1,0,288)" stroke-width=".71" stroke-linecap="round" stroke-linejoin="round" fill="none" stroke="#333333" d="M248.81 239.82C248.81 240.9 249.69 241.78 250.77 241.78 251.84 241.78 252.72 240.9 252.72 239.82 252.72 238.75 251.84 237.87 250.77 237.87 249.69 237.87 248.81 238.75 248.81 239.82"/>
<path transform="matrix(1,0,0,-1,0,288)" stroke-width="1.07" stroke-linecap="butt" stroke-linejoin="round" fill="none" stroke="#333333" d="M250.77 201.82V235.31"/>
<path transform="matrix(1,0,0,-1,0,288)" stroke-width="1.07" stroke-linecap="butt" stroke-linejoin="round" fill="none" stroke="#333333" d="M250.77 178.87V144.54"/>
<path transform="matrix(1,0,0,-1,0,288)" d="M222.46 201.82V178.87H279.08V201.82H222.46Z" fill="#00bfc4"/>
<path transform="matrix(1,0,0,-1,0,288)" stroke-width="1.07" stroke-linecap="butt" stroke-miterlimit="10" stroke-linejoin="miter" fill="none" stroke="#333333" d="M222.46 201.82V178.87H279.08V201.82H222.46Z"/>
<path transform="matrix(1,0,0,-1,0,288)" stroke-width="2.13" stroke-linecap="butt" stroke-miterlimit="10" stroke-linejoin="miter" fill="none" stroke="#333333" d="M222.46 190.88H279.08"/>
</g>
<g clip-path="url(#clip_2)">
<path transform="matrix(1,0,0,-1,0,288)" d="M328.97 47.76H570.52V258H328.97Z" fill="#ebebeb"/>
<path transform="matrix(1,0,0,-1,0,288)" stroke-width=".53" stroke-linecap="butt" stroke-linejoin="round" fill="none" stroke="#ffffff" d="M328.97 88.93H570.52"/>
<path transform="matrix(1,0,0,-1,0,288)" stroke-width=".53" stroke-linecap="butt" stroke-linejoin="round" fill="none" stroke="#ffffff" d="M328.97 142.92H570.52"/>
<path transform="matrix(1,0,0,-1,0,288)" stroke-width=".53" stroke-linecap="butt" stroke-linejoin="round" fill="none" stroke="#ffffff" d="M328.97 196.9H570.52"/>
<path transform="matrix(1,0,0,-1,0,288)" stroke-width=".53" stroke-linecap="butt" stroke-linejoin="round" fill="none" stroke="#ffffff" d="M328.97 250.88H570.52"/>
<path transform="matrix(1,0,0,-1,0,288)" stroke-width="1.07" stroke-linecap="butt" stroke-linejoin="round" fill="none" stroke="#ffffff" d="M328.97 61.94H570.52"/>
<path transform="matrix(1,0,0,-1,0,288)" stroke-width="1.07" stroke-linecap="butt" stroke-linejoin="round" fill="none" stroke="#ffffff" d="M328.97 115.93H570.52"/>
<path transform="matrix(1,0,0,-1,0,288)" stroke-width="1.07" stroke-linecap="butt" stroke-linejoin="round" fill="none" stroke="#ffffff" d="M328.97 169.91H570.52"/>
<path transform="matrix(1,0,0,-1,0,288)" stroke-width="1.07" stroke-linecap="butt" stroke-linejoin="round" fill="none" stroke="#ffffff" d="M328.97 223.89H570.52"/>
<path transform="matrix(1,0,0,-1,0,288)" stroke-width="1.07" stroke-linecap="butt" stroke-linejoin="round" fill="none" stroke="#ffffff" d="M363.48 47.76V258"/>
<path transform="matrix(1,0,0,-1,0,288)" stroke-width="1.07" stroke-linecap="butt" stroke-linejoin="round" fill="none" stroke="#ffffff" d="M420.99 47.76V258"/>
<path transform="matrix(1,0,0,-1,0,288)" stroke-width="1.07" stroke-linecap="butt" stroke-linejoin="round" fill="none" stroke="#ffffff" d="M478.5 47.76V258"/>
<path transform="matrix(1,0,0,-1,0,288)" stroke-width="1.07" stroke-linecap="butt" stroke-linejoin="round" fill="none" stroke="#ffffff" d="M536.01 47.76V258"/>
<path transform="matrix(1,0,0,-1,0,288)" d="M361.52 165.93C361.52 167 362.4 167.88 363.48 167.88 364.55 167.88 365.43 167 365.43 165.93 365.43 164.85 364.55 163.97 363.48 163.97 362.4 163.97 361.52 164.85 361.52 165.93" fill="#333333"/>
<path transform="matrix(1,0,0,-1,0,288)" stroke-width=".71" stroke-linecap="round" stroke-linejoin="round" fill="none" stroke="#333333" d="M361.52 165.93C361.52 167 362.4 167.88 363.48 167.88 364.55 167.88 365.43 167 365.43 165.93 365.43 164.85 364.55 163.97 363.48 163.97 362.4 163.97 361.52 164.85 361.52 165.93"/>
<path transform="matrix(1,0,0,-1,0,288)" d="M361.52 153.3C361.52 154.37 362.4 155.25 363.48 155.25 364.55 155.25 365.43 154.37 365.43 153.3 365.43 152.22 364.55 151.34 363.48 151.34 362.4 151.34 361.52 152.22 361.52 153.3" fill="#333333"/>
<path transform="matrix(1,0,0,-1,0,288)" stroke-width=".71" stroke-linecap="round" stroke-linejoin="round" fill="none" stroke="#333333" d="M361.52 153.3C361.52 154.37 362.4 155.25 363.48 155.25 364.55 155.25 365.43 154.37 365.43 153.3 365.43 152.22 364.55 151.34 363.48 151.34 362.4 151.34 361.52 152.22 361.52 153.3"/>
<path transform="matrix(1,0,0,-1,0,288)" d="M361.52 151.33C361.52 152.41 362.4 153.29 363.48 153.29 364.55 153.29 365.43 152.41 365.43 151.33 365.43 150.26 364.55 149.38 363.48 149.38 362.4 149.38 361.52 150.26 361.52 151.33" fill="#333333"/>
<path transform="matrix(1,0,0,-1,0,288)" stroke-width=".71" stroke-linecap="round" stroke-linejoin="round" fill="none" stroke="#333333" d="M361.52 151.33C361.52 152.41 362.4 153.29 363.48 153.29 364.55 153.29 365.43 152.41 365.43 151.33 365.43 150.26 364.55 149.38 363.48 149.38 362.4 149.38 361.52 150.26 361.52 151.33"/>
<path transform="matrix(1,0,0,-1,0,288)" d="M361.52 155.69C361.52 156.76 362.4 157.64 363.48 157.64 364.55 157.64 365.43 156.76 365.43 155.69 365.43 154.61 364.55 153.73 363.48 153.73 362.4 153.73 361.52 154.61 361.52 155.69" fill="#333333"/>
<path transform="matrix(1,0,0,-1,0,288)" stroke-width=".71" stroke-linecap="round" stroke-linejoin="round" fill="none" stroke="#333333" d="M361.52 155.69C361.52 156.76 362.4 157.64 363.48 157.64 364.55 157.64 365.43 156.76 365.43 155.69 365.43 154.61 364.55 153.73 363.48 153.73 362.4 153.73 361.52 154.61 361.52 155.69"/>
<path transform="matrix(1,0,0,-1,0,288)" d="M361.52 148.43C361.52 149.51 362.4 150.39 363.48 150.39 364.55 150.39 365.43 149.51 365.43 148.43 365.43 147.36 364.55 146.48 363.48 146.48 362.4 146.48 361.52 147.36 361.52 148.43" fill="#333333"/>
<path transform="matrix(1,0,0,-1,0,288)" stroke-width=".71" stroke-linecap="round" stroke-linejoin="round" fill="none" stroke="#333333" d="M361.52 148.43C361.52 149.51 362.4 150.39 363.48 150.39 364.55 150.39 365.43 149.51 365.43 148.43 365.43 147.36 364.55 146.48 363.48 146.48 362.4 146.48 361.52 147.36 361.52 148.43"/>
<path transform="matrix(1,0,0,-1,0,288)" d="M361.52 152.18C361.52 153.25 362.4 154.13 363.48 154.13 364.55 154.13 365.43 153.25 365.43 152.18 365.43 151.1 364.55 150.22 363.48 150.22 362.4 150.22 361.52 151.1 361.52 152.18" fill="#333333"/>
<path transform="matrix(1,0,0,-1,0,288)" stroke-width=".71" stroke-linecap="round" stroke-linejoin="round" fill="none" stroke="#333333" d="M361.52 152.18C361.52 153.25 362.4 154.13 363.48 154.13 364.55 154.13 365.43 153.25 365.43 152.18 365.43 151.1 364.55 150.22 363.48 150.22 362.4 150.22 361.52 151.1 361.52 152.18"/>
<path transform="matrix(1,0,0,-1,0,288)" d="M361.52 153.93C361.52 155.01 362.4 155.89 363.48 155.89 364.55 155.89 365.43 155.01 365.43 153.93 365.43 152.86 364.55 151.98 363.48 151.98 362.4 151.98 361.52 152.86 361.52 153.93" fill="#333333"/>
<path transform="matrix(1,0,0,-1,0,288)" stroke-width=".71" stroke-linecap="round" stroke-linejoin="round" fill="none" stroke="#333333" d="M361.52 153.93C361.52 155.01 362.4 155.89 363.48 155.89 364.55 155.89 365.43 155.01 365.43 153.93 365.43 152.86 364.55 151.98 363.48 151.98 362.4 151.98 361.52 152.86 361.52 153.93"/>
<path transform="matrix(1,0,0,-1,0,288)" d="M361.52 148.22C361.52 149.29 362.4 150.17 363.48 150.17 364.55 150.17 365.43 149.29 365.43 148.22 365.43 147.14 364.55 146.26 363.48 146.26 362.4 146.26 361.52 147.14 361.52 148.22" fill="#333333"/>
<path transform="matrix(1,0,0,-1,0,288)" stroke-width=".71" stroke-linecap="round" stroke-linejoin="round" fill="none" stroke="#333333" d="M361.52 148.22C361.52 149.29 362.4 150.17 363.48 150.17 364.55 150.17 365.43 149.29 365.43 148.22 365.43 147.14 364.55 146.26 363.48 146.26 362.4 146.26 361.52 147.14 361.52 148.22"/>
<path transform="matrix(1,0,0,-1,0,288)" d="M361.52 162.28C361.52 163.35 362.4 164.23 363.48 164.23 364.55 164.23 365.43 163.35 365.43 162.28 365.43 161.2 364.55 160.32 363.48 160.32 362.4 160.32 361.52 161.2 361.52 162.28" fill="#333333"/>
<path transform="matrix(1,0,0,-1,0,288)" stroke-width=".71" stroke-linecap="round" stroke-linejoin="round" fill="none" stroke="#333333" d="M361.52 162.28C361.52 163.35 362.4 164.23 363.48 164.23 364.55 164.23 365.43 163.35 365.43 162.28 365.43 161.2 364.55 160.32 363.48 160.32 362.4 160.32 361.52 161.2 361.52 162.28"/>
<path transform="matrix(1,0,0,-1,0,288)" d="M361.52 152.67C361.52 153.74 362.4 154.62 363.48 154.62 364.55 154.62 365.43 153.74 365.43 152.67 365.43 151.59 364.55 150.71 363.48 150.71 362.4 150.71 361.52 151.59 361.52 152.67" fill="#333333"/>
<path transform="matrix(1,0,0,-1,0,288)" stroke-width=".71" stroke-linecap="round" stroke-linejoin="round" fill="none" stroke="#333333" d="M361.52 152.67C361.52 153.74 362.4 154.62 363.48 154.62 364.55 154.62 365.43 153.74 365.43 152.67 365.43 151.59 364.55 150.71 363.48 150.71 362.4 150.71 361.52 151.59 361.52 152.67"/>
<path transform="matrix(1,0,0,-1,0,288)" d="M361.52 165.26C361.52 166.33 362.4 167.21 363.48 167.21 364.55 167.21 365.43 166.33 365.43 165.26 365.43 164.18 364.55 163.3 363.48 163.3 362.4 163.3 361.52 164.18 361.52 165.26" fill="#333333"/>
<path transform="matrix(1,0,0,-1,0,288)" stroke-width=".71" stroke-linecap="round" stroke-linejoin="round" fill="none" stroke="#333333" d="M361.52 165.26C361.52 166.33 362.4 167.21 363.48 167.21 364.55 167.21 365.43 166.33 365.43 165.26 365.43 164.18 364.55 163.3 363.48 163.3 362.4 163.3 361.52 164.18 361.52 165.26"/>
<path transform="matrix(1,0,0,-1,0,288)" d="M361.52 149.97C361.52 151.04 362.4 151.92 363.48 151.92 364.55 151.92 365.43 151.04 365.43 149.97 365.43 148.89 364.55 148.01 363.48 148.01 362.4 148.01 361.52 148.89 361.52 149.97" fill="#333333"/>
<path transform="matrix(1,0,0,-1,0,288)" stroke-width=".71" stroke-linecap="round" stroke-linejoin="round" fill="none" stroke="#333333" d="M361.52 149.97C361.52 151.04 362.4 151.92 363.48 151.92 364.55 151.92 365.43 151.04 365.43 149.97 365.43 148.89 364.55 148.01 363.48 148.01 362.4 148.01 361.52 148.89 361.52 149.97"/>
<path transform="matrix(1,0,0,-1,0,288)" d="M361.52 151.37C361.52 152.44 362.4 153.32 363.48 153.32 364.55 153.32 365.43 152.44 365.43 151.37 365.43 150.29 364.55 149.41 363.48 149.41 362.4 149.41 361.52 150.29 361.52 151.37" fill="#333333"/>
<path transform="matrix(1,0,0,-1,0,288)" stroke-width=".71" stroke-linecap="round" stroke-linejoin="round" fill="none" stroke="#333333" d="M361.52 151.37C361.52 152.44 362.4 153.32 363.48 153.32 364.55 153.32 365.43 152.44 365.43 151.37 365.43 150.29 364.55 149.41 363.48 149.41 362.4 149.41 361.52 150.29 361.52 151.37"/>
<path transform="matrix(1,0,0,-1,0,288)" d="M361.52 145.45C361.52 146.53 362.4 147.41 363.48 147.41 364.55 147.41 365.43 146.53 365.43 145.45 365.43 144.38 364.55 143.5 363.48 143.5 362.4 143.5 361.52 144.38 361.52 145.45" fill="#333333"/>
<path transform="matrix(1,0,0,-1,0,288)" stroke-width=".71" stroke-linecap="round" stroke-linejoin="round" fill="none" stroke="#333333" d="M361.52 145.45C361.52 146.53 362.4 147.41 363.48 147.41 364.55 147.41 365.43 146.53 365.43 145.45 365.43 144.38 364.55 143.5 363.48 143.5 362.4 143.5 361.52 144.38 361.52 145.45"/>
<path transform="matrix(1,0,0,-1,0,288)" d="M361.52 172.04C361.52 173.11 362.4 173.99 363.48 173.99 364.55 173.99 365.43 173.11 365.43 172.04 365.43 170.96 364.55 170.08 363.48 170.08 362.4 170.08 361.52 170.96 361.52 172.04" fill="#333333"/>
<path transform="matrix(1,0,0,-1,0,288)" stroke-width=".71" stroke-linecap="round" stroke-linejoin="round" fill="none" stroke="#333333" d="M361.52 172.04C361.52 173.11 362.4 173.99 363.48 173.99 364.55 173.99 365.43 173.11 365.43 172.04 365.43 170.96 364.55 170.08 363.48 170.08 362.4 170.08 361.52 170.96 361.52 172.04"/>
<path transform="matrix(1,0,0,-1,0,288)" d="M361.52 150.07C361.52 151.14 362.4 152.02 363.48 152.02 364.55 152.02 365.43 151.14 365.43 150.07 365.43 148.99 364.55 148.11 363.48 148.11 362.4 148.11 361.52 148.99 361.52 150.07" fill="#333333"/>
<path transform="matrix(1,0,0,-1,0,288)" stroke-width=".71" stroke-linecap="round" stroke-linejoin="round" fill="none" stroke="#333333" d="M361.52 150.07C361.52 151.14 362.4 152.02 363.48 152.02 364.55 152.02 365.43 151.14 365.43 150.07 365.43 148.99 364.55 148.11 363.48 148.11 362.4 148.11 361.52 148.99 361.52 150.07"/>
<path transform="matrix(1,0,0,-1,0,288)" d="M361.52 148.85C361.52 149.93 362.4 150.81 363.48 150.81 364.55 150.81 365.43 149.93 365.43 148.85 365.43 147.78 364.55 146.9 363.48 146.9 362.4 146.9 361.52 147.78 361.52 148.85" fill="#333333"/>
<path transform="matrix(1,0,0,-1,0,288)" stroke-width=".71" stroke-linecap="round" stroke-linejoin="round" fill="none" stroke="#333333" d="M361.52 148.85C361.52 149.93 362.4 150.81 363.48 150.81 364.55 150.81 365.43 149.93 365.43 148.85 365.43 147.78 364.55 146.9 363.48 146.9 362.4 146.9 361.52 147.78 361.52 148.85"/>
<path transform="matrix(1,0,0,-1,0,288)" d="M361.52 150.35C361.52 151.42 362.4 152.3 363.48 152.3 364.55 152.3 365.43 151.42 365.43 150.35 365.43 149.27 364.55 148.39 363.48 148.39 362.4 148.39 361.52 149.27 361.52 150.35" fill="#333333"/>
<path transform="matrix(1,0,0,-1,0,288)" stroke-width=".71" stroke-linecap="round" stroke-linejoin="round" fill="none" stroke="#333333" d="M361.52 150.35C361.52 151.42 362.4 152.3 363.48 152.3 364.55 152.3 365.43 151.42 365.43 150.35 365.43 149.27 364.55 148.39 363.48 148.39 362.4 148.39 361.52 149.27 361.52 150.35"/>
<path transform="matrix(1,0,0,-1,0,288)" stroke-width="1.07" stroke-linecap="butt" stroke-linejoin="round" fill="none" stroke="#333333" d="M363.48 113.18V144.62"/>
<path transform="matrix(1,0,0,-1,0,288)" stroke-width="1.07" stroke-linecap="butt" stroke-linejoin="round" fill="none" stroke="#333333" d="M363.48 92.21V62.56"/>
<path transform="matrix(1,0,0,-1,0,288)" d="M341.91 113.18V92.21H385.05V113.18H341.91Z" fill="#f8766d"/>
<path transform="matrix(1,0,0,-1,0,288)" stroke-width="1.07" stroke-linecap="butt" stroke-miterlimit="10" stroke-linejoin="miter" fill="none" stroke="#333333" d="M341.91 113.18V92.21H385.05V113.18H341.91Z"/>
<path transform="matrix(1,0,0,-1,0,288)" stroke-width="2.13" stroke-linecap="butt" stroke-miterlimit="10" stroke-linejoin="miter" fill="none" stroke="#333333" d="M341.91 102.22H385.05"/>
<path transform="matrix(1,0,0,-1,0,288)" d="M419.04 171.85C419.04 172.92 419.91 173.8 420.99 173.8 422.07 173.8 422.94 172.92 422.94 171.85 422.94 170.77 422.07 169.9 420.99 169.9 419.91 169.9 419.04 170.77 419.04 171.85" fill="#333333"/>
<path transform="matrix(1,0,0,-1,0,288)" stroke-width=".71" stroke-linecap="round" stroke-linejoin="round" fill="none" stroke="#333333" d="M419.04 171.85C419.04 172.92 419.91 173.8 420.99 173.8 422.07 173.8 422.94 172.92 422.94 171.85 422.94 170.77 422.07 169.9 420.99 169.9 419.91 169.9 419.04 170.77 419.04 171.85"/>
<path transform="matrix(1,0,0,-1,0,288)" d="M419.04 163.43C419.04 164.51 419.91 165.39 420.99 165.39 422.07 165.39 422.94 164.51 422.94 163.43 422.94 162.36 422.07 161.48 420.99 161.48 419.91 161.48 419.04 162.36 419.04 163.43" fill="#333333"/>
<path transform="matrix(1,0,0,-1,0,288)" stroke-width=".71" stroke-linecap="round" stroke-linejoin="round" fill="none" stroke="#333333" d="M419.04 163.43C419.04 164.51 419.91 165.39 420.99 165.39 422.07 165.39 422.94 164.51 422.94 163.43 422.94 162.36 422.07 161.48 420.99 161.48 419.91 161.48 419.04 162.36 419.04 163.43"/>
<path transform="matrix(1,0,0,-1,0,288)" d="M419.04 156.86C419.04 157.94 419.91 158.82 420.99 158.82 422.07 158.82 422.94 157.94 422.94 156.86 422.94 155.79 422.07 154.91 420.99 154.91 419.91 154.91 419.04 155.79 419.04 156.86" fill="#333333"/>
<path transform="matrix(1,0,0,-1,0,288)" stroke-width=".71" stroke-linecap="round" stroke-linejoin="round" fill="none" stroke="#333333" d="M419.04 156.86C419.04 157.94 419.91 158.82 420.99 158.82 422.07 158.82 422.94 157.94 422.94 156.86 422.94 155.79 422.07 154.91 420.99 154.91 419.91 154.91 419.04 155.79 419.04 156.86"/>
<path transform="matrix(1,0,0,-1,0,288)" d="M419.04 154.72C419.04 155.8 419.91 156.68 420.99 156.68 422.07 156.68 422.94 155.8 422.94 154.72 422.94 153.65 422.07 152.77 420.99 152.77 419.91 152.77 419.04 153.65 419.04 154.72" fill="#333333"/>
<path transform="matrix(1,0,0,-1,0,288)" stroke-width=".71" stroke-linecap="round" stroke-linejoin="round" fill="none" stroke="#333333" d="M419.04 154.72C419.04 155.8 419.91 156.68 420.99 156.68 422.07 156.68 422.94 155.8 422.94 154.72 422.94 153.65 422.07 152.77 420.99 152.77 419.91 152.77 419.04 153.65 419.04 154.72"/>
<path transform="matrix(1,0,0,-1,0,288)" d="M419.04 159.71C419.04 160.78 419.91 161.66 420.99 161.66 422.07 161.66 422.94 160.78 422.94 159.71 422.94 158.63 422.07 157.75 420.99 157.75 419.91 157.75 419.04 158.63 419.04 159.71" fill="#333333"/>
<path transform="matrix(1,0,0,-1,0,288)" stroke-width=".71" stroke-linecap="round" stroke-linejoin="round" fill="none" stroke="#333333" d="M419.04 159.71C419.04 160.78 419.91 161.66 420.99 161.66 422.07 161.66 422.94 160.78 422.94 159.71 422.94 158.63 422.07 157.75 420.99 157.75 419.91 157.75 419.04 158.63 419.04 159.71"/>
<path transform="matrix(1,0,0,-1,0,288)" d="M419.04 155.06C419.04 156.13 419.91 157.01 420.99 157.01 422.07 157.01 422.94 156.13 422.94 155.06 422.94 153.98 422.07 153.1 420.99 153.1 419.91 153.1 419.04 153.98 419.04 155.06" fill="#333333"/>
<path transform="matrix(1,0,0,-1,0,288)" stroke-width=".71" stroke-linecap="round" stroke-linejoin="round" fill="none" stroke="#333333" d="M419.04 155.06C419.04 156.13 419.91 157.01 420.99 157.01 422.07 157.01 422.94 156.13 422.94 155.06 422.94 153.98 422.07 153.1 420.99 153.1 419.91 153.1 419.04 153.98 419.04 155.06"/>
<path transform="matrix(1,0,0,-1,0,288)" d="M419.04 171.4C419.04 172.48 419.91 173.36 420.99 173.36 422.07 173.36 422.94 172.48 422.94 171.4 422.94 170.33 422.07 169.45 420.99 169.45 419.91 169.45 419.04 170.33 419.04 171.4" fill="#333333"/>
<path transform="matrix(1,0,0,-1,0,288)" stroke-width=".71" stroke-linecap="round" stroke-linejoin="round" fill="none" stroke="#333333" d="M419.04 171.4C419.04 172.48 419.91 173.36 420.99 173.36 422.07 173.36 422.94 172.48 422.94 171.4 422.94 170.33 422.07 169.45 420.99 169.45 419.91 169.45 419.04 170.33 419.04 171.4"/>
<path transform="matrix(1,0,0,-1,0,288)" d="M419.04 155.14C419.04 156.22 419.91 157.1 420.99 157.1 422.07 157.1 422.94 156.22 422.94 155.14 422.94 154.07 422.07 153.19 420.99 153.19 419.91 153.19 419.04 154.07 419.04 155.14" fill="#333333"/>
<path transform="matrix(1,0,0,-1,0,288)" stroke-width=".71" stroke-linecap="round" stroke-linejoin="round" fill="none" stroke="#333333" d="M419.04 155.14C419.04 156.22 419.91 157.1 420.99 157.1 422.07 157.1 422.94 156.22 422.94 155.14 422.94 154.07 422.07 153.19 420.99 153.19 419.91 153.19 419.04 154.07 419.04 155.14"/>
<path transform="matrix(1,0,0,-1,0,288)" d="M419.04 157.7C419.04 158.78 419.91 159.65 420.99 159.65 422.07 159.65 422.94 158.78 422.94 157.7 422.94 156.62 422.07 155.75 420.99 155.75 419.91 155.75 419.04 156.62 419.04 157.7" fill="#333333"/>
<path transform="matrix(1,0,0,-1,0,288)" stroke-width=".71" stroke-linecap="round" stroke-linejoin="round" fill="none" stroke="#333333" d="M419.04 157.7C419.04 158.78 419.91 159.65 420.99 159.65 422.07 159.65 422.94 158.78 422.94 157.7 422.94 156.62 422.07 155.75 420.99 155.75 419.91 155.75 419.04 156.62 419.04 157.7"/>
<path transform="matrix(1,0,0,-1,0,288)" d="M419.04 179.73C419.04 180.81 419.91 181.69 420.99 181.69 422.07 181.69 422.94 180.81 422.94 179.73 422.94 178.66 422.07 177.78 420.99 177.78 419.91 177.78 419.04 178.66 419.04 179.73" fill="#333333"/>
<path transform="matrix(1,0,0,-1,0,288)" stroke-width=".71" stroke-linecap="round" stroke-linejoin="round" fill="none" stroke="#333333" d="M419.04 179.73C419.04 180.81 419.91 181.69 420.99 181.69 422.07 181.69 422.94 180.81 422.94 179.73 422.94 178.66 422.07 177.78 420.99 177.78 419.91 177.78 419.04 178.66 419.04 179.73"/>
<path transform="matrix(1,0,0,-1,0,288)" d="M419.04 159.54C419.04 160.62 419.91 161.5 420.99 161.5 422.07 161.5 422.94 160.62 422.94 159.54 422.94 158.47 422.07 157.59 420.99 157.59 419.91 157.59 419.04 158.47 419.04 159.54" fill="#333333"/>
<path transform="matrix(1,0,0,-1,0,288)" stroke-width=".71" stroke-linecap="round" stroke-linejoin="round" fill="none" stroke="#333333" d="M419.04 159.54C419.04 160.62 419.91 161.5 420.99 161.5 422.07 161.5 422.94 160.62 422.94 159.54 422.94 158.47 422.07 157.59 420.99 157.59 419.91 157.59 419.04 158.47 419.04 159.54"/>
<path transform="matrix(1,0,0,-1,0,288)" d="M419.04 156.47C419.04 157.55 419.91 158.43 420.99 158.43 422.07 158.43 422.94 157.55 422.94 156.47 422.94 155.4 422.07 154.52 420.99 154.52 419.91 154.52 419.04 155.4 419.04 156.47" fill="#333333"/>
<path transform="matrix(1,0,0,-1,0,288)" stroke-width=".71" stroke-linecap="round" stroke-linejoin="round" fill="none" stroke="#333333" d="M419.04 156.47C419.04 157.55 419.91 158.43 420.99 158.43 422.07 158.43 422.94 157.55 422.94 156.47 422.94 155.4 422.07 154.52 420.99 154.52 419.91 154.52 419.04 155.4 419.04 156.47"/>
<path transform="matrix(1,0,0,-1,0,288)" d="M419.04 167.91C419.04 168.98 419.91 169.86 420.99 169.86 422.07 169.86 422.94 168.98 422.94 167.91 422.94 166.83 422.07 165.95 420.99 165.95 419.91 165.95 419.04 166.83 419.04 167.91" fill="#333333"/>
<path transform="matrix(1,0,0,-1,0,288)" stroke-width=".71" stroke-linecap="round" stroke-linejoin="round" fill="none" stroke="#333333" d="M419.04 167.91C419.04 168.98 419.91 169.86 420.99 169.86 422.07 169.86 422.94 168.98 422.94 167.91 422.94 166.83 422.07 165.95 420.99 165.95 419.91 165.95 419.04 166.83 419.04 167.91"/>
<path transform="matrix(1,0,0,-1,0,288)" d="M419.04 160.34C419.04 161.42 419.91 162.3 420.99 162.3 422.07 162.3 422.94 161.42 422.94 160.34 422.94 159.27 422.07 158.39 420.99 158.39 419.91 158.39 419.04 159.27 419.04 160.34" fill="#333333"/>
<path transform="matrix(1,0,0,-1,0,288)" stroke-width=".71" stroke-linecap="round" stroke-linejoin="round" fill="none" stroke="#333333" d="M419.04 160.34C419.04 161.42 419.91 162.3 420.99 162.3 422.07 162.3 422.94 161.42 422.94 160.34 422.94 159.27 422.07 158.39 420.99 158.39 419.91 158.39 419.04 159.27 419.04 160.34"/>
<path transform="matrix(1,0,0,-1,0,288)" d="M419.04 165.31C419.04 166.38 419.91 167.26 420.99 167.26 422.07 167.26 422.94 166.38 422.94 165.31 422.94 164.23 422.07 163.35 420.99 163.35 419.91 163.35 419.04 164.23 419.04 165.31" fill="#333333"/>
<path transform="matrix(1,0,0,-1,0,288)" stroke-width=".71" stroke-linecap="round" stroke-linejoin="round" fill="none" stroke="#333333" d="M419.04 165.31C419.04 166.38 419.91 167.26 420.99 167.26 422.07 167.26 422.94 166.38 422.94 165.31 422.94 164.23 422.07 163.35 420.99 163.35 419.91 163.35 419.04 164.23 419.04 165.31"/>
<path transform="matrix(1,0,0,-1,0,288)" d="M419.04 160.13C419.04 161.21 419.91 162.09 420.99 162.09 422.07 162.09 422.94 161.21 422.94 160.13 422.94 159.06 422.07 158.18 420.99 158.18 419.91 158.18 419.04 159.06 419.04 160.13" fill="#333333"/>
<path transform="matrix(1,0,0,-1,0,288)" stroke-width=".71" stroke-linecap="round" stroke-linejoin="round" fill="none" stroke="#333333" d="M419.04 160.13C419.04 161.21 419.91 162.09 420.99 162.09 422.07 162.09 422.94 161.21 422.94 160.13 422.94 159.06 422.07 158.18 420.99 158.18 419.91 158.18 419.04 159.06 419.04 160.13"/>
<path transform="matrix(1,0,0,-1,0,288)" d="M419.04 170.02C419.04 171.09 419.91 171.97 420.99 171.97 422.07 171.97 422.94 171.09 422.94 170.02 422.94 168.94 422.07 168.06 420.99 168.06 419.91 168.06 419.04 168.94 419.04 170.02" fill="#333333"/>
<path transform="matrix(1,0,0,-1,0,288)" stroke-width=".71" stroke-linecap="round" stroke-linejoin="round" fill="none" stroke="#333333" d="M419.04 170.02C419.04 171.09 419.91 171.97 420.99 171.97 422.07 171.97 422.94 171.09 422.94 170.02 422.94 168.94 422.07 168.06 420.99 168.06 419.91 168.06 419.04 168.94 419.04 170.02"/>
<path transform="matrix(1,0,0,-1,0,288)" d="M419.04 175.76C419.04 176.83 419.91 177.71 420.99 177.71 422.07 177.71 422.94 176.83 422.94 175.76 422.94 174.68 422.07 173.8 420.99 173.8 419.91 173.8 419.04 174.68 419.04 175.76" fill="#333333"/>
<path transform="matrix(1,0,0,-1,0,288)" stroke-width=".71" stroke-linecap="round" stroke-linejoin="round" fill="none" stroke="#333333" d="M419.04 175.76C419.04 176.83 419.91 177.71 420.99 177.71 422.07 177.71 422.94 176.83 422.94 175.76 422.94 174.68 422.07 173.8 420.99 173.8 419.91 173.8 419.04 174.68 419.04 175.76"/>
<path transform="matrix(1,0,0,-1,0,288)" d="M419.04 159.87C419.04 160.95 419.91 161.83 420.99 161.83 422.07 161.83 422.94 160.95 422.94 159.87 422.94 158.8 422.07 157.92 420.99 157.92 419.91 157.92 419.04 158.8 419.04 159.87" fill="#333333"/>
<path transform="matrix(1,0,0,-1,0,288)" stroke-width=".71" stroke-linecap="round" stroke-linejoin="round" fill="none" stroke="#333333" d="M419.04 159.87C419.04 160.95 419.91 161.83 420.99 161.83 422.07 161.83 422.94 160.95 422.94 159.87 422.94 158.8 422.07 157.92 420.99 157.92 419.91 157.92 419.04 158.8 419.04 159.87"/>
<path transform="matrix(1,0,0,-1,0,288)" d="M419.04 173.79C419.04 174.87 419.91 175.75 420.99 175.75 422.07 175.75 422.94 174.87 422.94 173.79 422.94 172.72 422.07 171.84 420.99 171.84 419.91 171.84 419.04 172.72 419.04 173.79" fill="#333333"/>
<path transform="matrix(1,0,0,-1,0,288)" stroke-width=".71" stroke-linecap="round" stroke-linejoin="round" fill="none" stroke="#333333" d="M419.04 173.79C419.04 174.87 419.91 175.75 420.99 175.75 422.07 175.75 422.94 174.87 422.94 173.79 422.94 172.72 422.07 171.84 420.99 171.84 419.91 171.84 419.04 172.72 419.04 173.79"/>
<path transform="matrix(1,0,0,-1,0,288)" d="M419.04 170.63C419.04 171.7 419.91 172.58 420.99 172.58 422.07 172.58 422.94 171.7 422.94 170.63 422.94 169.55 422.07 168.67 420.99 168.67 419.91 168.67 419.04 169.55 419.04 170.63" fill="#333333"/>
<path transform="matrix(1,0,0,-1,0,288)" stroke-width=".71" stroke-linecap="round" stroke-linejoin="round" fill="none" stroke="#333333" d="M419.04 170.63C419.04 171.7 419.91 172.58 420.99 172.58 422.07 172.58 422.94 171.7 422.94 170.63 422.94 169.55 422.07 168.67 420.99 168.67 419.91 168.67 419.04 169.55 419.04 170.63"/>
<path transform="matrix(1,0,0,-1,0,288)" d="M419.04 160.51C419.04 161.58 419.91 162.46 420.99 162.46 422.07 162.46 422.94 161.58 422.94 160.51 422.94 159.43 422.07 158.55 420.99 158.55 419.91 158.55 419.04 159.43 419.04 160.51" fill="#333333"/>
<path transform="matrix(1,0,0,-1,0,288)" stroke-width=".71" stroke-linecap="round" stroke-linejoin="round" fill="none" stroke="#333333" d="M419.04 160.51C419.04 161.58 419.91 162.46 420.99 162.46 422.07 162.46 422.94 161.58 422.94 160.51 422.94 159.43 422.07 158.55 420.99 158.55 419.91 158.55 419.04 159.43 419.04 160.51"/>
<path transform="matrix(1,0,0,-1,0,288)" d="M419.04 154.74C419.04 155.82 419.91 156.7 420.99 156.7 422.07 156.7 422.94 155.82 422.94 154.74 422.94 153.67 422.07 152.79 420.99 152.79 419.91 152.79 419.04 153.67 419.04 154.74" fill="#333333"/>
<path transform="matrix(1,0,0,-1,0,288)" stroke-width=".71" stroke-linecap="round" stroke-linejoin="round" fill="none" stroke="#333333" d="M419.04 154.74C419.04 155.82 419.91 156.7 420.99 156.7 422.07 156.7 422.94 155.82 422.94 154.74 422.94 153.67 422.07 152.79 420.99 152.79 419.91 152.79 419.04 153.67 419.04 154.74"/>
<path transform="matrix(1,0,0,-1,0,288)" d="M419.04 163.6C419.04 164.68 419.91 165.56 420.99 165.56 422.07 165.56 422.94 164.68 422.94 163.6 422.94 162.53 422.07 161.65 420.99 161.65 419.91 161.65 419.04 162.53 419.04 163.6" fill="#333333"/>
<path transform="matrix(1,0,0,-1,0,288)" stroke-width=".71" stroke-linecap="round" stroke-linejoin="round" fill="none" stroke="#333333" d="M419.04 163.6C419.04 164.68 419.91 165.56 420.99 165.56 422.07 165.56 422.94 164.68 422.94 163.6 422.94 162.53 422.07 161.65 420.99 161.65 419.91 161.65 419.04 162.53 419.04 163.6"/>
<path transform="matrix(1,0,0,-1,0,288)" d="M419.04 160.71C419.04 161.78 419.91 162.66 420.99 162.66 422.07 162.66 422.94 161.78 422.94 160.71 422.94 159.63 422.07 158.75 420.99 158.75 419.91 158.75 419.04 159.63 419.04 160.71" fill="#333333"/>
<path transform="matrix(1,0,0,-1,0,288)" stroke-width=".71" stroke-linecap="round" stroke-linejoin="round" fill="none" stroke="#333333" d="M419.04 160.71C419.04 161.78 419.91 162.66 420.99 162.66 422.07 162.66 422.94 161.78 422.94 160.71 422.94 159.63 422.07 158.75 420.99 158.75 419.91 158.75 419.04 159.63 419.04 160.71"/>
<path transform="matrix(1,0,0,-1,0,288)" d="M419.04 154.7C419.04 155.77 419.91 156.65 420.99 156.65 422.07 156.65 422.94 155.77 422.94 154.7 422.94 153.62 422.07 152.74 420.99 152.74 419.91 152.74 419.04 153.62 419.04 154.7" fill="#333333"/>
<path transform="matrix(1,0,0,-1,0,288)" stroke-width=".71" stroke-linecap="round" stroke-linejoin="round" fill="none" stroke="#333333" d="M419.04 154.7C419.04 155.77 419.91 156.65 420.99 156.65 422.07 156.65 422.94 155.77 422.94 154.7 422.94 153.62 422.07 152.74 420.99 152.74 419.91 152.74 419.04 153.62 419.04 154.7"/>
<path transform="matrix(1,0,0,-1,0,288)" d="M419.04 157.68C419.04 158.76 419.91 159.64 420.99 159.64 422.07 159.64 422.94 158.76 422.94 157.68 422.94 156.61 422.07 155.73 420.99 155.73 419.91 155.73 419.04 156.61 419.04 157.68" fill="#333333"/>
<path transform="matrix(1,0,0,-1,0,288)" stroke-width=".71" stroke-linecap="round" stroke-linejoin="round" fill="none" stroke="#333333" d="M419.04 157.68C419.04 158.76 419.91 159.64 420.99 159.64 422.07 159.64 422.94 158.76 422.94 157.68 422.94 156.61 422.07 155.73 420.99 155.73 419.91 155.73 419.04 156.61 419.04 157.68"/>
<path transform="matrix(1,0,0,-1,0,288)" d="M419.04 158.68C419.04 159.76 419.91 160.64 420.99 160.64 422.07 160.64 422.94 159.76 422.94 158.68 422.94 157.61 422.07 156.73 420.99 156.73 419.91 156.73 419.04 157.61 419.04 158.68" fill="#333333"/>
<path transform="matrix(1,0,0,-1,0,288)" stroke-width=".71" stroke-linecap="round" stroke-linejoin="round" fill="none" stroke="#333333" d="M419.04 158.68C419.04 159.76 419.91 160.64 420.99 160.64 422.07 160.64 422.94 159.76 422.94 158.68 422.94 157.61 422.07 156.73 420.99 156.73 419.91 156.73 419.04 157.61 419.04 158.68"/>
<path transform="matrix(1,0,0,-1,0,288)" d="M419.04 169.23C419.04 170.3 419.91 171.18 420.99 171.18 422.07 171.18 422.94 170.3 422.94 169.23 422.94 168.15 422.07 167.27 420.99 167.27 419.91 167.27 419.04 168.15 419.04 169.23" fill="#333333"/>
<path transform="matrix(1,0,0,-1,0,288)" stroke-width=".71" stroke-linecap="round" stroke-linejoin="round" fill="none" stroke="#333333" d="M419.04 169.23C419.04 170.3 419.91 171.18 420.99 171.18 422.07 171.18 422.94 170.3 422.94 169.23 422.94 168.15 422.07 167.27 420.99 167.27 419.91 167.27 419.04 168.15 419.04 169.23"/>
<path transform="matrix(1,0,0,-1,0,288)" d="M419.04 176.69C419.04 177.77 419.91 178.64 420.99 178.64 422.07 178.64 422.94 177.77 422.94 176.69 422.94 175.61 422.07 174.74 420.99 174.74 419.91 174.74 419.04 175.61 419.04 176.69" fill="#333333"/>
<path transform="matrix(1,0,0,-1,0,288)" stroke-width=".71" stroke-linecap="round" stroke-linejoin="round" fill="none" stroke="#333333" d="M419.04 176.69C419.04 177.77 419.91 178.64 420.99 178.64 422.07 178.64 422.94 177.77 422.94 176.69 422.94 175.61 422.07 174.74 420.99 174.74 419.91 174.74 419.04 175.61 419.04 176.69"/>
<path transform="matrix(1,0,0,-1,0,288)" d="M419.04 155.8C419.04 156.87 419.91 157.75 420.99 157.75 422.07 157.75 422.94 156.87 422.94 155.8 422.94 154.72 422.07 153.84 420.99 153.84 419.91 153.84 419.04 154.72 419.04 155.8" fill="#333333"/>
<path transform="matrix(1,0,0,-1,0,288)" stroke-width=".71" stroke-linecap="round" stroke-linejoin="round" fill="none" stroke="#333333" d="M419.04 155.8C419.04 156.87 419.91 157.75 420.99 157.75 422.07 157.75 422.94 156.87 422.94 155.8 422.94 154.72 422.07 153.84 420.99 153.84 419.91 153.84 419.04 154.72 419.04 155.8"/>
<path transform="matrix(1,0,0,-1,0,288)" d="M419.04 164.49C419.04 165.57 419.91 166.45 420.99 166.45 422.07 166.45 422.94 165.57 422.94 164.49 422.94 163.42 422.07 162.54 420.99 162.54 419.91 162.54 419.04 163.42 419.04 164.49" fill="#333333"/>
<path transform="matrix(1,0,0,-1,0,288)" stroke-width=".71" stroke-linecap="round" stroke-linejoin="round" fill="none" stroke="#333333" d="M419.04 164.49C419.04 165.57 419.91 166.45 420.99 166.45 422.07 166.45 422.94 165.57 422.94 164.49 422.94 163.42 422.07 162.54 420.99 162.54 419.91 162.54 419.04 163.42 419.04 164.49"/>
<path transform="matrix(1,0,0,-1,0,288)" stroke-width="1.07" stroke-linecap="butt" stroke-linejoin="round" fill="none" stroke="#333333" d="M420.99 117.14V153.53"/>
<path transform="matrix(1,0,0,-1,0,288)" stroke-width="1.07" stroke-linecap="butt" stroke-linejoin="round" fill="none" stroke="#333333" d="M420.99 92.88V60.28"/>
<path transform="matrix(1,0,0,-1,0,288)" d="M399.42 117.14V92.88H442.56V117.14H399.42Z" fill="#7cae00"/>
<path transform="matrix(1,0,0,-1,0,288)" stroke-width="1.07" stroke-linecap="butt" stroke-miterlimit="10" stroke-linejoin="miter" fill="none" stroke="#333333" d="M399.42 117.14V92.88H442.56V117.14H399.42Z"/>
<path transform="matrix(1,0,0,-1,0,288)" stroke-width="2.13" stroke-linecap="butt" stroke-miterlimit="10" stroke-linejoin="miter" fill="none" stroke="#333333" d="M399.42 102.48H442.56"/>
<path transform="matrix(1,0,0,-1,0,288)" d="M476.55 175.27C476.55 176.34 477.43 177.22 478.5 177.22 479.58 177.22 480.46 176.34 480.46 175.27 480.46 174.19 479.58 173.31 478.5 173.31 477.43 173.31 476.55 174.19 476.55 175.27" fill="#333333"/>
<path transform="matrix(1,0,0,-1,0,288)" stroke-width=".71" stroke-linecap="round" stroke-linejoin="round" fill="none" stroke="#333333" d="M476.55 175.27C476.55 176.34 477.43 177.22 478.5 177.22 479.58 177.22 480.46 176.34 480.46 175.27 480.46 174.19 479.58 173.31 478.5 173.31 477.43 173.31 476.55 174.19 476.55 175.27"/>
<path transform="matrix(1,0,0,-1,0,288)" d="M476.55 170.12C476.55 171.2 477.43 172.08 478.5 172.08 479.58 172.08 480.46 171.2 480.46 170.12 480.46 169.05 479.58 168.17 478.5 168.17 477.43 168.17 476.55 169.05 476.55 170.12" fill="#333333"/>
<path transform="matrix(1,0,0,-1,0,288)" stroke-width=".71" stroke-linecap="round" stroke-linejoin="round" fill="none" stroke="#333333" d="M476.55 170.12C476.55 171.2 477.43 172.08 478.5 172.08 479.58 172.08 480.46 171.2 480.46 170.12 480.46 169.05 479.58 168.17 478.5 168.17 477.43 168.17 476.55 169.05 476.55 170.12"/>
<path transform="matrix(1,0,0,-1,0,288)" d="M476.55 169.79C476.55 170.87 477.43 171.75 478.5 171.75 479.58 171.75 480.46 170.87 480.46 169.79 480.46 168.72 479.58 167.84 478.5 167.84 477.43 167.84 476.55 168.72 476.55 169.79" fill="#333333"/>
<path transform="matrix(1,0,0,-1,0,288)" stroke-width=".71" stroke-linecap="round" stroke-linejoin="round" fill="none" stroke="#333333" d="M476.55 169.79C476.55 170.87 477.43 171.75 478.5 171.75 479.58 171.75 480.46 170.87 480.46 169.79 480.46 168.72 479.58 167.84 478.5 167.84 477.43 167.84 476.55 168.72 476.55 169.79"/>
<path transform="matrix(1,0,0,-1,0,288)" d="M476.55 200.04C476.55 201.12 477.43 202 478.5 202 479.58 202 480.46 201.12 480.46 200.04 480.46 198.97 479.58 198.09 478.5 198.09 477.43 198.09 476.55 198.97 476.55 200.04" fill="#333333"/>
<path transform="matrix(1,0,0,-1,0,288)" stroke-width=".71" stroke-linecap="round" stroke-linejoin="round" fill="none" stroke="#333333" d="M476.55 200.04C476.55 201.12 477.43 202 478.5 202 479.58 202 480.46 201.12 480.46 200.04 480.46 198.97 479.58 198.09 478.5 198.09 477.43 198.09 476.55 198.97 476.55 200.04"/>
<path transform="matrix(1,0,0,-1,0,288)" d="M476.55 175.11C476.55 176.19 477.43 177.07 478.5 177.07 479.58 177.07 480.46 176.19 480.46 175.11 480.46 174.04 479.58 173.16 478.5 173.16 477.43 173.16 476.55 174.04 476.55 175.11" fill="#333333"/>
<path transform="matrix(1,0,0,-1,0,288)" stroke-width=".71" stroke-linecap="round" stroke-linejoin="round" fill="none" stroke="#333333" d="M476.55 175.11C476.55 176.19 477.43 177.07 478.5 177.07 479.58 177.07 480.46 176.19 480.46 175.11 480.46 174.04 479.58 173.16 478.5 173.16 477.43 173.16 476.55 174.04 476.55 175.11"/>
<path transform="matrix(1,0,0,-1,0,288)" d="M476.55 175.68C476.55 176.75 477.43 177.63 478.5 177.63 479.58 177.63 480.46 176.75 480.46 175.68 480.46 174.6 479.58 173.72 478.5 173.72 477.43 173.72 476.55 174.6 476.55 175.68" fill="#333333"/>
<path transform="matrix(1,0,0,-1,0,288)" stroke-width=".71" stroke-linecap="round" stroke-linejoin="round" fill="none" stroke="#333333" d="M476.55 175.68C476.55 176.75 477.43 177.63 478.5 177.63 479.58 177.63 480.46 176.75 480.46 175.68 480.46 174.6 479.58 173.72 478.5 173.72 477.43 173.72 476.55 174.6 476.55 175.68"/>
<path transform="matrix(1,0,0,-1,0,288)" d="M476.55 169.35C476.55 170.42 477.43 171.3 478.5 171.3 479.58 171.3 480.46 170.42 480.46 169.35 480.46 168.27 479.58 167.39 478.5 167.39 477.43 167.39 476.55 168.27 476.55 169.35" fill="#333333"/>
<path transform="matrix(1,0,0,-1,0,288)" stroke-width=".71" stroke-linecap="round" stroke-linejoin="round" fill="none" stroke="#333333" d="M476.55 169.35C476.55 170.42 477.43 171.3 478.5 171.3 479.58 171.3 480.46 170.42 480.46 169.35 480.46 168.27 479.58 167.39 478.5 167.39 477.43 167.39 476.55 168.27 476.55 169.35"/>
<path transform="matrix(1,0,0,-1,0,288)" d="M476.55 168.59C476.55 169.66 477.43 170.54 478.5 170.54 479.58 170.54 480.46 169.66 480.46 168.59 480.46 167.51 479.58 166.63 478.5 166.63 477.43 166.63 476.55 167.51 476.55 168.59" fill="#333333"/>
<path transform="matrix(1,0,0,-1,0,288)" stroke-width=".71" stroke-linecap="round" stroke-linejoin="round" fill="none" stroke="#333333" d="M476.55 168.59C476.55 169.66 477.43 170.54 478.5 170.54 479.58 170.54 480.46 169.66 480.46 168.59 480.46 167.51 479.58 166.63 478.5 166.63 477.43 166.63 476.55 167.51 476.55 168.59"/>
<path transform="matrix(1,0,0,-1,0,288)" d="M476.55 172.15C476.55 173.23 477.43 174.11 478.5 174.11 479.58 174.11 480.46 173.23 480.46 172.15 480.46 171.08 479.58 170.2 478.5 170.2 477.43 170.2 476.55 171.08 476.55 172.15" fill="#333333"/>
<path transform="matrix(1,0,0,-1,0,288)" stroke-width=".71" stroke-linecap="round" stroke-linejoin="round" fill="none" stroke="#333333" d="M476.55 172.15C476.55 173.23 477.43 174.11 478.5 174.11 479.58 174.11 480.46 173.23 480.46 172.15 480.46 171.08 479.58 170.2 478.5 170.2 477.43 170.2 476.55 171.08 476.55 172.15"/>
<path transform="matrix(1,0,0,-1,0,288)" d="M476.55 172.43C476.55 173.5 477.43 174.38 478.5 174.38 479.58 174.38 480.46 173.5 480.46 172.43 480.46 171.35 479.58 170.47 478.5 170.47 477.43 170.47 476.55 171.35 476.55 172.43" fill="#333333"/>
<path transform="matrix(1,0,0,-1,0,288)" stroke-width=".71" stroke-linecap="round" stroke-linejoin="round" fill="none" stroke="#333333" d="M476.55 172.43C476.55 173.5 477.43 174.38 478.5 174.38 479.58 174.38 480.46 173.5 480.46 172.43 480.46 171.35 479.58 170.47 478.5 170.47 477.43 170.47 476.55 171.35 476.55 172.43"/>
<path transform="matrix(1,0,0,-1,0,288)" d="M476.55 177.96C476.55 179.03 477.43 179.91 478.5 179.91 479.58 179.91 480.46 179.03 480.46 177.96 480.46 176.88 479.58 176 478.5 176 477.43 176 476.55 176.88 476.55 177.96" fill="#333333"/>
<path transform="matrix(1,0,0,-1,0,288)" stroke-width=".71" stroke-linecap="round" stroke-linejoin="round" fill="none" stroke="#333333" d="M476.55 177.96C476.55 179.03 477.43 179.91 478.5 179.91 479.58 179.91 480.46 179.03 480.46 177.96 480.46 176.88 479.58 176 478.5 176 477.43 176 476.55 176.88 476.55 177.96"/>
<path transform="matrix(1,0,0,-1,0,288)" d="M476.55 170.21C476.55 171.28 477.43 172.16 478.5 172.16 479.58 172.16 480.46 171.28 480.46 170.21 480.46 169.13 479.58 168.25 478.5 168.25 477.43 168.25 476.55 169.13 476.55 170.21" fill="#333333"/>
<path transform="matrix(1,0,0,-1,0,288)" stroke-width=".71" stroke-linecap="round" stroke-linejoin="round" fill="none" stroke="#333333" d="M476.55 170.21C476.55 171.28 477.43 172.16 478.5 172.16 479.58 172.16 480.46 171.28 480.46 170.21 480.46 169.13 479.58 168.25 478.5 168.25 477.43 168.25 476.55 169.13 476.55 170.21"/>
<path transform="matrix(1,0,0,-1,0,288)" d="M476.55 183.65C476.55 184.72 477.43 185.6 478.5 185.6 479.58 185.6 480.46 184.72 480.46 183.65 480.46 182.57 479.58 181.69 478.5 181.69 477.43 181.69 476.55 182.57 476.55 183.65" fill="#333333"/>
<path transform="matrix(1,0,0,-1,0,288)" stroke-width=".71" stroke-linecap="round" stroke-linejoin="round" fill="none" stroke="#333333" d="M476.55 183.65C476.55 184.72 477.43 185.6 478.5 185.6 479.58 185.6 480.46 184.72 480.46 183.65 480.46 182.57 479.58 181.69 478.5 181.69 477.43 181.69 476.55 182.57 476.55 183.65"/>
<path transform="matrix(1,0,0,-1,0,288)" d="M476.55 194.42C476.55 195.5 477.43 196.37 478.5 196.37 479.58 196.37 480.46 195.5 480.46 194.42 480.46 193.34 479.58 192.47 478.5 192.47 477.43 192.47 476.55 193.34 476.55 194.42" fill="#333333"/>
<path transform="matrix(1,0,0,-1,0,288)" stroke-width=".71" stroke-linecap="round" stroke-linejoin="round" fill="none" stroke="#333333" d="M476.55 194.42C476.55 195.5 477.43 196.37 478.5 196.37 479.58 196.37 480.46 195.5 480.46 194.42 480.46 193.34 479.58 192.47 478.5 192.47 477.43 192.47 476.55 193.34 476.55 194.42"/>
<path transform="matrix(1,0,0,-1,0,288)" d="M476.55 168.83C476.55 169.9 477.43 170.78 478.5 170.78 479.58 170.78 480.46 169.9 480.46 168.83 480.46 167.75 479.58 166.87 478.5 166.87 477.43 166.87 476.55 167.75 476.55 168.83" fill="#333333"/>
<path transform="matrix(1,0,0,-1,0,288)" stroke-width=".71" stroke-linecap="round" stroke-linejoin="round" fill="none" stroke="#333333" d="M476.55 168.83C476.55 169.9 477.43 170.78 478.5 170.78 479.58 170.78 480.46 169.9 480.46 168.83 480.46 167.75 479.58 166.87 478.5 166.87 477.43 166.87 476.55 167.75 476.55 168.83"/>
<path transform="matrix(1,0,0,-1,0,288)" d="M476.55 203.68C476.55 204.75 477.43 205.63 478.5 205.63 479.58 205.63 480.46 204.75 480.46 203.68 480.46 202.6 479.58 201.72 478.5 201.72 477.43 201.72 476.55 202.6 476.55 203.68" fill="#333333"/>
<path transform="matrix(1,0,0,-1,0,288)" stroke-width=".71" stroke-linecap="round" stroke-linejoin="round" fill="none" stroke="#333333" d="M476.55 203.68C476.55 204.75 477.43 205.63 478.5 205.63 479.58 205.63 480.46 204.75 480.46 203.68 480.46 202.6 479.58 201.72 478.5 201.72 477.43 201.72 476.55 202.6 476.55 203.68"/>
<path transform="matrix(1,0,0,-1,0,288)" d="M476.55 179.11C476.55 180.19 477.43 181.07 478.5 181.07 479.58 181.07 480.46 180.19 480.46 179.11 480.46 178.04 479.58 177.16 478.5 177.16 477.43 177.16 476.55 178.04 476.55 179.11" fill="#333333"/>
<path transform="matrix(1,0,0,-1,0,288)" stroke-width=".71" stroke-linecap="round" stroke-linejoin="round" fill="none" stroke="#333333" d="M476.55 179.11C476.55 180.19 477.43 181.07 478.5 181.07 479.58 181.07 480.46 180.19 480.46 179.11 480.46 178.04 479.58 177.16 478.5 177.16 477.43 177.16 476.55 178.04 476.55 179.11"/>
<path transform="matrix(1,0,0,-1,0,288)" d="M476.55 180.07C476.55 181.14 477.43 182.02 478.5 182.02 479.58 182.02 480.46 181.14 480.46 180.07 480.46 178.99 479.58 178.11 478.5 178.11 477.43 178.11 476.55 178.99 476.55 180.07" fill="#333333"/>
<path transform="matrix(1,0,0,-1,0,288)" stroke-width=".71" stroke-linecap="round" stroke-linejoin="round" fill="none" stroke="#333333" d="M476.55 180.07C476.55 181.14 477.43 182.02 478.5 182.02 479.58 182.02 480.46 181.14 480.46 180.07 480.46 178.99 479.58 178.11 478.5 178.11 477.43 178.11 476.55 178.99 476.55 180.07"/>
<path transform="matrix(1,0,0,-1,0,288)" d="M476.55 248.45C476.55 249.52 477.43 250.4 478.5 250.4 479.58 250.4 480.46 249.52 480.46 248.45 480.46 247.37 479.58 246.49 478.5 246.49 477.43 246.49 476.55 247.37 476.55 248.45" fill="#333333"/>
<path transform="matrix(1,0,0,-1,0,288)" stroke-width=".71" stroke-linecap="round" stroke-linejoin="round" fill="none" stroke="#333333" d="M476.55 248.45C476.55 249.52 477.43 250.4 478.5 250.4 479.58 250.4 480.46 249.52 480.46 248.45 480.46 247.37 479.58 246.49 478.5 246.49 477.43 246.49 476.55 247.37 476.55 248.45"/>
<path transform="matrix(1,0,0,-1,0,288)" d="M476.55 180.47C476.55 181.55 477.43 182.43 478.5 182.43 479.58 182.43 480.46 181.55 480.46 180.47 480.46 179.4 479.58 178.52 478.5 178.52 477.43 178.52 476.55 179.4 476.55 180.47" fill="#333333"/>
<path transform="matrix(1,0,0,-1,0,288)" stroke-width=".71" stroke-linecap="round" stroke-linejoin="round" fill="none" stroke="#333333" d="M476.55 180.47C476.55 181.55 477.43 182.43 478.5 182.43 479.58 182.43 480.46 181.55 480.46 180.47 480.46 179.4 479.58 178.52 478.5 178.52 477.43 178.52 476.55 179.4 476.55 180.47"/>
<path transform="matrix(1,0,0,-1,0,288)" d="M476.55 174.07C476.55 175.14 477.43 176.02 478.5 176.02 479.58 176.02 480.46 175.14 480.46 174.07 480.46 172.99 479.58 172.11 478.5 172.11 477.43 172.11 476.55 172.99 476.55 174.07" fill="#333333"/>
<path transform="matrix(1,0,0,-1,0,288)" stroke-width=".71" stroke-linecap="round" stroke-linejoin="round" fill="none" stroke="#333333" d="M476.55 174.07C476.55 175.14 477.43 176.02 478.5 176.02 479.58 176.02 480.46 175.14 480.46 174.07 480.46 172.99 479.58 172.11 478.5 172.11 477.43 172.11 476.55 172.99 476.55 174.07"/>
<path transform="matrix(1,0,0,-1,0,288)" stroke-width="1.07" stroke-linecap="butt" stroke-linejoin="round" fill="none" stroke="#333333" d="M478.5 124.54V168.33"/>
<path transform="matrix(1,0,0,-1,0,288)" stroke-width="1.07" stroke-linecap="butt" stroke-linejoin="round" fill="none" stroke="#333333" d="M478.5 95.23V57.32"/>
<path transform="matrix(1,0,0,-1,0,288)" d="M456.93 124.54V95.23H500.07V124.54H456.93Z" fill="#00bfc4"/>
<path transform="matrix(1,0,0,-1,0,288)" stroke-width="1.07" stroke-linecap="butt" stroke-miterlimit="10" stroke-linejoin="miter" fill="none" stroke="#333333" d="M456.93 124.54V95.23H500.07V124.54H456.93Z"/>
<path transform="matrix(1,0,0,-1,0,288)" stroke-width="2.13" stroke-linecap="butt" stroke-miterlimit="10" stroke-linejoin="miter" fill="none" stroke="#333333" d="M456.93 106.76H500.07"/>
<path transform="matrix(1,0,0,-1,0,288)" d="M534.06 203.27C534.06 204.35 534.94 205.23 536.01 205.23 537.09 205.23 537.97 204.35 537.97 203.27 537.97 202.2 537.09 201.32 536.01 201.32 534.94 201.32 534.06 202.2 534.06 203.27" fill="#333333"/>
<path transform="matrix(1,0,0,-1,0,288)" stroke-width=".71" stroke-linecap="round" stroke-linejoin="round" fill="none" stroke="#333333" d="M534.06 203.27C534.06 204.35 534.94 205.23 536.01 205.23 537.09 205.23 537.97 204.35 537.97 203.27 537.97 202.2 537.09 201.32 536.01 201.32 534.94 201.32 534.06 202.2 534.06 203.27"/>
<path transform="matrix(1,0,0,-1,0,288)" d="M534.06 209.83C534.06 210.9 534.94 211.78 536.01 211.78 537.09 211.78 537.97 210.9 537.97 209.83 537.97 208.75 537.09 207.87 536.01 207.87 534.94 207.87 534.06 208.75 534.06 209.83" fill="#333333"/>
<path transform="matrix(1,0,0,-1,0,288)" stroke-width=".71" stroke-linecap="round" stroke-linejoin="round" fill="none" stroke="#333333" d="M534.06 209.83C534.06 210.9 534.94 211.78 536.01 211.78 537.09 211.78 537.97 210.9 537.97 209.83 537.97 208.75 537.09 207.87 536.01 207.87 534.94 207.87 534.06 208.75 534.06 209.83"/>
<path transform="matrix(1,0,0,-1,0,288)" d="M534.06 195.58C534.06 196.66 534.94 197.54 536.01 197.54 537.09 197.54 537.97 196.66 537.97 195.58 537.97 194.51 537.09 193.63 536.01 193.63 534.94 193.63 534.06 194.51 534.06 195.58" fill="#333333"/>
<path transform="matrix(1,0,0,-1,0,288)" stroke-width=".71" stroke-linecap="round" stroke-linejoin="round" fill="none" stroke="#333333" d="M534.06 195.58C534.06 196.66 534.94 197.54 536.01 197.54 537.09 197.54 537.97 196.66 537.97 195.58 537.97 194.51 537.09 193.63 536.01 193.63 534.94 193.63 534.06 194.51 534.06 195.58"/>
<path transform="matrix(1,0,0,-1,0,288)" d="M534.06 194.86C534.06 195.93 534.94 196.81 536.01 196.81 537.09 196.81 537.97 195.93 537.97 194.86 537.97 193.78 537.09 192.9 536.01 192.9 534.94 192.9 534.06 193.78 534.06 194.86" fill="#333333"/>
<path transform="matrix(1,0,0,-1,0,288)" stroke-width=".71" stroke-linecap="round" stroke-linejoin="round" fill="none" stroke="#333333" d="M534.06 194.86C534.06 195.93 534.94 196.81 536.01 196.81 537.09 196.81 537.97 195.93 537.97 194.86 537.97 193.78 537.09 192.9 536.01 192.9 534.94 192.9 534.06 193.78 534.06 194.86"/>
<path transform="matrix(1,0,0,-1,0,288)" d="M534.06 200.27C534.06 201.34 534.94 202.22 536.01 202.22 537.09 202.22 537.97 201.34 537.97 200.27 537.97 199.19 537.09 198.31 536.01 198.31 534.94 198.31 534.06 199.19 534.06 200.27" fill="#333333"/>
<path transform="matrix(1,0,0,-1,0,288)" stroke-width=".71" stroke-linecap="round" stroke-linejoin="round" fill="none" stroke="#333333" d="M534.06 200.27C534.06 201.34 534.94 202.22 536.01 202.22 537.09 202.22 537.97 201.34 537.97 200.27 537.97 199.19 537.09 198.31 536.01 198.31 534.94 198.31 534.06 199.19 534.06 200.27"/>
<path transform="matrix(1,0,0,-1,0,288)" d="M534.06 212.35C534.06 213.42 534.94 214.3 536.01 214.3 537.09 214.3 537.97 213.42 537.97 212.35 537.97 211.27 537.09 210.39 536.01 210.39 534.94 210.39 534.06 211.27 534.06 212.35" fill="#333333"/>
<path transform="matrix(1,0,0,-1,0,288)" stroke-width=".71" stroke-linecap="round" stroke-linejoin="round" fill="none" stroke="#333333" d="M534.06 212.35C534.06 213.42 534.94 214.3 536.01 214.3 537.09 214.3 537.97 213.42 537.97 212.35 537.97 211.27 537.09 210.39 536.01 210.39 534.94 210.39 534.06 211.27 534.06 212.35"/>
<path transform="matrix(1,0,0,-1,0,288)" d="M534.06 195.92C534.06 197 534.94 197.88 536.01 197.88 537.09 197.88 537.97 197 537.97 195.92 537.97 194.85 537.09 193.97 536.01 193.97 534.94 193.97 534.06 194.85 534.06 195.92" fill="#333333"/>
<path transform="matrix(1,0,0,-1,0,288)" stroke-width=".71" stroke-linecap="round" stroke-linejoin="round" fill="none" stroke="#333333" d="M534.06 195.92C534.06 197 534.94 197.88 536.01 197.88 537.09 197.88 537.97 197 537.97 195.92 537.97 194.85 537.09 193.97 536.01 193.97 534.94 193.97 534.06 194.85 534.06 195.92"/>
<path transform="matrix(1,0,0,-1,0,288)" d="M534.06 195.08C534.06 196.16 534.94 197.04 536.01 197.04 537.09 197.04 537.97 196.16 537.97 195.08 537.97 194.01 537.09 193.13 536.01 193.13 534.94 193.13 534.06 194.01 534.06 195.08" fill="#333333"/>
<path transform="matrix(1,0,0,-1,0,288)" stroke-width=".71" stroke-linecap="round" stroke-linejoin="round" fill="none" stroke="#333333" d="M534.06 195.08C534.06 196.16 534.94 197.04 536.01 197.04 537.09 197.04 537.97 196.16 537.97 195.08 537.97 194.01 537.09 193.13 536.01 193.13 534.94 193.13 534.06 194.01 534.06 195.08"/>
<path transform="matrix(1,0,0,-1,0,288)" d="M534.06 190.49C534.06 191.56 534.94 192.44 536.01 192.44 537.09 192.44 537.97 191.56 537.97 190.49 537.97 189.41 537.09 188.53 536.01 188.53 534.94 188.53 534.06 189.41 534.06 190.49" fill="#333333"/>
<path transform="matrix(1,0,0,-1,0,288)" stroke-width=".71" stroke-linecap="round" stroke-linejoin="round" fill="none" stroke="#333333" d="M534.06 190.49C534.06 191.56 534.94 192.44 536.01 192.44 537.09 192.44 537.97 191.56 537.97 190.49 537.97 189.41 537.09 188.53 536.01 188.53 534.94 188.53 534.06 189.41 534.06 190.49"/>
<path transform="matrix(1,0,0,-1,0,288)" d="M534.06 189.61C534.06 190.68 534.94 191.56 536.01 191.56 537.09 191.56 537.97 190.68 537.97 189.61 537.97 188.53 537.09 187.65 536.01 187.65 534.94 187.65 534.06 188.53 534.06 189.61" fill="#333333"/>
<path transform="matrix(1,0,0,-1,0,288)" stroke-width=".71" stroke-linecap="round" stroke-linejoin="round" fill="none" stroke="#333333" d="M534.06 189.61C534.06 190.68 534.94 191.56 536.01 191.56 537.09 191.56 537.97 190.68 537.97 189.61 537.97 188.53 537.09 187.65 536.01 187.65 534.94 187.65 534.06 188.53 534.06 189.61"/>
<path transform="matrix(1,0,0,-1,0,288)" d="M534.06 193.39C534.06 194.46 534.94 195.34 536.01 195.34 537.09 195.34 537.97 194.46 537.97 193.39 537.97 192.31 537.09 191.43 536.01 191.43 534.94 191.43 534.06 192.31 534.06 193.39" fill="#333333"/>
<path transform="matrix(1,0,0,-1,0,288)" stroke-width=".71" stroke-linecap="round" stroke-linejoin="round" fill="none" stroke="#333333" d="M534.06 193.39C534.06 194.46 534.94 195.34 536.01 195.34 537.09 195.34 537.97 194.46 537.97 193.39 537.97 192.31 537.09 191.43 536.01 191.43 534.94 191.43 534.06 192.31 534.06 193.39"/>
<path transform="matrix(1,0,0,-1,0,288)" d="M534.06 202.26C534.06 203.34 534.94 204.22 536.01 204.22 537.09 204.22 537.97 203.34 537.97 202.26 537.97 201.19 537.09 200.31 536.01 200.31 534.94 200.31 534.06 201.19 534.06 202.26" fill="#333333"/>
<path transform="matrix(1,0,0,-1,0,288)" stroke-width=".71" stroke-linecap="round" stroke-linejoin="round" fill="none" stroke="#333333" d="M534.06 202.26C534.06 203.34 534.94 204.22 536.01 204.22 537.09 204.22 537.97 203.34 537.97 202.26 537.97 201.19 537.09 200.31 536.01 200.31 534.94 200.31 534.06 201.19 534.06 202.26"/>
<path transform="matrix(1,0,0,-1,0,288)" d="M534.06 194.44C534.06 195.52 534.94 196.39 536.01 196.39 537.09 196.39 537.97 195.52 537.97 194.44 537.97 193.36 537.09 192.49 536.01 192.49 534.94 192.49 534.06 193.36 534.06 194.44" fill="#333333"/>
<path transform="matrix(1,0,0,-1,0,288)" stroke-width=".71" stroke-linecap="round" stroke-linejoin="round" fill="none" stroke="#333333" d="M534.06 194.44C534.06 195.52 534.94 196.39 536.01 196.39 537.09 196.39 537.97 195.52 537.97 194.44 537.97 193.36 537.09 192.49 536.01 192.49 534.94 192.49 534.06 193.36 534.06 194.44"/>
<path transform="matrix(1,0,0,-1,0,288)" d="M534.06 188.99C534.06 190.07 534.94 190.95 536.01 190.95 537.09 190.95 537.97 190.07 537.97 188.99 537.97 187.92 537.09 187.04 536.01 187.04 534.94 187.04 534.06 187.92 534.06 188.99" fill="#333333"/>
<path transform="matrix(1,0,0,-1,0,288)" stroke-width=".71" stroke-linecap="round" stroke-linejoin="round" fill="none" stroke="#333333" d="M534.06 188.99C534.06 190.07 534.94 190.95 536.01 190.95 537.09 190.95 537.97 190.07 537.97 188.99 537.97 187.92 537.09 187.04 536.01 187.04 534.94 187.04 534.06 187.92 534.06 188.99"/>
<path transform="matrix(1,0,0,-1,0,288)" d="M534.06 194.44C534.06 195.52 534.94 196.39 536.01 196.39 537.09 196.39 537.97 195.52 537.97 194.44 537.97 193.36 537.09 192.49 536.01 192.49 534.94 192.49 534.06 193.36 534.06 194.44" fill="#333333"/>
<path transform="matrix(1,0,0,-1,0,288)" stroke-width=".71" stroke-linecap="round" stroke-linejoin="round" fill="none" stroke="#333333" d="M534.06 194.44C534.06 195.52 534.94 196.39 536.01 196.39 537.09 196.39 537.97 195.52 537.97 194.44 537.97 193.36 537.09 192.49 536.01 192.49 534.94 192.49 534.06 193.36 534.06 194.44"/>
<path transform="matrix(1,0,0,-1,0,288)" d="M534.06 210.12C534.06 211.2 534.94 212.08 536.01 212.08 537.09 212.08 537.97 211.2 537.97 210.12 537.97 209.05 537.09 208.17 536.01 208.17 534.94 208.17 534.06 209.05 534.06 210.12" fill="#333333"/>
<path transform="matrix(1,0,0,-1,0,288)" stroke-width=".71" stroke-linecap="round" stroke-linejoin="round" fill="none" stroke="#333333" d="M534.06 210.12C534.06 211.2 534.94 212.08 536.01 212.08 537.09 212.08 537.97 211.2 537.97 210.12 537.97 209.05 537.09 208.17 536.01 208.17 534.94 208.17 534.06 209.05 534.06 210.12"/>
<path transform="matrix(1,0,0,-1,0,288)" d="M534.06 209.69C534.06 210.77 534.94 211.65 536.01 211.65 537.09 211.65 537.97 210.77 537.97 209.69 537.97 208.62 537.09 207.74 536.01 207.74 534.94 207.74 534.06 208.62 534.06 209.69" fill="#333333"/>
<path transform="matrix(1,0,0,-1,0,288)" stroke-width=".71" stroke-linecap="round" stroke-linejoin="round" fill="none" stroke="#333333" d="M534.06 209.69C534.06 210.77 534.94 211.65 536.01 211.65 537.09 211.65 537.97 210.77 537.97 209.69 537.97 208.62 537.09 207.74 536.01 207.74 534.94 207.74 534.06 208.62 534.06 209.69"/>
<path transform="matrix(1,0,0,-1,0,288)" d="M534.06 195.59C534.06 196.66 534.94 197.54 536.01 197.54 537.09 197.54 537.97 196.66 537.97 195.59 537.97 194.51 537.09 193.63 536.01 193.63 534.94 193.63 534.06 194.51 534.06 195.59" fill="#333333"/>
<path transform="matrix(1,0,0,-1,0,288)" stroke-width=".71" stroke-linecap="round" stroke-linejoin="round" fill="none" stroke="#333333" d="M534.06 195.59C534.06 196.66 534.94 197.54 536.01 197.54 537.09 197.54 537.97 196.66 537.97 195.59 537.97 194.51 537.09 193.63 536.01 193.63 534.94 193.63 534.06 194.51 534.06 195.59"/>
<path transform="matrix(1,0,0,-1,0,288)" d="M534.06 211.1C534.06 212.17 534.94 213.05 536.01 213.05 537.09 213.05 537.97 212.17 537.97 211.1 537.97 210.02 537.09 209.14 536.01 209.14 534.94 209.14 534.06 210.02 534.06 211.1" fill="#333333"/>
<path transform="matrix(1,0,0,-1,0,288)" stroke-width=".71" stroke-linecap="round" stroke-linejoin="round" fill="none" stroke="#333333" d="M534.06 211.1C534.06 212.17 534.94 213.05 536.01 213.05 537.09 213.05 537.97 212.17 537.97 211.1 537.97 210.02 537.09 209.14 536.01 209.14 534.94 209.14 534.06 210.02 534.06 211.1"/>
<path transform="matrix(1,0,0,-1,0,288)" d="M534.06 216.98C534.06 218.06 534.94 218.94 536.01 218.94 537.09 218.94 537.97 218.06 537.97 216.98 537.97 215.91 537.09 215.03 536.01 215.03 534.94 215.03 534.06 215.91 534.06 216.98" fill="#333333"/>
<path transform="matrix(1,0,0,-1,0,288)" stroke-width=".71" stroke-linecap="round" stroke-linejoin="round" fill="none" stroke="#333333" d="M534.06 216.98C534.06 218.06 534.94 218.94 536.01 218.94 537.09 218.94 537.97 218.06 537.97 216.98 537.97 215.91 537.09 215.03 536.01 215.03 534.94 215.03 534.06 215.91 534.06 216.98"/>
<path transform="matrix(1,0,0,-1,0,288)" d="M534.06 191.7C534.06 192.77 534.94 193.65 536.01 193.65 537.09 193.65 537.97 192.77 537.97 191.7 537.97 190.62 537.09 189.75 536.01 189.75 534.94 189.75 534.06 190.62 534.06 191.7" fill="#333333"/>
<path transform="matrix(1,0,0,-1,0,288)" stroke-width=".71" stroke-linecap="round" stroke-linejoin="round" fill="none" stroke="#333333" d="M534.06 191.7C534.06 192.77 534.94 193.65 536.01 193.65 537.09 193.65 537.97 192.77 537.97 191.7 537.97 190.62 537.09 189.75 536.01 189.75 534.94 189.75 534.06 190.62 534.06 191.7"/>
<path transform="matrix(1,0,0,-1,0,288)" d="M534.06 200.65C534.06 201.73 534.94 202.61 536.01 202.61 537.09 202.61 537.97 201.73 537.97 200.65 537.97 199.58 537.09 198.7 536.01 198.7 534.94 198.7 534.06 199.58 534.06 200.65" fill="#333333"/>
<path transform="matrix(1,0,0,-1,0,288)" stroke-width=".71" stroke-linecap="round" stroke-linejoin="round" fill="none" stroke="#333333" d="M534.06 200.65C534.06 201.73 534.94 202.61 536.01 202.61 537.09 202.61 537.97 201.73 537.97 200.65 537.97 199.58 537.09 198.7 536.01 198.7 534.94 198.7 534.06 199.58 534.06 200.65"/>
<path transform="matrix(1,0,0,-1,0,288)" d="M534.06 203.43C534.06 204.5 534.94 205.38 536.01 205.38 537.09 205.38 537.97 204.5 537.97 203.43 537.97 202.35 537.09 201.47 536.01 201.47 534.94 201.47 534.06 202.35 534.06 203.43" fill="#333333"/>
<path transform="matrix(1,0,0,-1,0,288)" stroke-width=".71" stroke-linecap="round" stroke-linejoin="round" fill="none" stroke="#333333" d="M534.06 203.43C534.06 204.5 534.94 205.38 536.01 205.38 537.09 205.38 537.97 204.5 537.97 203.43 537.97 202.35 537.09 201.47 536.01 201.47 534.94 201.47 534.06 202.35 534.06 203.43"/>
<path transform="matrix(1,0,0,-1,0,288)" d="M534.06 191.85C534.06 192.93 534.94 193.81 536.01 193.81 537.09 193.81 537.97 192.93 537.97 191.85 537.97 190.78 537.09 189.9 536.01 189.9 534.94 189.9 534.06 190.78 534.06 191.85" fill="#333333"/>
<path transform="matrix(1,0,0,-1,0,288)" stroke-width=".71" stroke-linecap="round" stroke-linejoin="round" fill="none" stroke="#333333" d="M534.06 191.85C534.06 192.93 534.94 193.81 536.01 193.81 537.09 193.81 537.97 192.93 537.97 191.85 537.97 190.78 537.09 189.9 536.01 189.9 534.94 189.9 534.06 190.78 534.06 191.85"/>
<path transform="matrix(1,0,0,-1,0,288)" d="M534.06 199.6C534.06 200.67 534.94 201.55 536.01 201.55 537.09 201.55 537.97 200.67 537.97 199.6 537.97 198.52 537.09 197.64 536.01 197.64 534.94 197.64 534.06 198.52 534.06 199.6" fill="#333333"/>
<path transform="matrix(1,0,0,-1,0,288)" stroke-width=".71" stroke-linecap="round" stroke-linejoin="round" fill="none" stroke="#333333" d="M534.06 199.6C534.06 200.67 534.94 201.55 536.01 201.55 537.09 201.55 537.97 200.67 537.97 199.6 537.97 198.52 537.09 197.64 536.01 197.64 534.94 197.64 534.06 198.52 534.06 199.6"/>
<path transform="matrix(1,0,0,-1,0,288)" d="M534.06 201.12C534.06 202.2 534.94 203.08 536.01 203.08 537.09 203.08 537.97 202.2 537.97 201.12 537.97 200.05 537.09 199.17 536.01 199.17 534.94 199.17 534.06 200.05 534.06 201.12" fill="#333333"/>
<path transform="matrix(1,0,0,-1,0,288)" stroke-width=".71" stroke-linecap="round" stroke-linejoin="round" fill="none" stroke="#333333" d="M534.06 201.12C534.06 202.2 534.94 203.08 536.01 203.08 537.09 203.08 537.97 202.2 537.97 201.12 537.97 200.05 537.09 199.17 536.01 199.17 534.94 199.17 534.06 200.05 534.06 201.12"/>
<path transform="matrix(1,0,0,-1,0,288)" d="M534.06 197.55C534.06 198.63 534.94 199.51 536.01 199.51 537.09 199.51 537.97 198.63 537.97 197.55 537.97 196.48 537.09 195.6 536.01 195.6 534.94 195.6 534.06 196.48 534.06 197.55" fill="#333333"/>
<path transform="matrix(1,0,0,-1,0,288)" stroke-width=".71" stroke-linecap="round" stroke-linejoin="round" fill="none" stroke="#333333" d="M534.06 197.55C534.06 198.63 534.94 199.51 536.01 199.51 537.09 199.51 537.97 198.63 537.97 197.55 537.97 196.48 537.09 195.6 536.01 195.6 534.94 195.6 534.06 196.48 534.06 197.55"/>
<path transform="matrix(1,0,0,-1,0,288)" d="M534.06 191.54C534.06 192.61 534.94 193.49 536.01 193.49 537.09 193.49 537.97 192.61 537.97 191.54 537.97 190.46 537.09 189.58 536.01 189.58 534.94 189.58 534.06 190.46 534.06 191.54" fill="#333333"/>
<path transform="matrix(1,0,0,-1,0,288)" stroke-width=".71" stroke-linecap="round" stroke-linejoin="round" fill="none" stroke="#333333" d="M534.06 191.54C534.06 192.61 534.94 193.49 536.01 193.49 537.09 193.49 537.97 192.61 537.97 191.54 537.97 190.46 537.09 189.58 536.01 189.58 534.94 189.58 534.06 190.46 534.06 191.54"/>
<path transform="matrix(1,0,0,-1,0,288)" stroke-width="1.07" stroke-linecap="butt" stroke-linejoin="round" fill="none" stroke="#333333" d="M536.01 137.09V187.15"/>
<path transform="matrix(1,0,0,-1,0,288)" stroke-width="1.07" stroke-linecap="butt" stroke-linejoin="round" fill="none" stroke="#333333" d="M536.01 102.9V68.01"/>
<path transform="matrix(1,0,0,-1,0,288)" d="M514.45 137.09V102.9H557.58V137.09H514.45Z" fill="#c77cff"/>
<path transform="matrix(1,0,0,-1,0,288)" stroke-width="1.07" stroke-linecap="butt" stroke-miterlimit="10" stroke-linejoin="miter" fill="none" stroke="#333333" d="M514.45 137.09V102.9H557.58V137.09H514.45Z"/>
<path transform="matrix(1,0,0,-1,0,288)" stroke-width="2.13" stroke-linecap="butt" stroke-miterlimit="10" stroke-linejoin="miter" fill="none" stroke="#333333" d="M514.45 115.88H557.58"/>
</g>
<g clip-path="url(#clip_3)">
<path transform="matrix(1,0,0,-1,0,288)" d="M54.51 258H296.06V282.52H54.51Z" fill="#d9d9d9"/>
<text fill="#1a1a1a" xml:space="preserve" transform="matrix(1 0 -0 1 0 288)" font-size="16" font-family="Helvetica"><tspan y="-264.52" x="149.62 162.068 167.396 176.05199 187.60399 192.05199">Growth</tspan></text>
</g>
<g clip-path="url(#clip_4)">
</g>
<g clip-path="url(#clip_5)">
</g>
<g clip-path="url(#clip_6)">
<path transform="matrix(1,0,0,-1,0,288)" d="M328.97 258H570.52V282.52H328.97Z" fill="#d9d9d9"/>
<text fill="#1a1a1a" xml:space="preserve" transform="matrix(1 0 -0 1 0 288)" font-size="16" font-family="Helvetica"><tspan y="-264.52" x="387.81 395.666 400.994 409.88999 418.78599 423.23399 436.56199 445.45799 454.35398 458.80198 463.24998 473.92198 478.36997 482.33796 491.23396 499.23396 503.68196">Treatment Effects</tspan></text>
</g>
<g clip-path="url(#clip_7)">
</g>
<g clip-path="url(#clip_8)">
</g>
<path transform="matrix(1,0,0,-1,0,288)" stroke-width="1.07" stroke-linecap="butt" stroke-linejoin="round" fill="none" stroke="#333333" d="M99.8 45.02V47.76"/>
<path transform="matrix(1,0,0,-1,0,288)" stroke-width="1.07" stroke-linecap="butt" stroke-linejoin="round" fill="none" stroke="#333333" d="M175.29 45.02V47.76"/>
<path transform="matrix(1,0,0,-1,0,288)" stroke-width="1.07" stroke-linecap="butt" stroke-linejoin="round" fill="none" stroke="#333333" d="M250.77 45.02V47.76"/>
<text fill="#4d4d4d" xml:space="preserve" transform="matrix(1 0 -0 1 0 288)" font-size="16" font-family="Helvetica"><tspan y="-31.34" x="79.35 88.246 98.918 110.47">LBCF</tspan></text>
<text fill="#4d4d4d" xml:space="preserve" transform="matrix(1 0 -0 1 0 288)" font-size="16" font-family="Helvetica"><tspan y="-31.34" x="154.19 164.862 175.534 186.606">BART</tspan></text>
<text fill="#4d4d4d" xml:space="preserve" transform="matrix(1 0 -0 1 0 288)" font-size="16" font-family="Helvetica"><tspan y="-31.34" x="234.77 245.442 256.994">BCF</tspan></text>
<path transform="matrix(1,0,0,-1,0,288)" stroke-width="1.07" stroke-linecap="butt" stroke-linejoin="round" fill="none" stroke="#333333" d="M363.48 45.02V47.76"/>
<path transform="matrix(1,0,0,-1,0,288)" stroke-width="1.07" stroke-linecap="butt" stroke-linejoin="round" fill="none" stroke="#333333" d="M420.99 45.02V47.76"/>
<path transform="matrix(1,0,0,-1,0,288)" stroke-width="1.07" stroke-linecap="butt" stroke-linejoin="round" fill="none" stroke="#333333" d="M478.5 45.02V47.76"/>
<path transform="matrix(1,0,0,-1,0,288)" stroke-width="1.07" stroke-linecap="butt" stroke-linejoin="round" fill="none" stroke="#333333" d="M536.01 45.02V47.76"/>
<text fill="#4d4d4d" xml:space="preserve" transform="matrix(1 0 -0 1 0 288)" font-size="16" font-family="Helvetica"><tspan y="-31.34" x="343.03 351.926 362.598 374.15">LBCF</tspan></text>
<text fill="#4d4d4d" xml:space="preserve" transform="matrix(1 0 -0 1 0 288)" font-size="16" font-family="Helvetica"><tspan y="-31.34" x="399.89 410.562 421.234 432.306">BART</tspan></text>
<text fill="#4d4d4d" xml:space="preserve" transform="matrix(1 0 -0 1 0 288)" font-size="16" font-family="Helvetica"><tspan y="-31.34" x="462.5 473.172 484.724">BCF</tspan></text>
<text fill="#4d4d4d" xml:space="preserve" transform="matrix(1 0 -0 1 0 288)" font-size="16" font-family="Helvetica"><tspan y="-31.34" x="519.13 531.578 543.13">GRF</tspan></text>
<text fill="#4d4d4d" xml:space="preserve" transform="matrix(1 0 -0 1 0 288)" font-size="16" font-family="Helvetica"><tspan y="-56.2" x="301.8 310.69599 315.14399">0.5</tspan></text>
<text fill="#4d4d4d" xml:space="preserve" transform="matrix(1 0 -0 1 0 288)" font-size="16" font-family="Helvetica"><tspan y="-110.18" x="301.8 310.69599 315.14399">1.0</tspan></text>
<text fill="#4d4d4d" xml:space="preserve" transform="matrix(1 0 -0 1 0 288)" font-size="16" font-family="Helvetica"><tspan y="-164.17" x="301.8 310.69599 315.14399">1.5</tspan></text>
<text fill="#4d4d4d" xml:space="preserve" transform="matrix(1 0 -0 1 0 288)" font-size="16" font-family="Helvetica"><tspan y="-218.15" x="301.8 310.69599 315.14399">2.0</tspan></text>
<path transform="matrix(1,0,0,-1,0,288)" stroke-width="1.07" stroke-linecap="butt" stroke-linejoin="round" fill="none" stroke="#333333" d="M326.23 61.94H328.97"/>
<path transform="matrix(1,0,0,-1,0,288)" stroke-width="1.07" stroke-linecap="butt" stroke-linejoin="round" fill="none" stroke="#333333" d="M326.23 115.93H328.97"/>
<path transform="matrix(1,0,0,-1,0,288)" stroke-width="1.07" stroke-linecap="butt" stroke-linejoin="round" fill="none" stroke="#333333" d="M326.23 169.91H328.97"/>
<path transform="matrix(1,0,0,-1,0,288)" stroke-width="1.07" stroke-linecap="butt" stroke-linejoin="round" fill="none" stroke="#333333" d="M326.23 223.89H328.97"/>
<text fill="#4d4d4d" xml:space="preserve" transform="matrix(1 0 -0 1 0 288)" font-size="16" font-family="Helvetica"><tspan y="-55.13" x="27.34 36.236 40.684003">1.0</tspan></text>
<text fill="#4d4d4d" xml:space="preserve" transform="matrix(1 0 -0 1 0 288)" font-size="16" font-family="Helvetica"><tspan y="-93.94" x="27.34 36.236 40.684003">1.5</tspan></text>
<text fill="#4d4d4d" xml:space="preserve" transform="matrix(1 0 -0 1 0 288)" font-size="16" font-family="Helvetica"><tspan y="-132.75" x="27.34 36.236 40.684003">2.0</tspan></text>
<text fill="#4d4d4d" xml:space="preserve" transform="matrix(1 0 -0 1 0 288)" font-size="16" font-family="Helvetica"><tspan y="-171.57" x="27.34 36.236 40.684003">2.5</tspan></text>
<text fill="#4d4d4d" xml:space="preserve" transform="matrix(1 0 -0 1 0 288)" font-size="16" font-family="Helvetica"><tspan y="-210.38" x="27.34 36.236 40.684003">3.0</tspan></text>
<text fill="#4d4d4d" xml:space="preserve" transform="matrix(1 0 -0 1 0 288)" font-size="16" font-family="Helvetica"><tspan y="-249.19" x="27.34 36.236 40.684003">3.5</tspan></text>
<path transform="matrix(1,0,0,-1,0,288)" stroke-width="1.07" stroke-linecap="butt" stroke-linejoin="round" fill="none" stroke="#333333" d="M51.77 60.87H54.51"/>
<path transform="matrix(1,0,0,-1,0,288)" stroke-width="1.07" stroke-linecap="butt" stroke-linejoin="round" fill="none" stroke="#333333" d="M51.77 99.68H54.51"/>
<path transform="matrix(1,0,0,-1,0,288)" stroke-width="1.07" stroke-linecap="butt" stroke-linejoin="round" fill="none" stroke="#333333" d="M51.77 138.5H54.51"/>
<path transform="matrix(1,0,0,-1,0,288)" stroke-width="1.07" stroke-linecap="butt" stroke-linejoin="round" fill="none" stroke="#333333" d="M51.77 177.31H54.51"/>
<path transform="matrix(1,0,0,-1,0,288)" stroke-width="1.07" stroke-linecap="butt" stroke-linejoin="round" fill="none" stroke="#333333" d="M51.77 216.12H54.51"/>
<path transform="matrix(1,0,0,-1,0,288)" stroke-width="1.07" stroke-linecap="butt" stroke-linejoin="round" fill="none" stroke="#333333" d="M51.77 254.94H54.51"/>
<text xml:space="preserve" transform="matrix(1 0 -0 1 0 288)" font-size="20" font-family="Helvetica"><tspan y="-9.98" x="279.17 295.83003 306.95 312.51 323.63 334.75">Method</tspan></text>
<text xml:space="preserve" transform="matrix(0 -1 1 0 0 288)" font-size="20" font-family="Helvetica"><tspan y="19.84" x="93.98 108.420009 125.08001 138.42002 151.76001 157.32 170.66 184 198.44">RMSE/PEHE</tspan></text>
</svg>
