<svg xmlns="http://www.w3.org/2000/svg" xmlns:xlink="http://www.w3.org/1999/xlink" version="1.1" width="576" height="288" viewBox="0 0 576 288">
<defs>
<clipPath id="clip_0">
<path transform="matrix(1,0,0,-1,0,288)" d="M0 0H576V288H0Z"/>
</clipPath>
<clipPath id="clip_1">
<path transform="matrix(1,0,0,-1,0,288)" d="M54.51 65.04H570.52V282.52H54.51Z"/>
</clipPath>
</defs>
<g clip-path="url(#clip_0)">
<path transform="matrix(1,0,0,-1,0,288)" d="M0 0H576V288H0Z" fill="#ffffff"/>
<path transform="matrix(1,0,0,-1,0,288)" stroke-width="1.07" stroke-linecap="round" stroke-linejoin="round" fill="none" stroke="#ffffff" d="M0 0H576V288H0Z"/>
</g>
<g clip-path="url(#clip_1)">
<path transform="matrix(1,0,0,-1,0,288)" d="M54.51 65.04H570.52V282.52H54.51Z" fill="#ebebeb"/>
<path transform="matrix(1,0,0,-1,0,288)" stroke-width=".53" stroke-linecap="butt" stroke-linejoin="round" fill="none" stroke="#ffffff" d="M54.51 100.18H570.52"/>
<path transform="matrix(1,0,0,-1,0,288)" stroke-width=".53" stroke-linecap="butt" stroke-linejoin="round" fill="none" stroke="#ffffff" d="M54.51 150.74H570.52"/>
<path transform="matrix(1,0,0,-1,0,288)" stroke-width=".53" stroke-linecap="butt" stroke-linejoin="round" fill="none" stroke="#ffffff" d="M54.51 201.29H570.52"/>
<path transform="matrix(1,0,0,-1,0,288)" stroke-width=".53" stroke-linecap="butt" stroke-linejoin="round" fill="none" stroke="#ffffff" d="M54.51 251.84H570.52"/>
<path transform="matrix(1,0,0,-1,0,288)" stroke-width="1.07" stroke-linecap="butt" stroke-linejoin="round" fill="none" stroke="#ffffff" d="M54.51 74.91H570.52"/>
<path transform="matrix(1,0,0,-1,0,288)" stroke-width="1.07" stroke-linecap="butt" stroke-linejoin="round" fill="none" stroke="#ffffff" d="M54.51 125.46H570.52"/>
<path transform="matrix(1,0,0,-1,0,288)" stroke-width="1.07" stroke-linecap="butt" stroke-linejoin="round" fill="none" stroke="#ffffff" d="M54.51 176.01H570.52"/>
<path transform="matrix(1,0,0,-1,0,288)" stroke-width="1.07" stroke-linecap="butt" stroke-linejoin="round" fill="none" stroke="#ffffff" d="M54.51 226.57H570.52"/>
<path transform="matrix(1,0,0,-1,0,288)" stroke-width="1.07" stroke-linecap="butt" stroke-linejoin="round" fill="none" stroke="#ffffff" d="M54.51 277.12H570.52"/>
<path transform="matrix(1,0,0,-1,0,288)" stroke-width="1.07" stroke-linecap="butt" stroke-linejoin="round" fill="none" stroke="#ffffff" d="M128.23 65.04V282.52"/>
<path transform="matrix(1,0,0,-1,0,288)" stroke-width="1.07" stroke-linecap="butt" stroke-linejoin="round" fill="none" stroke="#ffffff" d="M251.09 65.04V282.52"/>
<path transform="matrix(1,0,0,-1,0,288)" stroke-width="1.07" stroke-linecap="butt" stroke-linejoin="round" fill="none" stroke="#ffffff" d="M373.95 65.04V282.52"/>
<path transform="matrix(1,0,0,-1,0,288)" stroke-width="1.07" stroke-linecap="butt" stroke-linejoin="round" fill="none" stroke="#ffffff" d="M496.8 65.04V282.52"/>
<path transform="matrix(1,0,0,-1,0,288)" d="M126.27 98.71C126.27 99.78 127.15 100.66 128.23 100.66 129.3 100.66 130.18 99.78 130.18 98.71 130.18 97.63 129.3 96.75 128.23 96.75 127.15 96.75 126.27 97.63 126.27 98.71" fill="#333333"/>
<path transform="matrix(1,0,0,-1,0,288)" stroke-width=".71" stroke-linecap="round" stroke-linejoin="round" fill="none" stroke="#333333" d="M126.27 98.71C126.27 99.78 127.15 100.66 128.23 100.66 129.3 100.66 130.18 99.78 130.18 98.71 130.18 97.63 129.3 96.75 128.23 96.75 127.15 96.75 126.27 97.63 126.27 98.71"/>
<path transform="matrix(1,0,0,-1,0,288)" d="M126.27 102.85C126.27 103.93 127.15 104.81 128.23 104.81 129.3 104.81 130.18 103.93 130.18 102.85 130.18 101.78 129.3 100.9 128.23 100.9 127.15 100.9 126.27 101.78 126.27 102.85" fill="#333333"/>
<path transform="matrix(1,0,0,-1,0,288)" stroke-width=".71" stroke-linecap="round" stroke-linejoin="round" fill="none" stroke="#333333" d="M126.27 102.85C126.27 103.93 127.15 104.81 128.23 104.81 129.3 104.81 130.18 103.93 130.18 102.85 130.18 101.78 129.3 100.9 128.23 100.9 127.15 100.9 126.27 101.78 126.27 102.85"/>
<path transform="matrix(1,0,0,-1,0,288)" d="M126.27 104.01C126.27 105.08 127.15 105.96 128.23 105.96 129.3 105.96 130.18 105.08 130.18 104.01 130.18 102.93 129.3 102.05 128.23 102.05 127.15 102.05 126.27 102.93 126.27 104.01" fill="#333333"/>
<path transform="matrix(1,0,0,-1,0,288)" stroke-width=".71" stroke-linecap="round" stroke-linejoin="round" fill="none" stroke="#333333" d="M126.27 104.01C126.27 105.08 127.15 105.96 128.23 105.96 129.3 105.96 130.18 105.08 130.18 104.01 130.18 102.93 129.3 102.05 128.23 102.05 127.15 102.05 126.27 102.93 126.27 104.01"/>
<path transform="matrix(1,0,0,-1,0,288)" d="M126.27 108.35C126.27 109.42 127.15 110.3 128.23 110.3 129.3 110.3 130.18 109.42 130.18 108.35 130.18 107.27 129.3 106.39 128.23 106.39 127.15 106.39 126.27 107.27 126.27 108.35" fill="#333333"/>
<path transform="matrix(1,0,0,-1,0,288)" stroke-width=".71" stroke-linecap="round" stroke-linejoin="round" fill="none" stroke="#333333" d="M126.27 108.35C126.27 109.42 127.15 110.3 128.23 110.3 129.3 110.3 130.18 109.42 130.18 108.35 130.18 107.27 129.3 106.39 128.23 106.39 127.15 106.39 126.27 107.27 126.27 108.35"/>
<path transform="matrix(1,0,0,-1,0,288)" d="M126.27 100.49C126.27 101.56 127.15 102.44 128.23 102.44 129.3 102.44 130.18 101.56 130.18 100.49 130.18 99.41 129.3 98.53 128.23 98.53 127.15 98.53 126.27 99.41 126.27 100.49" fill="#333333"/>
<path transform="matrix(1,0,0,-1,0,288)" stroke-width=".71" stroke-linecap="round" stroke-linejoin="round" fill="none" stroke="#333333" d="M126.27 100.49C126.27 101.56 127.15 102.44 128.23 102.44 129.3 102.44 130.18 101.56 130.18 100.49 130.18 99.41 129.3 98.53 128.23 98.53 127.15 98.53 126.27 99.41 126.27 100.49"/>
<path transform="matrix(1,0,0,-1,0,288)" d="M126.27 108.11C126.27 109.18 127.15 110.06 128.23 110.06 129.3 110.06 130.18 109.18 130.18 108.11 130.18 107.03 129.3 106.15 128.23 106.15 127.15 106.15 126.27 107.03 126.27 108.11" fill="#333333"/>
<path transform="matrix(1,0,0,-1,0,288)" stroke-width=".71" stroke-linecap="round" stroke-linejoin="round" fill="none" stroke="#333333" d="M126.27 108.11C126.27 109.18 127.15 110.06 128.23 110.06 129.3 110.06 130.18 109.18 130.18 108.11 130.18 107.03 129.3 106.15 128.23 106.15 127.15 106.15 126.27 107.03 126.27 108.11"/>
<path transform="matrix(1,0,0,-1,0,288)" d="M126.27 102.75C126.27 103.82 127.15 104.7 128.23 104.7 129.3 104.7 130.18 103.82 130.18 102.75 130.18 101.67 129.3 100.79 128.23 100.79 127.15 100.79 126.27 101.67 126.27 102.75" fill="#333333"/>
<path transform="matrix(1,0,0,-1,0,288)" stroke-width=".71" stroke-linecap="round" stroke-linejoin="round" fill="none" stroke="#333333" d="M126.27 102.75C126.27 103.82 127.15 104.7 128.23 104.7 129.3 104.7 130.18 103.82 130.18 102.75 130.18 101.67 129.3 100.79 128.23 100.79 127.15 100.79 126.27 101.67 126.27 102.75"/>
<path transform="matrix(1,0,0,-1,0,288)" d="M126.27 99.63C126.27 100.7 127.15 101.58 128.23 101.58 129.3 101.58 130.18 100.7 130.18 99.63 130.18 98.55 129.3 97.67 128.23 97.67 127.15 97.67 126.27 98.55 126.27 99.63" fill="#333333"/>
<path transform="matrix(1,0,0,-1,0,288)" stroke-width=".71" stroke-linecap="round" stroke-linejoin="round" fill="none" stroke="#333333" d="M126.27 99.63C126.27 100.7 127.15 101.58 128.23 101.58 129.3 101.58 130.18 100.7 130.18 99.63 130.18 98.55 129.3 97.67 128.23 97.67 127.15 97.67 126.27 98.55 126.27 99.63"/>
<path transform="matrix(1,0,0,-1,0,288)" d="M126.27 100.43C126.27 101.51 127.15 102.39 128.23 102.39 129.3 102.39 130.18 101.51 130.18 100.43 130.18 99.36 129.3 98.48 128.23 98.48 127.15 98.48 126.27 99.36 126.27 100.43" fill="#333333"/>
<path transform="matrix(1,0,0,-1,0,288)" stroke-width=".71" stroke-linecap="round" stroke-linejoin="round" fill="none" stroke="#333333" d="M126.27 100.43C126.27 101.51 127.15 102.39 128.23 102.39 129.3 102.39 130.18 101.51 130.18 100.43 130.18 99.36 129.3 98.48 128.23 98.48 127.15 98.48 126.27 99.36 126.27 100.43"/>
<path transform="matrix(1,0,0,-1,0,288)" d="M126.27 99.98C126.27 101.06 127.15 101.94 128.23 101.94 129.3 101.94 130.18 101.06 130.18 99.98 130.18 98.91 129.3 98.03 128.23 98.03 127.15 98.03 126.27 98.91 126.27 99.98" fill="#333333"/>
<path transform="matrix(1,0,0,-1,0,288)" stroke-width=".71" stroke-linecap="round" stroke-linejoin="round" fill="none" stroke="#333333" d="M126.27 99.98C126.27 101.06 127.15 101.94 128.23 101.94 129.3 101.94 130.18 101.06 130.18 99.98 130.18 98.91 129.3 98.03 128.23 98.03 127.15 98.03 126.27 98.91 126.27 99.98"/>
<path transform="matrix(1,0,0,-1,0,288)" d="M126.27 102.85C126.27 103.93 127.15 104.81 128.23 104.81 129.3 104.81 130.18 103.93 130.18 102.85 130.18 101.78 129.3 100.9 128.23 100.9 127.15 100.9 126.27 101.78 126.27 102.85" fill="#333333"/>
<path transform="matrix(1,0,0,-1,0,288)" stroke-width=".71" stroke-linecap="round" stroke-linejoin="round" fill="none" stroke="#333333" d="M126.27 102.85C126.27 103.93 127.15 104.81 128.23 104.81 129.3 104.81 130.18 103.93 130.18 102.85 130.18 101.78 129.3 100.9 128.23 100.9 127.15 100.9 126.27 101.78 126.27 102.85"/>
<path transform="matrix(1,0,0,-1,0,288)" d="M126.27 104.48C126.27 105.55 127.15 106.43 128.23 106.43 129.3 106.43 130.18 105.55 130.18 104.48 130.18 103.4 129.3 102.52 128.23 102.52 127.15 102.52 126.27 103.4 126.27 104.48" fill="#333333"/>
<path transform="matrix(1,0,0,-1,0,288)" stroke-width=".71" stroke-linecap="round" stroke-linejoin="round" fill="none" stroke="#333333" d="M126.27 104.48C126.27 105.55 127.15 106.43 128.23 106.43 129.3 106.43 130.18 105.55 130.18 104.48 130.18 103.4 129.3 102.52 128.23 102.52 127.15 102.52 126.27 103.4 126.27 104.48"/>
<path transform="matrix(1,0,0,-1,0,288)" d="M126.27 101.46C126.27 102.53 127.15 103.41 128.23 103.41 129.3 103.41 130.18 102.53 130.18 101.46 130.18 100.38 129.3 99.5 128.23 99.5 127.15 99.5 126.27 100.38 126.27 101.46" fill="#333333"/>
<path transform="matrix(1,0,0,-1,0,288)" stroke-width=".71" stroke-linecap="round" stroke-linejoin="round" fill="none" stroke="#333333" d="M126.27 101.46C126.27 102.53 127.15 103.41 128.23 103.41 129.3 103.41 130.18 102.53 130.18 101.46 130.18 100.38 129.3 99.5 128.23 99.5 127.15 99.5 126.27 100.38 126.27 101.46"/>
<path transform="matrix(1,0,0,-1,0,288)" d="M126.27 100.59C126.27 101.66 127.15 102.54 128.23 102.54 129.3 102.54 130.18 101.66 130.18 100.59 130.18 99.51 129.3 98.63 128.23 98.63 127.15 98.63 126.27 99.51 126.27 100.59" fill="#333333"/>
<path transform="matrix(1,0,0,-1,0,288)" stroke-width=".71" stroke-linecap="round" stroke-linejoin="round" fill="none" stroke="#333333" d="M126.27 100.59C126.27 101.66 127.15 102.54 128.23 102.54 129.3 102.54 130.18 101.66 130.18 100.59 130.18 99.51 129.3 98.63 128.23 98.63 127.15 98.63 126.27 99.51 126.27 100.59"/>
<path transform="matrix(1,0,0,-1,0,288)" stroke-width="1.07" stroke-linecap="butt" stroke-linejoin="round" fill="none" stroke="#333333" d="M128.23 86.23V98.41"/>
<path transform="matrix(1,0,0,-1,0,288)" stroke-width="1.07" stroke-linecap="butt" stroke-linejoin="round" fill="none" stroke="#333333" d="M128.23 77.94V74.95"/>
<path transform="matrix(1,0,0,-1,0,288)" d="M82.15 86.23V77.94H174.3V86.23H82.15Z" fill="#f8766d"/>
<path transform="matrix(1,0,0,-1,0,288)" stroke-width="1.07" stroke-linecap="butt" stroke-miterlimit="10" stroke-linejoin="miter" fill="none" stroke="#333333" d="M82.15 86.23V77.94H174.3V86.23H82.15Z"/>
<path transform="matrix(1,0,0,-1,0,288)" stroke-width="2.13" stroke-linecap="butt" stroke-miterlimit="10" stroke-linejoin="miter" fill="none" stroke="#333333" d="M82.15 81.32H174.3"/>
<path transform="matrix(1,0,0,-1,0,288)" d="M249.13 106.65C249.13 107.72 250.01 108.6 251.09 108.6 252.16 108.6 253.04 107.72 253.04 106.65 253.04 105.57 252.16 104.69 251.09 104.69 250.01 104.69 249.13 105.57 249.13 106.65" fill="#333333"/>
<path transform="matrix(1,0,0,-1,0,288)" stroke-width=".71" stroke-linecap="round" stroke-linejoin="round" fill="none" stroke="#333333" d="M249.13 106.65C249.13 107.72 250.01 108.6 251.09 108.6 252.16 108.6 253.04 107.72 253.04 106.65 253.04 105.57 252.16 104.69 251.09 104.69 250.01 104.69 249.13 105.57 249.13 106.65"/>
<path transform="matrix(1,0,0,-1,0,288)" d="M249.13 110.94C249.13 112.01 250.01 112.89 251.09 112.89 252.16 112.89 253.04 112.01 253.04 110.94 253.04 109.86 252.16 108.98 251.09 108.98 250.01 108.98 249.13 109.86 249.13 110.94" fill="#333333"/>
<path transform="matrix(1,0,0,-1,0,288)" stroke-width=".71" stroke-linecap="round" stroke-linejoin="round" fill="none" stroke="#333333" d="M249.13 110.94C249.13 112.01 250.01 112.89 251.09 112.89 252.16 112.89 253.04 112.01 253.04 110.94 253.04 109.86 252.16 108.98 251.09 108.98 250.01 108.98 249.13 109.86 249.13 110.94"/>
<path transform="matrix(1,0,0,-1,0,288)" d="M249.13 106.27C249.13 107.34 250.01 108.22 251.09 108.22 252.16 108.22 253.04 107.34 253.04 106.27 253.04 105.19 252.16 104.31 251.09 104.31 250.01 104.31 249.13 105.19 249.13 106.27" fill="#333333"/>
<path transform="matrix(1,0,0,-1,0,288)" stroke-width=".71" stroke-linecap="round" stroke-linejoin="round" fill="none" stroke="#333333" d="M249.13 106.27C249.13 107.34 250.01 108.22 251.09 108.22 252.16 108.22 253.04 107.34 253.04 106.27 253.04 105.19 252.16 104.31 251.09 104.31 250.01 104.31 249.13 105.19 249.13 106.27"/>
<path transform="matrix(1,0,0,-1,0,288)" d="M249.13 107.76C249.13 108.83 250.01 109.71 251.09 109.71 252.16 109.71 253.04 108.83 253.04 107.76 253.04 106.68 252.16 105.8 251.09 105.8 250.01 105.8 249.13 106.68 249.13 107.76" fill="#333333"/>
<path transform="matrix(1,0,0,-1,0,288)" stroke-width=".71" stroke-linecap="round" stroke-linejoin="round" fill="none" stroke="#333333" d="M249.13 107.76C249.13 108.83 250.01 109.71 251.09 109.71 252.16 109.71 253.04 108.83 253.04 107.76 253.04 106.68 252.16 105.8 251.09 105.8 250.01 105.8 249.13 106.68 249.13 107.76"/>
<path transform="matrix(1,0,0,-1,0,288)" d="M249.13 112.29C249.13 113.36 250.01 114.24 251.09 114.24 252.16 114.24 253.04 113.36 253.04 112.29 253.04 111.21 252.16 110.33 251.09 110.33 250.01 110.33 249.13 111.21 249.13 112.29" fill="#333333"/>
<path transform="matrix(1,0,0,-1,0,288)" stroke-width=".71" stroke-linecap="round" stroke-linejoin="round" fill="none" stroke="#333333" d="M249.13 112.29C249.13 113.36 250.01 114.24 251.09 114.24 252.16 114.24 253.04 113.36 253.04 112.29 253.04 111.21 252.16 110.33 251.09 110.33 250.01 110.33 249.13 111.21 249.13 112.29"/>
<path transform="matrix(1,0,0,-1,0,288)" d="M249.13 106.85C249.13 107.92 250.01 108.8 251.09 108.8 252.16 108.8 253.04 107.92 253.04 106.85 253.04 105.77 252.16 104.89 251.09 104.89 250.01 104.89 249.13 105.77 249.13 106.85" fill="#333333"/>
<path transform="matrix(1,0,0,-1,0,288)" stroke-width=".71" stroke-linecap="round" stroke-linejoin="round" fill="none" stroke="#333333" d="M249.13 106.85C249.13 107.92 250.01 108.8 251.09 108.8 252.16 108.8 253.04 107.92 253.04 106.85 253.04 105.77 252.16 104.89 251.09 104.89 250.01 104.89 249.13 105.77 249.13 106.85"/>
<path transform="matrix(1,0,0,-1,0,288)" d="M249.13 105.33C249.13 106.4 250.01 107.28 251.09 107.28 252.16 107.28 253.04 106.4 253.04 105.33 253.04 104.25 252.16 103.38 251.09 103.38 250.01 103.38 249.13 104.25 249.13 105.33" fill="#333333"/>
<path transform="matrix(1,0,0,-1,0,288)" stroke-width=".71" stroke-linecap="round" stroke-linejoin="round" fill="none" stroke="#333333" d="M249.13 105.33C249.13 106.4 250.01 107.28 251.09 107.28 252.16 107.28 253.04 106.4 253.04 105.33 253.04 104.25 252.16 103.38 251.09 103.38 250.01 103.38 249.13 104.25 249.13 105.33"/>
<path transform="matrix(1,0,0,-1,0,288)" d="M249.13 106.87C249.13 107.94 250.01 108.82 251.09 108.82 252.16 108.82 253.04 107.94 253.04 106.87 253.04 105.79 252.16 104.91 251.09 104.91 250.01 104.91 249.13 105.79 249.13 106.87" fill="#333333"/>
<path transform="matrix(1,0,0,-1,0,288)" stroke-width=".71" stroke-linecap="round" stroke-linejoin="round" fill="none" stroke="#333333" d="M249.13 106.87C249.13 107.94 250.01 108.82 251.09 108.82 252.16 108.82 253.04 107.94 253.04 106.87 253.04 105.79 252.16 104.91 251.09 104.91 250.01 104.91 249.13 105.79 249.13 106.87"/>
<path transform="matrix(1,0,0,-1,0,288)" d="M249.13 105.04C249.13 106.12 250.01 107 251.09 107 252.16 107 253.04 106.12 253.04 105.04 253.04 103.97 252.16 103.09 251.09 103.09 250.01 103.09 249.13 103.97 249.13 105.04" fill="#333333"/>
<path transform="matrix(1,0,0,-1,0,288)" stroke-width=".71" stroke-linecap="round" stroke-linejoin="round" fill="none" stroke="#333333" d="M249.13 105.04C249.13 106.12 250.01 107 251.09 107 252.16 107 253.04 106.12 253.04 105.04 253.04 103.97 252.16 103.09 251.09 103.09 250.01 103.09 249.13 103.97 249.13 105.04"/>
<path transform="matrix(1,0,0,-1,0,288)" d="M249.13 108.9C249.13 109.98 250.01 110.86 251.09 110.86 252.16 110.86 253.04 109.98 253.04 108.9 253.04 107.83 252.16 106.95 251.09 106.95 250.01 106.95 249.13 107.83 249.13 108.9" fill="#333333"/>
<path transform="matrix(1,0,0,-1,0,288)" stroke-width=".71" stroke-linecap="round" stroke-linejoin="round" fill="none" stroke="#333333" d="M249.13 108.9C249.13 109.98 250.01 110.86 251.09 110.86 252.16 110.86 253.04 109.98 253.04 108.9 253.04 107.83 252.16 106.95 251.09 106.95 250.01 106.95 249.13 107.83 249.13 108.9"/>
<path transform="matrix(1,0,0,-1,0,288)" d="M249.13 105.16C249.13 106.24 250.01 107.12 251.09 107.12 252.16 107.12 253.04 106.24 253.04 105.16 253.04 104.09 252.16 103.21 251.09 103.21 250.01 103.21 249.13 104.09 249.13 105.16" fill="#333333"/>
<path transform="matrix(1,0,0,-1,0,288)" stroke-width=".71" stroke-linecap="round" stroke-linejoin="round" fill="none" stroke="#333333" d="M249.13 105.16C249.13 106.24 250.01 107.12 251.09 107.12 252.16 107.12 253.04 106.24 253.04 105.16 253.04 104.09 252.16 103.21 251.09 103.21 250.01 103.21 249.13 104.09 249.13 105.16"/>
<path transform="matrix(1,0,0,-1,0,288)" d="M249.13 110C249.13 111.08 250.01 111.96 251.09 111.96 252.16 111.96 253.04 111.08 253.04 110 253.04 108.93 252.16 108.05 251.09 108.05 250.01 108.05 249.13 108.93 249.13 110" fill="#333333"/>
<path transform="matrix(1,0,0,-1,0,288)" stroke-width=".71" stroke-linecap="round" stroke-linejoin="round" fill="none" stroke="#333333" d="M249.13 110C249.13 111.08 250.01 111.96 251.09 111.96 252.16 111.96 253.04 111.08 253.04 110 253.04 108.93 252.16 108.05 251.09 108.05 250.01 108.05 249.13 108.93 249.13 110"/>
<path transform="matrix(1,0,0,-1,0,288)" stroke-width="1.07" stroke-linecap="butt" stroke-linejoin="round" fill="none" stroke="#333333" d="M251.09 89V104.43"/>
<path transform="matrix(1,0,0,-1,0,288)" stroke-width="1.07" stroke-linecap="butt" stroke-linejoin="round" fill="none" stroke="#333333" d="M251.09 78.65V74.93"/>
<path transform="matrix(1,0,0,-1,0,288)" d="M205.01 89V78.65H297.16V89H205.01Z" fill="#7cae00"/>
<path transform="matrix(1,0,0,-1,0,288)" stroke-width="1.07" stroke-linecap="butt" stroke-miterlimit="10" stroke-linejoin="miter" fill="none" stroke="#333333" d="M205.01 89V78.65H297.16V89H205.01Z"/>
<path transform="matrix(1,0,0,-1,0,288)" stroke-width="2.13" stroke-linecap="butt" stroke-miterlimit="10" stroke-linejoin="miter" fill="none" stroke="#333333" d="M205.01 82.82H297.16"/>
<path transform="matrix(1,0,0,-1,0,288)" d="M371.99 110.56C371.99 111.64 372.87 112.52 373.95 112.52 375.02 112.52 375.9 111.64 375.9 110.56 375.9 109.49 375.02 108.61 373.95 108.61 372.87 108.61 371.99 109.49 371.99 110.56" fill="#333333"/>
<path transform="matrix(1,0,0,-1,0,288)" stroke-width=".71" stroke-linecap="round" stroke-linejoin="round" fill="none" stroke="#333333" d="M371.99 110.56C371.99 111.64 372.87 112.52 373.95 112.52 375.02 112.52 375.9 111.64 375.9 110.56 375.9 109.49 375.02 108.61 373.95 108.61 372.87 108.61 371.99 109.49 371.99 110.56"/>
<path transform="matrix(1,0,0,-1,0,288)" d="M371.99 111.96C371.99 113.03 372.87 113.91 373.95 113.91 375.02 113.91 375.9 113.03 375.9 111.96 375.9 110.88 375.02 110 373.95 110 372.87 110 371.99 110.88 371.99 111.96" fill="#333333"/>
<path transform="matrix(1,0,0,-1,0,288)" stroke-width=".71" stroke-linecap="round" stroke-linejoin="round" fill="none" stroke="#333333" d="M371.99 111.96C371.99 113.03 372.87 113.91 373.95 113.91 375.02 113.91 375.9 113.03 375.9 111.96 375.9 110.88 375.02 110 373.95 110 372.87 110 371.99 110.88 371.99 111.96"/>
<path transform="matrix(1,0,0,-1,0,288)" d="M371.99 109.3C371.99 110.38 372.87 111.26 373.95 111.26 375.02 111.26 375.9 110.38 375.9 109.3 375.9 108.23 375.02 107.35 373.95 107.35 372.87 107.35 371.99 108.23 371.99 109.3" fill="#333333"/>
<path transform="matrix(1,0,0,-1,0,288)" stroke-width=".71" stroke-linecap="round" stroke-linejoin="round" fill="none" stroke="#333333" d="M371.99 109.3C371.99 110.38 372.87 111.26 373.95 111.26 375.02 111.26 375.9 110.38 375.9 109.3 375.9 108.23 375.02 107.35 373.95 107.35 372.87 107.35 371.99 108.23 371.99 109.3"/>
<path transform="matrix(1,0,0,-1,0,288)" d="M371.99 106.94C371.99 108.02 372.87 108.9 373.95 108.9 375.02 108.9 375.9 108.02 375.9 106.94 375.9 105.87 375.02 104.99 373.95 104.99 372.87 104.99 371.99 105.87 371.99 106.94" fill="#333333"/>
<path transform="matrix(1,0,0,-1,0,288)" stroke-width=".71" stroke-linecap="round" stroke-linejoin="round" fill="none" stroke="#333333" d="M371.99 106.94C371.99 108.02 372.87 108.9 373.95 108.9 375.02 108.9 375.9 108.02 375.9 106.94 375.9 105.87 375.02 104.99 373.95 104.99 372.87 104.99 371.99 105.87 371.99 106.94"/>
<path transform="matrix(1,0,0,-1,0,288)" d="M371.99 110.54C371.99 111.61 372.87 112.49 373.95 112.49 375.02 112.49 375.9 111.61 375.9 110.54 375.9 109.46 375.02 108.58 373.95 108.58 372.87 108.58 371.99 109.46 371.99 110.54" fill="#333333"/>
<path transform="matrix(1,0,0,-1,0,288)" stroke-width=".71" stroke-linecap="round" stroke-linejoin="round" fill="none" stroke="#333333" d="M371.99 110.54C371.99 111.61 372.87 112.49 373.95 112.49 375.02 112.49 375.9 111.61 375.9 110.54 375.9 109.46 375.02 108.58 373.95 108.58 372.87 108.58 371.99 109.46 371.99 110.54"/>
<path transform="matrix(1,0,0,-1,0,288)" d="M371.99 112.71C371.99 113.79 372.87 114.67 373.95 114.67 375.02 114.67 375.9 113.79 375.9 112.71 375.9 111.64 375.02 110.76 373.95 110.76 372.87 110.76 371.99 111.64 371.99 112.71" fill="#333333"/>
<path transform="matrix(1,0,0,-1,0,288)" stroke-width=".71" stroke-linecap="round" stroke-linejoin="round" fill="none" stroke="#333333" d="M371.99 112.71C371.99 113.79 372.87 114.67 373.95 114.67 375.02 114.67 375.9 113.79 375.9 112.71 375.9 111.64 375.02 110.76 373.95 110.76 372.87 110.76 371.99 111.64 371.99 112.71"/>
<path transform="matrix(1,0,0,-1,0,288)" d="M371.99 118.88C371.99 119.95 372.87 120.83 373.95 120.83 375.02 120.83 375.9 119.95 375.9 118.88 375.9 117.8 375.02 116.92 373.95 116.92 372.87 116.92 371.99 117.8 371.99 118.88" fill="#333333"/>
<path transform="matrix(1,0,0,-1,0,288)" stroke-width=".71" stroke-linecap="round" stroke-linejoin="round" fill="none" stroke="#333333" d="M371.99 118.88C371.99 119.95 372.87 120.83 373.95 120.83 375.02 120.83 375.9 119.95 375.9 118.88 375.9 117.8 375.02 116.92 373.95 116.92 372.87 116.92 371.99 117.8 371.99 118.88"/>
<path transform="matrix(1,0,0,-1,0,288)" d="M371.99 113.58C371.99 114.65 372.87 115.53 373.95 115.53 375.02 115.53 375.9 114.65 375.9 113.58 375.9 112.5 375.02 111.62 373.95 111.62 372.87 111.62 371.99 112.5 371.99 113.58" fill="#333333"/>
<path transform="matrix(1,0,0,-1,0,288)" stroke-width=".71" stroke-linecap="round" stroke-linejoin="round" fill="none" stroke="#333333" d="M371.99 113.58C371.99 114.65 372.87 115.53 373.95 115.53 375.02 115.53 375.9 114.65 375.9 113.58 375.9 112.5 375.02 111.62 373.95 111.62 372.87 111.62 371.99 112.5 371.99 113.58"/>
<path transform="matrix(1,0,0,-1,0,288)" d="M371.99 108.14C371.99 109.21 372.87 110.09 373.95 110.09 375.02 110.09 375.9 109.21 375.9 108.14 375.9 107.06 375.02 106.18 373.95 106.18 372.87 106.18 371.99 107.06 371.99 108.14" fill="#333333"/>
<path transform="matrix(1,0,0,-1,0,288)" stroke-width=".71" stroke-linecap="round" stroke-linejoin="round" fill="none" stroke="#333333" d="M371.99 108.14C371.99 109.21 372.87 110.09 373.95 110.09 375.02 110.09 375.9 109.21 375.9 108.14 375.9 107.06 375.02 106.18 373.95 106.18 372.87 106.18 371.99 107.06 371.99 108.14"/>
<path transform="matrix(1,0,0,-1,0,288)" d="M371.99 111.01C371.99 112.09 372.87 112.97 373.95 112.97 375.02 112.97 375.9 112.09 375.9 111.01 375.9 109.94 375.02 109.06 373.95 109.06 372.87 109.06 371.99 109.94 371.99 111.01" fill="#333333"/>
<path transform="matrix(1,0,0,-1,0,288)" stroke-width=".71" stroke-linecap="round" stroke-linejoin="round" fill="none" stroke="#333333" d="M371.99 111.01C371.99 112.09 372.87 112.97 373.95 112.97 375.02 112.97 375.9 112.09 375.9 111.01 375.9 109.94 375.02 109.06 373.95 109.06 372.87 109.06 371.99 109.94 371.99 111.01"/>
<path transform="matrix(1,0,0,-1,0,288)" d="M371.99 108.75C371.99 109.82 372.87 110.7 373.95 110.7 375.02 110.7 375.9 109.82 375.9 108.75 375.9 107.67 375.02 106.79 373.95 106.79 372.87 106.79 371.99 107.67 371.99 108.75" fill="#333333"/>
<path transform="matrix(1,0,0,-1,0,288)" stroke-width=".71" stroke-linecap="round" stroke-linejoin="round" fill="none" stroke="#333333" d="M371.99 108.75C371.99 109.82 372.87 110.7 373.95 110.7 375.02 110.7 375.9 109.82 375.9 108.75 375.9 107.67 375.02 106.79 373.95 106.79 372.87 106.79 371.99 107.67 371.99 108.75"/>
<path transform="matrix(1,0,0,-1,0,288)" d="M371.99 107.97C371.99 109.04 372.87 109.92 373.95 109.92 375.02 109.92 375.9 109.04 375.9 107.97 375.9 106.89 375.02 106.01 373.95 106.01 372.87 106.01 371.99 106.89 371.99 107.97" fill="#333333"/>
<path transform="matrix(1,0,0,-1,0,288)" stroke-width=".71" stroke-linecap="round" stroke-linejoin="round" fill="none" stroke="#333333" d="M371.99 107.97C371.99 109.04 372.87 109.92 373.95 109.92 375.02 109.92 375.9 109.04 375.9 107.97 375.9 106.89 375.02 106.01 373.95 106.01 372.87 106.01 371.99 106.89 371.99 107.97"/>
<path transform="matrix(1,0,0,-1,0,288)" d="M371.99 109.04C371.99 110.12 372.87 111 373.95 111 375.02 111 375.9 110.12 375.9 109.04 375.9 107.97 375.02 107.09 373.95 107.09 372.87 107.09 371.99 107.97 371.99 109.04" fill="#333333"/>
<path transform="matrix(1,0,0,-1,0,288)" stroke-width=".71" stroke-linecap="round" stroke-linejoin="round" fill="none" stroke="#333333" d="M371.99 109.04C371.99 110.12 372.87 111 373.95 111 375.02 111 375.9 110.12 375.9 109.04 375.9 107.97 375.02 107.09 373.95 107.09 372.87 107.09 371.99 107.97 371.99 109.04"/>
<path transform="matrix(1,0,0,-1,0,288)" d="M371.99 109.2C371.99 110.28 372.87 111.16 373.95 111.16 375.02 111.16 375.9 110.28 375.9 109.2 375.9 108.13 375.02 107.25 373.95 107.25 372.87 107.25 371.99 108.13 371.99 109.2" fill="#333333"/>
<path transform="matrix(1,0,0,-1,0,288)" stroke-width=".71" stroke-linecap="round" stroke-linejoin="round" fill="none" stroke="#333333" d="M371.99 109.2C371.99 110.28 372.87 111.16 373.95 111.16 375.02 111.16 375.9 110.28 375.9 109.2 375.9 108.13 375.02 107.25 373.95 107.25 372.87 107.25 371.99 108.13 371.99 109.2"/>
<path transform="matrix(1,0,0,-1,0,288)" d="M371.99 115.36C371.99 116.44 372.87 117.32 373.95 117.32 375.02 117.32 375.9 116.44 375.9 115.36 375.9 114.29 375.02 113.41 373.95 113.41 372.87 113.41 371.99 114.29 371.99 115.36" fill="#333333"/>
<path transform="matrix(1,0,0,-1,0,288)" stroke-width=".71" stroke-linecap="round" stroke-linejoin="round" fill="none" stroke="#333333" d="M371.99 115.36C371.99 116.44 372.87 117.32 373.95 117.32 375.02 117.32 375.9 116.44 375.9 115.36 375.9 114.29 375.02 113.41 373.95 113.41 372.87 113.41 371.99 114.29 371.99 115.36"/>
<path transform="matrix(1,0,0,-1,0,288)" d="M371.99 110.2C371.99 111.28 372.87 112.16 373.95 112.16 375.02 112.16 375.9 111.28 375.9 110.2 375.9 109.13 375.02 108.25 373.95 108.25 372.87 108.25 371.99 109.13 371.99 110.2" fill="#333333"/>
<path transform="matrix(1,0,0,-1,0,288)" stroke-width=".71" stroke-linecap="round" stroke-linejoin="round" fill="none" stroke="#333333" d="M371.99 110.2C371.99 111.28 372.87 112.16 373.95 112.16 375.02 112.16 375.9 111.28 375.9 110.2 375.9 109.13 375.02 108.25 373.95 108.25 372.87 108.25 371.99 109.13 371.99 110.2"/>
<path transform="matrix(1,0,0,-1,0,288)" stroke-width="1.07" stroke-linecap="butt" stroke-linejoin="round" fill="none" stroke="#333333" d="M373.95 90.38V106.46"/>
<path transform="matrix(1,0,0,-1,0,288)" stroke-width="1.07" stroke-linecap="butt" stroke-linejoin="round" fill="none" stroke="#333333" d="M373.95 79.35V74.94"/>
<path transform="matrix(1,0,0,-1,0,288)" d="M327.87 90.38V79.35H420.02V90.38H327.87Z" fill="#00bfc4"/>
<path transform="matrix(1,0,0,-1,0,288)" stroke-width="1.07" stroke-linecap="butt" stroke-miterlimit="10" stroke-linejoin="miter" fill="none" stroke="#333333" d="M327.87 90.38V79.35H420.02V90.38H327.87Z"/>
<path transform="matrix(1,0,0,-1,0,288)" stroke-width="2.13" stroke-linecap="butt" stroke-miterlimit="10" stroke-linejoin="miter" fill="none" stroke="#333333" d="M327.87 83.82H420.02"/>
<path transform="matrix(1,0,0,-1,0,288)" d="M494.85 227.77C494.85 228.84 495.73 229.72 496.8 229.72 497.88 229.72 498.76 228.84 498.76 227.77 498.76 226.69 497.88 225.81 496.8 225.81 495.73 225.81 494.85 226.69 494.85 227.77" fill="#333333"/>
<path transform="matrix(1,0,0,-1,0,288)" stroke-width=".71" stroke-linecap="round" stroke-linejoin="round" fill="none" stroke="#333333" d="M494.85 227.77C494.85 228.84 495.73 229.72 496.8 229.72 497.88 229.72 498.76 228.84 498.76 227.77 498.76 226.69 497.88 225.81 496.8 225.81 495.73 225.81 494.85 226.69 494.85 227.77"/>
<path transform="matrix(1,0,0,-1,0,288)" d="M494.85 219.75C494.85 220.83 495.73 221.71 496.8 221.71 497.88 221.71 498.76 220.83 498.76 219.75 498.76 218.68 497.88 217.8 496.8 217.8 495.73 217.8 494.85 218.68 494.85 219.75" fill="#333333"/>
<path transform="matrix(1,0,0,-1,0,288)" stroke-width=".71" stroke-linecap="round" stroke-linejoin="round" fill="none" stroke="#333333" d="M494.85 219.75C494.85 220.83 495.73 221.71 496.8 221.71 497.88 221.71 498.76 220.83 498.76 219.75 498.76 218.68 497.88 217.8 496.8 217.8 495.73 217.8 494.85 218.68 494.85 219.75"/>
<path transform="matrix(1,0,0,-1,0,288)" d="M494.85 261.49C494.85 262.56 495.73 263.44 496.8 263.44 497.88 263.44 498.76 262.56 498.76 261.49 498.76 260.41 497.88 259.53 496.8 259.53 495.73 259.53 494.85 260.41 494.85 261.49" fill="#333333"/>
<path transform="matrix(1,0,0,-1,0,288)" stroke-width=".71" stroke-linecap="round" stroke-linejoin="round" fill="none" stroke="#333333" d="M494.85 261.49C494.85 262.56 495.73 263.44 496.8 263.44 497.88 263.44 498.76 262.56 498.76 261.49 498.76 260.41 497.88 259.53 496.8 259.53 495.73 259.53 494.85 260.41 494.85 261.49"/>
<path transform="matrix(1,0,0,-1,0,288)" d="M494.85 240.53C494.85 241.6 495.73 242.48 496.8 242.48 497.88 242.48 498.76 241.6 498.76 240.53 498.76 239.45 497.88 238.57 496.8 238.57 495.73 238.57 494.85 239.45 494.85 240.53" fill="#333333"/>
<path transform="matrix(1,0,0,-1,0,288)" stroke-width=".71" stroke-linecap="round" stroke-linejoin="round" fill="none" stroke="#333333" d="M494.85 240.53C494.85 241.6 495.73 242.48 496.8 242.48 497.88 242.48 498.76 241.6 498.76 240.53 498.76 239.45 497.88 238.57 496.8 238.57 495.73 238.57 494.85 239.45 494.85 240.53"/>
<path transform="matrix(1,0,0,-1,0,288)" d="M494.85 212.6C494.85 213.67 495.73 214.55 496.8 214.55 497.88 214.55 498.76 213.67 498.76 212.6 498.76 211.52 497.88 210.64 496.8 210.64 495.73 210.64 494.85 211.52 494.85 212.6" fill="#333333"/>
<path transform="matrix(1,0,0,-1,0,288)" stroke-width=".71" stroke-linecap="round" stroke-linejoin="round" fill="none" stroke="#333333" d="M494.85 212.6C494.85 213.67 495.73 214.55 496.8 214.55 497.88 214.55 498.76 213.67 498.76 212.6 498.76 211.52 497.88 210.64 496.8 210.64 495.73 210.64 494.85 211.52 494.85 212.6"/>
<path transform="matrix(1,0,0,-1,0,288)" d="M494.85 248.52C494.85 249.59 495.73 250.47 496.8 250.47 497.88 250.47 498.76 249.59 498.76 248.52 498.76 247.44 497.88 246.56 496.8 246.56 495.73 246.56 494.85 247.44 494.85 248.52" fill="#333333"/>
<path transform="matrix(1,0,0,-1,0,288)" stroke-width=".71" stroke-linecap="round" stroke-linejoin="round" fill="none" stroke="#333333" d="M494.85 248.52C494.85 249.59 495.73 250.47 496.8 250.47 497.88 250.47 498.76 249.59 498.76 248.52 498.76 247.44 497.88 246.56 496.8 246.56 495.73 246.56 494.85 247.44 494.85 248.52"/>
<path transform="matrix(1,0,0,-1,0,288)" d="M494.85 229.98C494.85 231.06 495.73 231.94 496.8 231.94 497.88 231.94 498.76 231.06 498.76 229.98 498.76 228.91 497.88 228.03 496.8 228.03 495.73 228.03 494.85 228.91 494.85 229.98" fill="#333333"/>
<path transform="matrix(1,0,0,-1,0,288)" stroke-width=".71" stroke-linecap="round" stroke-linejoin="round" fill="none" stroke="#333333" d="M494.85 229.98C494.85 231.06 495.73 231.94 496.8 231.94 497.88 231.94 498.76 231.06 498.76 229.98 498.76 228.91 497.88 228.03 496.8 228.03 495.73 228.03 494.85 228.91 494.85 229.98"/>
<path transform="matrix(1,0,0,-1,0,288)" d="M494.85 229.71C494.85 230.79 495.73 231.67 496.8 231.67 497.88 231.67 498.76 230.79 498.76 229.71 498.76 228.64 497.88 227.76 496.8 227.76 495.73 227.76 494.85 228.64 494.85 229.71" fill="#333333"/>
<path transform="matrix(1,0,0,-1,0,288)" stroke-width=".71" stroke-linecap="round" stroke-linejoin="round" fill="none" stroke="#333333" d="M494.85 229.71C494.85 230.79 495.73 231.67 496.8 231.67 497.88 231.67 498.76 230.79 498.76 229.71 498.76 228.64 497.88 227.76 496.8 227.76 495.73 227.76 494.85 228.64 494.85 229.71"/>
<path transform="matrix(1,0,0,-1,0,288)" d="M494.85 219.79C494.85 220.86 495.73 221.74 496.8 221.74 497.88 221.74 498.76 220.86 498.76 219.79 498.76 218.71 497.88 217.83 496.8 217.83 495.73 217.83 494.85 218.71 494.85 219.79" fill="#333333"/>
<path transform="matrix(1,0,0,-1,0,288)" stroke-width=".71" stroke-linecap="round" stroke-linejoin="round" fill="none" stroke="#333333" d="M494.85 219.79C494.85 220.86 495.73 221.74 496.8 221.74 497.88 221.74 498.76 220.86 498.76 219.79 498.76 218.71 497.88 217.83 496.8 217.83 495.73 217.83 494.85 218.71 494.85 219.79"/>
<path transform="matrix(1,0,0,-1,0,288)" d="M494.85 255.95C494.85 257.03 495.73 257.91 496.8 257.91 497.88 257.91 498.76 257.03 498.76 255.95 498.76 254.88 497.88 254 496.8 254 495.73 254 494.85 254.88 494.85 255.95" fill="#333333"/>
<path transform="matrix(1,0,0,-1,0,288)" stroke-width=".71" stroke-linecap="round" stroke-linejoin="round" fill="none" stroke="#333333" d="M494.85 255.95C494.85 257.03 495.73 257.91 496.8 257.91 497.88 257.91 498.76 257.03 498.76 255.95 498.76 254.88 497.88 254 496.8 254 495.73 254 494.85 254.88 494.85 255.95"/>
<path transform="matrix(1,0,0,-1,0,288)" d="M494.85 227.28C494.85 228.35 495.73 229.23 496.8 229.23 497.88 229.23 498.76 228.35 498.76 227.28 498.76 226.2 497.88 225.32 496.8 225.32 495.73 225.32 494.85 226.2 494.85 227.28" fill="#333333"/>
<path transform="matrix(1,0,0,-1,0,288)" stroke-width=".71" stroke-linecap="round" stroke-linejoin="round" fill="none" stroke="#333333" d="M494.85 227.28C494.85 228.35 495.73 229.23 496.8 229.23 497.88 229.23 498.76 228.35 498.76 227.28 498.76 226.2 497.88 225.32 496.8 225.32 495.73 225.32 494.85 226.2 494.85 227.28"/>
<path transform="matrix(1,0,0,-1,0,288)" d="M494.85 259.9C494.85 260.98 495.73 261.86 496.8 261.86 497.88 261.86 498.76 260.98 498.76 259.9 498.76 258.83 497.88 257.95 496.8 257.95 495.73 257.95 494.85 258.83 494.85 259.9" fill="#333333"/>
<path transform="matrix(1,0,0,-1,0,288)" stroke-width=".71" stroke-linecap="round" stroke-linejoin="round" fill="none" stroke="#333333" d="M494.85 259.9C494.85 260.98 495.73 261.86 496.8 261.86 497.88 261.86 498.76 260.98 498.76 259.9 498.76 258.83 497.88 257.95 496.8 257.95 495.73 257.95 494.85 258.83 494.85 259.9"/>
<path transform="matrix(1,0,0,-1,0,288)" d="M494.85 228.27C494.85 229.34 495.73 230.22 496.8 230.22 497.88 230.22 498.76 229.34 498.76 228.27 498.76 227.19 497.88 226.31 496.8 226.31 495.73 226.31 494.85 227.19 494.85 228.27" fill="#333333"/>
<path transform="matrix(1,0,0,-1,0,288)" stroke-width=".71" stroke-linecap="round" stroke-linejoin="round" fill="none" stroke="#333333" d="M494.85 228.27C494.85 229.34 495.73 230.22 496.8 230.22 497.88 230.22 498.76 229.34 498.76 228.27 498.76 227.19 497.88 226.31 496.8 226.31 495.73 226.31 494.85 227.19 494.85 228.27"/>
<path transform="matrix(1,0,0,-1,0,288)" d="M494.85 264.86C494.85 265.93 495.73 266.81 496.8 266.81 497.88 266.81 498.76 265.93 498.76 264.86 498.76 263.78 497.88 262.9 496.8 262.9 495.73 262.9 494.85 263.78 494.85 264.86" fill="#333333"/>
<path transform="matrix(1,0,0,-1,0,288)" stroke-width=".71" stroke-linecap="round" stroke-linejoin="round" fill="none" stroke="#333333" d="M494.85 264.86C494.85 265.93 495.73 266.81 496.8 266.81 497.88 266.81 498.76 265.93 498.76 264.86 498.76 263.78 497.88 262.9 496.8 262.9 495.73 262.9 494.85 263.78 494.85 264.86"/>
<path transform="matrix(1,0,0,-1,0,288)" d="M494.85 246.29C494.85 247.37 495.73 248.25 496.8 248.25 497.88 248.25 498.76 247.37 498.76 246.29 498.76 245.22 497.88 244.34 496.8 244.34 495.73 244.34 494.85 245.22 494.85 246.29" fill="#333333"/>
<path transform="matrix(1,0,0,-1,0,288)" stroke-width=".71" stroke-linecap="round" stroke-linejoin="round" fill="none" stroke="#333333" d="M494.85 246.29C494.85 247.37 495.73 248.25 496.8 248.25 497.88 248.25 498.76 247.37 498.76 246.29 498.76 245.22 497.88 244.34 496.8 244.34 495.73 244.34 494.85 245.22 494.85 246.29"/>
<path transform="matrix(1,0,0,-1,0,288)" d="M494.85 237.65C494.85 238.73 495.73 239.61 496.8 239.61 497.88 239.61 498.76 238.73 498.76 237.65 498.76 236.58 497.88 235.7 496.8 235.7 495.73 235.7 494.85 236.58 494.85 237.65" fill="#333333"/>
<path transform="matrix(1,0,0,-1,0,288)" stroke-width=".71" stroke-linecap="round" stroke-linejoin="round" fill="none" stroke="#333333" d="M494.85 237.65C494.85 238.73 495.73 239.61 496.8 239.61 497.88 239.61 498.76 238.73 498.76 237.65 498.76 236.58 497.88 235.7 496.8 235.7 495.73 235.7 494.85 236.58 494.85 237.65"/>
<path transform="matrix(1,0,0,-1,0,288)" d="M494.85 219.59C494.85 220.67 495.73 221.55 496.8 221.55 497.88 221.55 498.76 220.67 498.76 219.59 498.76 218.52 497.88 217.64 496.8 217.64 495.73 217.64 494.85 218.52 494.85 219.59" fill="#333333"/>
<path transform="matrix(1,0,0,-1,0,288)" stroke-width=".71" stroke-linecap="round" stroke-linejoin="round" fill="none" stroke="#333333" d="M494.85 219.59C494.85 220.67 495.73 221.55 496.8 221.55 497.88 221.55 498.76 220.67 498.76 219.59 498.76 218.52 497.88 217.64 496.8 217.64 495.73 217.64 494.85 218.52 494.85 219.59"/>
<path transform="matrix(1,0,0,-1,0,288)" d="M494.85 239.82C494.85 240.9 495.73 241.77 496.8 241.77 497.88 241.77 498.76 240.9 498.76 239.82 498.76 238.74 497.88 237.87 496.8 237.87 495.73 237.87 494.85 238.74 494.85 239.82" fill="#333333"/>
<path transform="matrix(1,0,0,-1,0,288)" stroke-width=".71" stroke-linecap="round" stroke-linejoin="round" fill="none" stroke="#333333" d="M494.85 239.82C494.85 240.9 495.73 241.77 496.8 241.77 497.88 241.77 498.76 240.9 498.76 239.82 498.76 238.74 497.88 237.87 496.8 237.87 495.73 237.87 494.85 238.74 494.85 239.82"/>
<path transform="matrix(1,0,0,-1,0,288)" d="M494.85 272.64C494.85 273.71 495.73 274.59 496.8 274.59 497.88 274.59 498.76 273.71 498.76 272.64 498.76 271.56 497.88 270.68 496.8 270.68 495.73 270.68 494.85 271.56 494.85 272.64" fill="#333333"/>
<path transform="matrix(1,0,0,-1,0,288)" stroke-width=".71" stroke-linecap="round" stroke-linejoin="round" fill="none" stroke="#333333" d="M494.85 272.64C494.85 273.71 495.73 274.59 496.8 274.59 497.88 274.59 498.76 273.71 498.76 272.64 498.76 271.56 497.88 270.68 496.8 270.68 495.73 270.68 494.85 271.56 494.85 272.64"/>
<path transform="matrix(1,0,0,-1,0,288)" stroke-width="1.07" stroke-linecap="butt" stroke-linejoin="round" fill="none" stroke="#333333" d="M496.8 141.25V211.07"/>
<path transform="matrix(1,0,0,-1,0,288)" stroke-width="1.07" stroke-linecap="butt" stroke-linejoin="round" fill="none" stroke="#333333" d="M496.8 93.98V74.95"/>
<path transform="matrix(1,0,0,-1,0,288)" d="M450.73 141.25V93.98H542.88V141.25H450.73Z" fill="#c77cff"/>
<path transform="matrix(1,0,0,-1,0,288)" stroke-width="1.07" stroke-linecap="butt" stroke-miterlimit="10" stroke-linejoin="miter" fill="none" stroke="#333333" d="M450.73 141.25V93.98H542.88V141.25H450.73Z"/>
<path transform="matrix(1,0,0,-1,0,288)" stroke-width="2.13" stroke-linecap="butt" stroke-miterlimit="10" stroke-linejoin="miter" fill="none" stroke="#333333" d="M450.73 114.01H542.88"/>
</g>
<text fill="#4d4d4d" xml:space="preserve" transform="matrix(1 0 -0 1 0 288)" font-size="16" font-family="Helvetica"><tspan y="-69.16" x="27.34 36.236 40.684003">0.0</tspan></text>
<text fill="#4d4d4d" xml:space="preserve" transform="matrix(1 0 -0 1 0 288)" font-size="16" font-family="Helvetica"><tspan y="-119.72" x="27.34 36.236 40.684003">0.5</tspan></text>
<text fill="#4d4d4d" xml:space="preserve" transform="matrix(1 0 -0 1 0 288)" font-size="16" font-family="Helvetica"><tspan y="-170.27" x="27.34 36.236 40.684003">1.0</tspan></text>
<text fill="#4d4d4d" xml:space="preserve" transform="matrix(1 0 -0 1 0 288)" font-size="16" font-family="Helvetica"><tspan y="-220.82" x="27.34 36.236 40.684003">1.5</tspan></text>
<text fill="#4d4d4d" xml:space="preserve" transform="matrix(1 0 -0 1 0 288)" font-size="16" font-family="Helvetica"><tspan y="-271.37" x="27.34 36.236 40.684003">2.0</tspan></text>
<path transform="matrix(1,0,0,-1,0,288)" stroke-width="1.07" stroke-linecap="butt" stroke-linejoin="round" fill="none" stroke="#333333" d="M51.77 74.91H54.51"/>
<path transform="matrix(1,0,0,-1,0,288)" stroke-width="1.07" stroke-linecap="butt" stroke-linejoin="round" fill="none" stroke="#333333" d="M51.77 125.46H54.51"/>
<path transform="matrix(1,0,0,-1,0,288)" stroke-width="1.07" stroke-linecap="butt" stroke-linejoin="round" fill="none" stroke="#333333" d="M51.77 176.01H54.51"/>
<path transform="matrix(1,0,0,-1,0,288)" stroke-width="1.07" stroke-linecap="butt" stroke-linejoin="round" fill="none" stroke="#333333" d="M51.77 226.57H54.51"/>
<path transform="matrix(1,0,0,-1,0,288)" stroke-width="1.07" stroke-linecap="butt" stroke-linejoin="round" fill="none" stroke="#333333" d="M51.77 277.12H54.51"/>
<path transform="matrix(1,0,0,-1,0,288)" stroke-width="1.07" stroke-linecap="butt" stroke-linejoin="round" fill="none" stroke="#333333" d="M128.23 62.3V65.04"/>
<path transform="matrix(1,0,0,-1,0,288)" stroke-width="1.07" stroke-linecap="butt" stroke-linejoin="round" fill="none" stroke="#333333" d="M251.09 62.3V65.04"/>
<path transform="matrix(1,0,0,-1,0,288)" stroke-width="1.07" stroke-linecap="butt" stroke-linejoin="round" fill="none" stroke="#333333" d="M373.95 62.3V65.04"/>
<path transform="matrix(1,0,0,-1,0,288)" stroke-width="1.07" stroke-linecap="butt" stroke-linejoin="round" fill="none" stroke="#333333" d="M496.8 62.3V65.04"/>
<text fill="#4d4d4d" xml:space="preserve" transform="matrix(1 0 -0 1 0 288)" font-size="16" font-family="Helvetica"><tspan y="-48.62" x="96.21 105.106 114.00201 122.00201 126.450008 130.89801 139.794 148.69 152.242">gesttools</tspan></text>
<text fill="#4d4d4d" xml:space="preserve" transform="matrix(1 0 -0 1 0 288)" font-size="16" font-family="Helvetica"><tspan y="-48.62" x="230.64 239.536 250.208 261.75999">LBCF</tspan></text>
<text fill="#4d4d4d" xml:space="preserve" transform="matrix(1 0 -0 1 0 288)" font-size="16" font-family="Helvetica"><tspan y="-31.34" x="215.53 229.994 238.56999 246.17 255.066 259.514 268.41 277.754">Wave 1&#x2212;2</tspan></text>
<text fill="#4d4d4d" xml:space="preserve" transform="matrix(1 0 -0 1 0 288)" font-size="16" font-family="Helvetica"><tspan y="-48.62" x="353.5 362.396 373.068 384.62">LBCF</tspan></text>
<text fill="#4d4d4d" xml:space="preserve" transform="matrix(1 0 -0 1 0 288)" font-size="16" font-family="Helvetica"><tspan y="-31.34" x="338.39 352.854 361.43 369.03 377.926 382.374 391.27 400.61399">Wave 2&#x2212;3</tspan></text>
<text fill="#4d4d4d" xml:space="preserve" transform="matrix(1 0 -0 1 0 288)" font-size="16" font-family="Helvetica"><tspan y="-48.62" x="471.9 479.03599 488.81199 502.13999 511.03599">LTMLE</tspan></text>
<text xml:space="preserve" transform="matrix(1 0 -0 1 0 288)" font-size="20" font-family="Helvetica"><tspan y="-9.98" x="279.17 295.83003 306.95 312.51 323.63 334.75">Method</tspan></text>
<text xml:space="preserve" transform="matrix(0 -1 1 0 0 288)" font-size="20" font-family="Helvetica"><tspan y="19.84" x="112.64 125.98 137.1 147.1 158.22 162.66 173.78 179.34 190.45999 196.01999 209.35999 213.79999 224.91999">Absolute Bias</tspan></text>
</svg>
