<svg xmlns="http://www.w3.org/2000/svg" xmlns:xlink="http://www.w3.org/1999/xlink" version="1.1" width="576" height="288" viewBox="0 0 576 288">
<defs>
<clipPath id="clip_0">
<path transform="matrix(1,0,0,-1,0,288)" d="M0 0H288V288H0Z"/>
</clipPath>
<clipPath id="clip_1">
<path transform="matrix(1,0,0,-1,0,288)" d="M31.58 32.88H282.52V262.96H31.58Z"/>
</clipPath>
<clipPath id="clip_2">
<path transform="matrix(1,0,0,-1,0,288)" d="M288 0H576V288H288Z"/>
</clipPath>
<clipPath id="clip_3">
<path transform="matrix(1,0,0,-1,0,288)" d="M328.58 32.88H570.52V262.52H328.58Z"/>
</clipPath>
</defs>
<g clip-path="url(#clip_0)">
<path transform="matrix(1,0,0,-1,0,288)" d="M0 0H288V288H0Z" fill="#ffffff"/>
<path transform="matrix(1,0,0,-1,0,288)" stroke-width="1.07" stroke-linecap="round" stroke-linejoin="round" fill="none" stroke="#ffffff" d="M0 0H288V288H0Z"/>
</g>
<g clip-path="url(#clip_1)">
<path transform="matrix(1,0,0,-1,0,288)" d="M31.58 32.88H282.52V262.96H31.58Z" fill="#ebebeb"/>
<path transform="matrix(1,0,0,-1,0,288)" stroke-width=".53" stroke-linecap="butt" stroke-linejoin="round" fill="none" stroke="#ffffff" d="M31.58 64.53H282.52"/>
<path transform="matrix(1,0,0,-1,0,288)" stroke-width=".53" stroke-linecap="butt" stroke-linejoin="round" fill="none" stroke="#ffffff" d="M31.58 106.9H282.52"/>
<path transform="matrix(1,0,0,-1,0,288)" stroke-width=".53" stroke-linecap="butt" stroke-linejoin="round" fill="none" stroke="#ffffff" d="M31.58 149.28H282.52"/>
<path transform="matrix(1,0,0,-1,0,288)" stroke-width=".53" stroke-linecap="butt" stroke-linejoin="round" fill="none" stroke="#ffffff" d="M31.58 191.66H282.52"/>
<path transform="matrix(1,0,0,-1,0,288)" stroke-width=".53" stroke-linecap="butt" stroke-linejoin="round" fill="none" stroke="#ffffff" d="M31.58 234.03H282.52"/>
<path transform="matrix(1,0,0,-1,0,288)" stroke-width=".53" stroke-linecap="butt" stroke-linejoin="round" fill="none" stroke="#ffffff" d="M73.79 32.88V262.96"/>
<path transform="matrix(1,0,0,-1,0,288)" stroke-width=".53" stroke-linecap="butt" stroke-linejoin="round" fill="none" stroke="#ffffff" d="M151.59 32.88V262.96"/>
<path transform="matrix(1,0,0,-1,0,288)" stroke-width=".53" stroke-linecap="butt" stroke-linejoin="round" fill="none" stroke="#ffffff" d="M229.4 32.88V262.96"/>
<path transform="matrix(1,0,0,-1,0,288)" stroke-width="1.07" stroke-linecap="butt" stroke-linejoin="round" fill="none" stroke="#ffffff" d="M31.58 43.34H282.52"/>
<path transform="matrix(1,0,0,-1,0,288)" stroke-width="1.07" stroke-linecap="butt" stroke-linejoin="round" fill="none" stroke="#ffffff" d="M31.58 85.72H282.52"/>
<path transform="matrix(1,0,0,-1,0,288)" stroke-width="1.07" stroke-linecap="butt" stroke-linejoin="round" fill="none" stroke="#ffffff" d="M31.58 128.09H282.52"/>
<path transform="matrix(1,0,0,-1,0,288)" stroke-width="1.07" stroke-linecap="butt" stroke-linejoin="round" fill="none" stroke="#ffffff" d="M31.58 170.47H282.52"/>
<path transform="matrix(1,0,0,-1,0,288)" stroke-width="1.07" stroke-linecap="butt" stroke-linejoin="round" fill="none" stroke="#ffffff" d="M31.58 212.85H282.52"/>
<path transform="matrix(1,0,0,-1,0,288)" stroke-width="1.07" stroke-linecap="butt" stroke-linejoin="round" fill="none" stroke="#ffffff" d="M31.58 255.22H282.52"/>
<path transform="matrix(1,0,0,-1,0,288)" stroke-width="1.07" stroke-linecap="butt" stroke-linejoin="round" fill="none" stroke="#ffffff" d="M34.88 32.88V262.96"/>
<path transform="matrix(1,0,0,-1,0,288)" stroke-width="1.07" stroke-linecap="butt" stroke-linejoin="round" fill="none" stroke="#ffffff" d="M112.69 32.88V262.96"/>
<path transform="matrix(1,0,0,-1,0,288)" stroke-width="1.07" stroke-linecap="butt" stroke-linejoin="round" fill="none" stroke="#ffffff" d="M190.5 32.88V262.96"/>
<path transform="matrix(1,0,0,-1,0,288)" stroke-width="1.07" stroke-linecap="butt" stroke-linejoin="round" fill="none" stroke="#ffffff" d="M268.3 32.88V262.96"/>
<path transform="matrix(1,0,0,-1,0,288)" d="M42.99 44.06 43.43 44.09 43.88 44.12 44.33 44.15 44.77 44.17 45.22 44.2 45.67 44.22 46.11 44.24 46.56 44.25 47 44.27 47.45 44.29 47.9 44.31 48.34 44.33 48.79 44.35 49.24 44.37 49.68 44.4 50.13 44.43 50.58 44.47 51.02 44.52 51.47 44.56 51.92 44.62 52.36 44.68 52.81 44.75 53.25 44.82 53.7 44.91 54.15 44.99 54.59 45.09 55.04 45.19 55.49 45.29 55.93 45.4 56.38 45.52 56.83 45.63 57.27 45.75 57.72 45.88 58.17 46.01 58.61 46.13 59.06 46.26 59.51 46.4 59.95 46.53 60.4 46.66 60.84 46.8 61.29 46.93 61.74 47.07 62.18 47.21 62.63 47.35 63.08 47.49 63.52 47.63 63.97 47.78 64.42 47.93 64.86 48.09 65.31 48.25 65.76 48.41 66.2 48.59 66.65 48.76 67.09 48.95 67.54 49.14 67.99 49.34 68.43 49.55 68.88 49.76 69.33 49.98 69.77 50.21 70.22 50.45 70.67 50.69 71.11 50.93 71.56 51.18 72.01 51.43 72.45 51.68 72.9 51.94 73.34 52.2 73.79 52.46 74.24 52.72 74.68 52.98 75.13 53.25 75.58 53.51 76.02 53.78 76.47 54.06 76.92 54.33 77.36 54.61 77.81 54.89 78.26 55.18 78.7 55.48 79.15 55.78 79.59 56.08 80.04 56.4 80.49 56.72 80.93 57.05 81.38 57.39 81.83 57.73 82.27 58.09 82.72 58.46 83.17 58.85 83.61 59.24 84.06 59.66 84.51 60.09 84.95 60.54 85.4 61.02 85.84 61.51 86.29 62.03 86.74 62.58 87.18 63.16 87.63 63.78 88.08 64.42 88.52 65.1 88.97 65.81 89.42 66.56 89.86 67.34 90.31 68.16 90.76 69.01 91.2 69.9 91.65 70.83 92.09 71.79 92.54 72.78 92.99 73.81 93.43 74.87 93.88 75.97 94.33 77.1 94.77 78.26 95.22 79.46 95.67 80.69 96.11 81.95 96.56 83.25 97.01 84.57 97.45 85.92 97.9 87.3 98.34 88.7 98.79 90.11 99.24 91.54 99.68 92.98 100.13 94.42 100.58 95.86 101.02 97.29 101.47 98.71 101.92 100.11 102.36 101.48 102.81 102.82 103.26 104.12 103.7 105.4 104.15 106.63 104.59 107.83 105.04 108.99 105.49 110.11 105.93 111.21 106.38 112.29 106.83 113.35 107.27 114.39 107.72 115.44 108.17 116.49 108.61 117.56 109.06 118.65 109.51 119.77 109.95 120.93 110.4 122.13 110.84 123.39 111.29 124.71 111.74 126.08 112.18 127.51 112.63 129 113.08 130.54 113.52 132.15 113.97 133.82 114.42 135.53 114.86 137.29 115.31 139.08 115.76 140.91 116.2 142.76 116.65 144.63 117.09 146.52 117.54 148.4 117.99 150.29 118.43 152.17 118.88 154.04 119.33 155.89 119.77 157.72 120.22 159.54 120.67 161.33 121.11 163.11 121.56 164.87 122.01 166.61 122.45 168.34 122.9 170.06 123.34 171.78 123.79 173.5 124.24 175.22 124.68 176.95 125.13 178.7 125.58 180.45 126.02 182.21 126.47 183.99 126.92 185.78 127.36 187.58 127.81 189.38 128.26 191.18 128.7 192.97 129.15 194.76 129.6 196.52 130.04 198.26 130.49 199.98 130.93 201.66 131.38 203.29 131.83 204.89 132.27 206.44 132.72 207.95 133.17 209.41 133.61 210.82 134.06 212.19 134.51 213.51 134.95 214.8 135.4 216.06 135.85 217.29 136.29 218.5 136.74 219.68 137.18 220.84 137.63 221.99 138.08 223.13 138.52 224.26 138.97 225.38 139.42 226.5 139.86 227.6 140.31 228.69 140.76 229.77 141.2 230.84 141.65 231.9 142.1 232.94 142.54 233.96 142.99 234.95 143.43 235.92 143.88 236.87 144.33 237.8 144.77 238.69 145.22 239.56 145.67 240.41 146.11 241.22 146.56 242 147.01 242.76 147.45 243.5 147.9 244.21 148.35 244.89 148.79 245.55 149.24 246.18 149.68 246.79 150.13 247.37 150.58 247.93 151.02 248.47 151.47 248.98 151.92 249.46 152.36 249.91 152.81 250.34 153.26 250.74 153.7 251.1 154.15 251.44 154.6 251.73 155.04 251.98 155.49 252.18 155.93 252.34 156.38 252.45 156.83 252.51 157.27 252.49 157.72 252.41 158.17 252.25 158.61 252.02 159.06 251.71 159.51 251.32 159.95 250.83 160.4 250.24 160.85 249.56 161.29 248.78 161.74 247.91 162.18 246.95 162.63 245.89 163.08 244.75 163.52 243.51 163.97 242.2 164.42 240.83 164.86 239.4 165.31 237.91 165.76 236.39 166.2 234.84 166.65 233.27 167.1 231.7 167.54 230.13 167.99 228.58 168.43 227.05 168.88 225.57 169.33 224.13 169.77 222.74 170.22 221.41 170.67 220.14 171.11 218.93 171.56 217.78 172.01 216.7 172.45 215.68 172.9 214.71 173.35 213.78 173.79 212.89 174.24 212.03 174.68 211.19 175.13 210.35 175.58 209.51 176.02 208.64 176.47 207.75 176.92 206.81 177.36 205.83 177.81 204.77 178.26 203.65 178.7 202.44 179.15 201.16 179.6 199.79 180.04 198.34 180.49 196.8 180.93 195.16 181.38 193.45 181.83 191.67 182.27 189.82 182.72 187.91 183.17 185.96 183.61 183.95 184.06 181.92 184.51 179.86 184.95 177.79 185.4 175.71 185.85 173.62 186.29 171.55 186.74 169.48 187.18 167.43 187.63 165.39 188.08 163.37 188.52 161.37 188.97 159.39 189.42 157.42 189.86 155.48 190.31 153.56 190.76 151.65 191.2 149.77 191.65 147.89 192.1 146.04 192.54 144.2 192.99 142.38 193.43 140.58 193.88 138.79 194.33 137.03 194.77 135.28 195.22 133.56 195.67 131.86 196.11 130.18 196.56 128.53 197.01 126.9 197.45 125.28 197.9 123.69 198.35 122.13 198.79 120.58 199.24 119.05 199.68 117.53 200.13 116.03 200.58 114.54 201.02 113.05 201.47 111.58 201.92 110.12 202.36 108.66 202.81 107.21 203.26 105.76 203.7 104.32 204.15 102.89 204.6 101.47 205.04 100.06 205.49 98.67 205.94 97.29 206.38 95.93 206.83 94.59 207.27 93.28 207.72 92 208.17 90.75 208.61 89.52 209.06 88.33 209.51 87.16 209.95 86.04 210.4 84.95 210.85 83.89 211.29 82.87 211.74 81.87 212.19 80.9 212.63 79.95 213.08 79.04 213.52 78.14 213.97 77.26 214.42 76.4 214.86 75.55 215.31 74.72 215.76 73.89 216.2 73.08 216.65 72.27 217.1 71.47 217.54 70.68 217.99 69.89 218.44 69.11 218.88 68.34 219.33 67.57 219.77 66.81 220.22 66.07 220.67 65.33 221.11 64.6 221.56 63.88 222.01 63.18 222.45 62.5 222.9 61.83 223.35 61.18 223.79 60.55 224.24 59.93 224.69 59.34 225.13 58.77 225.58 58.22 226.02 57.69 226.47 57.19 226.92 56.7 227.36 56.24 227.81 55.79 228.26 55.37 228.7 54.97 229.15 54.59 229.6 54.23 230.04 53.88 230.49 53.56 230.94 53.26 231.38 52.97 231.83 52.71 232.27 52.45 232.72 52.22 233.17 52 233.61 51.8 234.06 51.62 234.51 51.45 234.95 51.29 235.4 51.15 235.85 51.01 236.29 50.89 236.74 50.77 237.19 50.67 237.63 50.56 238.08 50.46 238.52 50.36 238.97 50.26 239.42 50.15 239.86 50.04 240.31 49.93 240.76 49.81 241.2 49.68 241.65 49.54 242.1 49.4 242.54 49.24 242.99 49.08 243.44 48.9 243.88 48.72 244.33 48.54 244.77 48.35 245.22 48.15 245.67 47.95 246.11 47.75 246.56 47.55 247.01 47.35 247.45 47.15 247.9 46.96 248.35 46.78 248.79 46.6 249.24 46.42 249.69 46.26 250.13 46.1 250.58 45.95 251.02 45.81 251.47 45.67 251.92 45.55 252.36 45.42 252.81 45.31 253.26 45.2 253.7 45.1 254.15 45 254.6 44.91 255.04 44.82 255.49 44.73 255.94 44.64 256.38 44.56 256.83 44.49 257.27 44.41 257.72 44.34 258.17 44.27 258.61 44.2 259.06 44.13 259.51 44.07 259.95 44.01 260.4 43.96 260.85 43.91 261.29 43.86 261.74 43.82 262.19 43.78 262.63 43.75 263.08 43.72 263.52 43.69 263.97 43.67 264.42 43.65 264.86 43.63 265.31 43.62 265.76 43.61H266.2 266.65L267.1 43.6H267.54 267.99L268.44 43.61H268.88 269.33 269.77 270.22 270.67 271.11V43.34H270.67 270.22 269.77 269.33 268.88 268.44 267.99 267.54 267.1 266.65 266.2 265.76 265.31 264.86 264.42 263.97 263.52 263.08 262.63 262.19 261.74 261.29 260.85 260.4 259.95 259.51 259.06 258.61 258.17 257.72 257.27 256.83 256.38 255.94 255.49 255.04 254.6 254.15 253.7 253.26 252.81 252.36 251.92 251.47 251.02 250.58 250.13 249.69 249.24 248.79 248.35 247.9 247.45 247.01 246.56 246.11 245.67 245.22 244.77 244.33 243.88 243.44 242.99 242.54 242.1 241.65 241.2 240.76 240.31 239.86 239.42 238.97 238.52 238.08 237.63 237.19 236.74 236.29 235.85 235.4 234.95 234.51 234.06 233.61 233.17 232.72 232.27 231.83 231.38 230.94 230.49 230.04 229.6 229.15 228.7 228.26 227.81 227.36 226.92 226.47 226.02 225.58 225.13 224.69 224.24 223.79 223.35 222.9 222.45 222.01 221.56 221.11 220.67 220.22 219.77 219.33 218.88 218.44 217.99 217.54 217.1 216.65 216.2 215.76 215.31 214.86 214.42 213.97 213.52 213.08 212.63 212.19 211.74 211.29 210.85 210.4 209.95 209.51 209.06 208.61 208.17 207.72 207.27 206.83 206.38 205.94 205.49 205.04 204.6 204.15 203.7 203.26 202.81 202.36 201.92 201.47 201.02 200.58 200.13 199.68 199.24 198.79 198.35 197.9 197.45 197.01 196.56 196.11 195.67 195.22 194.77 194.33 193.88 193.43 192.99 192.54 192.1 191.65 191.2 190.76 190.31 189.86 189.42 188.97 188.52 188.08 187.63 187.18 186.74 186.29 185.85 185.4 184.95 184.51 184.06 183.61 183.17 182.72 182.27 181.83 181.38 180.93 180.49 180.04 179.6 179.15 178.7 178.26 177.81 177.36 176.92 176.47 176.02 175.58 175.13 174.68 174.24 173.79 173.35 172.9 172.45 172.01 171.56 171.11 170.67 170.22 169.77 169.33 168.88 168.43 167.99 167.54 167.1 166.65 166.2 165.76 165.31 164.86 164.42 163.97 163.52 163.08 162.63 162.18 161.74 161.29 160.85 160.4 159.95 159.51 159.06 158.61 158.17 157.72 157.27 156.83 156.38 155.93 155.49 155.04 154.6 154.15 153.7 153.26 152.81 152.36 151.92 151.47 151.02 150.58 150.13 149.68 149.24 148.79 148.35 147.9 147.45 147.01 146.56 146.11 145.67 145.22 144.77 144.33 143.88 143.43 142.99 142.54 142.1 141.65 141.2 140.76 140.31 139.86 139.42 138.97 138.52 138.08 137.63 137.18 136.74 136.29 135.85 135.4 134.95 134.51 134.06 133.61 133.17 132.72 132.27 131.83 131.38 130.93 130.49 130.04 129.6 129.15 128.7 128.26 127.81 127.36 126.92 126.47 126.02 125.58 125.13 124.68 124.24 123.79 123.34 122.9 122.45 122.01 121.56 121.11 120.67 120.22 119.77 119.33 118.88 118.43 117.99 117.54 117.09 116.65 116.2 115.76 115.31 114.86 114.42 113.97 113.52 113.08 112.63 112.18 111.74 111.29 110.84 110.4 109.95 109.51 109.06 108.61 108.17 107.72 107.27 106.83 106.38 105.93 105.49 105.04 104.59 104.15 103.7 103.26 102.81 102.36 101.92 101.47 101.02 100.58 100.13 99.68 99.24 98.79 98.34 97.9 97.45 97.01 96.56 96.11 95.67 95.22 94.77 94.33 93.88 93.43 92.99 92.54 92.09 91.65 91.2 90.76 90.31 89.86 89.42 88.97 88.52 88.08 87.63 87.18 86.74 86.29 85.84 85.4 84.95 84.51 84.06 83.61 83.17 82.72 82.27 81.83 81.38 80.93 80.49 80.04 79.59 79.15 78.7 78.26 77.81 77.36 76.92 76.47 76.02 75.58 75.13 74.68 74.24 73.79 73.34 72.9 72.45 72.01 71.56 71.11 70.67 70.22 69.77 69.33 68.88 68.43 67.99 67.54 67.09 66.65 66.2 65.76 65.31 64.86 64.42 63.97 63.52 63.08 62.63 62.18 61.74 61.29 60.84 60.4 59.95 59.51 59.06 58.61 58.17 57.72 57.27 56.83 56.38 55.93 55.49 55.04 54.59 54.15 53.7 53.25 52.81 52.36 51.92 51.47 51.02 50.58 50.13 49.68 49.24 48.79 48.34 47.9 47.45 47 46.56 46.11 45.67 45.22 44.77 44.33 43.88 43.43 42.99Z" fill="#0000ff" fill-opacity=".502"/>
<path transform="matrix(1,0,0,-1,0,288)" stroke-width="1.07" stroke-linecap="butt" stroke-linejoin="round" fill="none" stroke="#000000" d="M42.99 44.06 43.43 44.09 43.88 44.12 44.33 44.15 44.77 44.17 45.22 44.2 45.67 44.22 46.11 44.24 46.56 44.25 47 44.27 47.45 44.29 47.9 44.31 48.34 44.33 48.79 44.35 49.24 44.37 49.68 44.4 50.13 44.43 50.58 44.47 51.02 44.52 51.47 44.56 51.92 44.62 52.36 44.68 52.81 44.75 53.25 44.82 53.7 44.91 54.15 44.99 54.59 45.09 55.04 45.19 55.49 45.29 55.93 45.4 56.38 45.52 56.83 45.63 57.27 45.75 57.72 45.88 58.17 46.01 58.61 46.13 59.06 46.26 59.51 46.4 59.95 46.53 60.4 46.66 60.84 46.8 61.29 46.93 61.74 47.07 62.18 47.21 62.63 47.35 63.08 47.49 63.52 47.63 63.97 47.78 64.42 47.93 64.86 48.09 65.31 48.25 65.76 48.41 66.2 48.59 66.65 48.76 67.09 48.95 67.54 49.14 67.99 49.34 68.43 49.55 68.88 49.76 69.33 49.98 69.77 50.21 70.22 50.45 70.67 50.69 71.11 50.93 71.56 51.18 72.01 51.43 72.45 51.68 72.9 51.94 73.34 52.2 73.79 52.46 74.24 52.72 74.68 52.98 75.13 53.25 75.58 53.51 76.02 53.78 76.47 54.06 76.92 54.33 77.36 54.61 77.81 54.89 78.26 55.18 78.7 55.48 79.15 55.78 79.59 56.08 80.04 56.4 80.49 56.72 80.93 57.05 81.38 57.39 81.83 57.73 82.27 58.09 82.72 58.46 83.17 58.85 83.61 59.24 84.06 59.66 84.51 60.09 84.95 60.54 85.4 61.02 85.84 61.51 86.29 62.03 86.74 62.58 87.18 63.16 87.63 63.78 88.08 64.42 88.52 65.1 88.97 65.81 89.42 66.56 89.86 67.34 90.31 68.16 90.76 69.01 91.2 69.9 91.65 70.83 92.09 71.79 92.54 72.78 92.99 73.81 93.43 74.87 93.88 75.97 94.33 77.1 94.77 78.26 95.22 79.46 95.67 80.69 96.11 81.95 96.56 83.25 97.01 84.57 97.45 85.92 97.9 87.3 98.34 88.7 98.79 90.11 99.24 91.54 99.68 92.98 100.13 94.42 100.58 95.86 101.02 97.29 101.47 98.71 101.92 100.11 102.36 101.48 102.81 102.82 103.26 104.12 103.7 105.4 104.15 106.63 104.59 107.83 105.04 108.99 105.49 110.11 105.93 111.21 106.38 112.29 106.83 113.35 107.27 114.39 107.72 115.44 108.17 116.49 108.61 117.56 109.06 118.65 109.51 119.77 109.95 120.93 110.4 122.13 110.84 123.39 111.29 124.71 111.74 126.08 112.18 127.51 112.63 129 113.08 130.54 113.52 132.15 113.97 133.82 114.42 135.53 114.86 137.29 115.31 139.08 115.76 140.91 116.2 142.76 116.65 144.63 117.09 146.52 117.54 148.4 117.99 150.29 118.43 152.17 118.88 154.04 119.33 155.89 119.77 157.72 120.22 159.54 120.67 161.33 121.11 163.11 121.56 164.87 122.01 166.61 122.45 168.34 122.9 170.06 123.34 171.78 123.79 173.5 124.24 175.22 124.68 176.95 125.13 178.7 125.58 180.45 126.02 182.21 126.47 183.99 126.92 185.78 127.36 187.58 127.81 189.38 128.26 191.18 128.7 192.97 129.15 194.76 129.6 196.52 130.04 198.26 130.49 199.98 130.93 201.66 131.38 203.29 131.83 204.89 132.27 206.44 132.72 207.95 133.17 209.41 133.61 210.82 134.06 212.19 134.51 213.51 134.95 214.8 135.4 216.06 135.85 217.29 136.29 218.5 136.74 219.68 137.18 220.84 137.63 221.99 138.08 223.13 138.52 224.26 138.97 225.38 139.42 226.5 139.86 227.6 140.31 228.69 140.76 229.77 141.2 230.84 141.65 231.9 142.1 232.94 142.54 233.96 142.99 234.95 143.43 235.92 143.88 236.87 144.33 237.8 144.77 238.69 145.22 239.56 145.67 240.41 146.11 241.22 146.56 242 147.01 242.76 147.45 243.5 147.9 244.21 148.35 244.89 148.79 245.55 149.24 246.18 149.68 246.79 150.13 247.37 150.58 247.93 151.02 248.47 151.47 248.98 151.92 249.46 152.36 249.91 152.81 250.34 153.26 250.74 153.7 251.1 154.15 251.44 154.6 251.73 155.04 251.98 155.49 252.18 155.93 252.34 156.38 252.45 156.83 252.51 157.27 252.49 157.72 252.41 158.17 252.25 158.61 252.02 159.06 251.71 159.51 251.32 159.95 250.83 160.4 250.24 160.85 249.56 161.29 248.78 161.74 247.91 162.18 246.95 162.63 245.89 163.08 244.75 163.52 243.51 163.97 242.2 164.42 240.83 164.86 239.4 165.31 237.91 165.76 236.39 166.2 234.84 166.65 233.27 167.1 231.7 167.54 230.13 167.99 228.58 168.43 227.05 168.88 225.57 169.33 224.13 169.77 222.74 170.22 221.41 170.67 220.14 171.11 218.93 171.56 217.78 172.01 216.7 172.45 215.68 172.9 214.71 173.35 213.78 173.79 212.89 174.24 212.03 174.68 211.19 175.13 210.35 175.58 209.51 176.02 208.64 176.47 207.75 176.92 206.81 177.36 205.83 177.81 204.77 178.26 203.65 178.7 202.44 179.15 201.16 179.6 199.79 180.04 198.34 180.49 196.8 180.93 195.16 181.38 193.45 181.83 191.67 182.27 189.82 182.72 187.91 183.17 185.96 183.61 183.95 184.06 181.92 184.51 179.86 184.95 177.79 185.4 175.71 185.85 173.62 186.29 171.55 186.74 169.48 187.18 167.43 187.63 165.39 188.08 163.37 188.52 161.37 188.97 159.39 189.42 157.42 189.86 155.48 190.31 153.56 190.76 151.65 191.2 149.77 191.65 147.89 192.1 146.04 192.54 144.2 192.99 142.38 193.43 140.58 193.88 138.79 194.33 137.03 194.77 135.28 195.22 133.56 195.67 131.86 196.11 130.18 196.56 128.53 197.01 126.9 197.45 125.28 197.9 123.69 198.35 122.13 198.79 120.58 199.24 119.05 199.68 117.53 200.13 116.03 200.58 114.54 201.02 113.05 201.47 111.58 201.92 110.12 202.36 108.66 202.81 107.21 203.26 105.76 203.7 104.32 204.15 102.89 204.6 101.47 205.04 100.06 205.49 98.67 205.94 97.29 206.38 95.93 206.83 94.59 207.27 93.28 207.72 92 208.17 90.75 208.61 89.52 209.06 88.33 209.51 87.16 209.95 86.04 210.4 84.95 210.85 83.89 211.29 82.87 211.74 81.87 212.19 80.9 212.63 79.95 213.08 79.04 213.52 78.14 213.97 77.26 214.42 76.4 214.86 75.55 215.31 74.72 215.76 73.89 216.2 73.08 216.65 72.27 217.1 71.47 217.54 70.68 217.99 69.89 218.44 69.11 218.88 68.34 219.33 67.57 219.77 66.81 220.22 66.07 220.67 65.33 221.11 64.6 221.56 63.88 222.01 63.18 222.45 62.5 222.9 61.83 223.35 61.18 223.79 60.55 224.24 59.93 224.69 59.34 225.13 58.77 225.58 58.22 226.02 57.69 226.47 57.19 226.92 56.7 227.36 56.24 227.81 55.79 228.26 55.37 228.7 54.97 229.15 54.59 229.6 54.23 230.04 53.88 230.49 53.56 230.94 53.26 231.38 52.97 231.83 52.71 232.27 52.45 232.72 52.22 233.17 52 233.61 51.8 234.06 51.62 234.51 51.45 234.95 51.29 235.4 51.15 235.85 51.01 236.29 50.89 236.74 50.77 237.19 50.67 237.63 50.56 238.08 50.46 238.52 50.36 238.97 50.26 239.42 50.15 239.86 50.04 240.31 49.93 240.76 49.81 241.2 49.68 241.65 49.54 242.1 49.4 242.54 49.24 242.99 49.08 243.44 48.9 243.88 48.72 244.33 48.54 244.77 48.35 245.22 48.15 245.67 47.95 246.11 47.75 246.56 47.55 247.01 47.35 247.45 47.15 247.9 46.96 248.35 46.78 248.79 46.6 249.24 46.42 249.69 46.26 250.13 46.1 250.58 45.95 251.02 45.81 251.47 45.67 251.92 45.55 252.36 45.42 252.81 45.31 253.26 45.2 253.7 45.1 254.15 45 254.6 44.91 255.04 44.82 255.49 44.73 255.94 44.64 256.38 44.56 256.83 44.49 257.27 44.41 257.72 44.34 258.17 44.27 258.61 44.2 259.06 44.13 259.51 44.07 259.95 44.01 260.4 43.96 260.85 43.91 261.29 43.86 261.74 43.82 262.19 43.78 262.63 43.75 263.08 43.72 263.52 43.69 263.97 43.67 264.42 43.65 264.86 43.63 265.31 43.62 265.76 43.61H266.2 266.65L267.1 43.6H267.54 267.99L268.44 43.61H268.88 269.33 269.77 270.22 270.67 271.11"/>
<path transform="matrix(1,0,0,-1,0,288)" stroke-width="1.07" stroke-linecap="butt" stroke-linejoin="round" fill="none" stroke="#000000" d="M154.25 32.88V262.96"/>
<path transform="matrix(1,0,0,-1,0,288)" stroke-width="1.07" stroke-linecap="butt" stroke-dasharray="7.47,3.2" stroke-linejoin="round" fill="none" stroke="#000000" d="M93.37 32.88V262.96"/>
<path transform="matrix(1,0,0,-1,0,288)" stroke-width="1.07" stroke-linecap="butt" stroke-dasharray="7.47,3.2" stroke-linejoin="round" fill="none" stroke="#000000" d="M215.07 32.88V262.96"/>
</g>
<text fill="#4d4d4d" xml:space="preserve" transform="matrix(1 0 -0 1 0 288)" font-size="8" font-family="Helvetica"><tspan y="-40.47" x="22.2">0</tspan></text>
<text fill="#4d4d4d" xml:space="preserve" transform="matrix(1 0 -0 1 0 288)" font-size="8" font-family="Helvetica"><tspan y="-82.84" x="17.75 22.198">10</tspan></text>
<text fill="#4d4d4d" xml:space="preserve" transform="matrix(1 0 -0 1 0 288)" font-size="8" font-family="Helvetica"><tspan y="-125.22" x="17.75 22.198">20</tspan></text>
<text fill="#4d4d4d" xml:space="preserve" transform="matrix(1 0 -0 1 0 288)" font-size="8" font-family="Helvetica"><tspan y="-167.6" x="17.75 22.198">30</tspan></text>
<text fill="#4d4d4d" xml:space="preserve" transform="matrix(1 0 -0 1 0 288)" font-size="8" font-family="Helvetica"><tspan y="-209.97" x="17.75 22.198">40</tspan></text>
<text fill="#4d4d4d" xml:space="preserve" transform="matrix(1 0 -0 1 0 288)" font-size="8" font-family="Helvetica"><tspan y="-252.35" x="17.75 22.198">50</tspan></text>
<path transform="matrix(1,0,0,-1,0,288)" stroke-width="1.07" stroke-linecap="butt" stroke-linejoin="round" fill="none" stroke="#333333" d="M28.84 43.34H31.58"/>
<path transform="matrix(1,0,0,-1,0,288)" stroke-width="1.07" stroke-linecap="butt" stroke-linejoin="round" fill="none" stroke="#333333" d="M28.84 85.72H31.58"/>
<path transform="matrix(1,0,0,-1,0,288)" stroke-width="1.07" stroke-linecap="butt" stroke-linejoin="round" fill="none" stroke="#333333" d="M28.84 128.09H31.58"/>
<path transform="matrix(1,0,0,-1,0,288)" stroke-width="1.07" stroke-linecap="butt" stroke-linejoin="round" fill="none" stroke="#333333" d="M28.84 170.47H31.58"/>
<path transform="matrix(1,0,0,-1,0,288)" stroke-width="1.07" stroke-linecap="butt" stroke-linejoin="round" fill="none" stroke="#333333" d="M28.84 212.85H31.58"/>
<path transform="matrix(1,0,0,-1,0,288)" stroke-width="1.07" stroke-linecap="butt" stroke-linejoin="round" fill="none" stroke="#333333" d="M28.84 255.22H31.58"/>
<path transform="matrix(1,0,0,-1,0,288)" stroke-width="1.07" stroke-linecap="butt" stroke-linejoin="round" fill="none" stroke="#333333" d="M34.88 30.14V32.88"/>
<path transform="matrix(1,0,0,-1,0,288)" stroke-width="1.07" stroke-linecap="butt" stroke-linejoin="round" fill="none" stroke="#333333" d="M112.69 30.14V32.88"/>
<path transform="matrix(1,0,0,-1,0,288)" stroke-width="1.07" stroke-linecap="butt" stroke-linejoin="round" fill="none" stroke="#333333" d="M190.5 30.14V32.88"/>
<path transform="matrix(1,0,0,-1,0,288)" stroke-width="1.07" stroke-linecap="butt" stroke-linejoin="round" fill="none" stroke="#333333" d="M268.3 30.14V32.88"/>
<text fill="#4d4d4d" xml:space="preserve" transform="matrix(1 0 -0 1 0 288)" font-size="8" font-family="Helvetica"><tspan y="-22.21" x="27.1 31.548 33.772 38.22">0.60</tspan></text>
<text fill="#4d4d4d" xml:space="preserve" transform="matrix(1 0 -0 1 0 288)" font-size="8" font-family="Helvetica"><tspan y="-22.21" x="104.91 109.358 111.582 116.03">0.62</tspan></text>
<text fill="#4d4d4d" xml:space="preserve" transform="matrix(1 0 -0 1 0 288)" font-size="8" font-family="Helvetica"><tspan y="-22.21" x="182.71 187.158 189.382 193.83">0.64</tspan></text>
<text fill="#4d4d4d" xml:space="preserve" transform="matrix(1 0 -0 1 0 288)" font-size="8" font-family="Helvetica"><tspan y="-22.21" x="260.52 264.968 267.192 271.63999">0.66</tspan></text>
<text xml:space="preserve" transform="matrix(1 0 -0 1 0 288)" font-size="10" font-family="Helvetica"><tspan y="-9.56" x="108.65 116.98 122.54 128.1 133.66">Mean </tspan></text>
<text xml:space="preserve" transform="matrix(1 0 -0 1 0 288)" font-size="10" font-family="Symbol"><tspan y="-9.56" x="136.44">&#x03b4;</tspan></text>
<text xml:space="preserve" transform="matrix(1 0 -0 1 0 288)" font-size="7" font-family="Helvetica"><tspan y="-7.73" x="141.38">i</tspan></text>
<text xml:space="preserve" transform="matrix(1 0 -0 1 0 288)" font-size="10" font-family="Helvetica"><tspan y="-9.56" x="142.94 145.72 153.5 156.83 162.24 169.46 172.24 177.8 180.58 186.55 192.11 194.33 199.89"> Growth Value</tspan></text>
<text xml:space="preserve" transform="matrix(0 -1 1 0 0 288)" font-size="10" font-family="Helvetica"><tspan y="12.66" x="131.25 138.47 144.03 149.59 154.59 156.81 159.59">Density</tspan></text>
<text xml:space="preserve" transform="matrix(1 0 -0 1 0 288)" font-size="12" font-family="Helvetica"><tspan y="-273.64" x="31.58 38.984 45.656003 51.656003 54.992006 61.664007 65.840007 68.504009 75.17601 79.17201 82.50801 89.18001 92.51601 95.852008 99.188 105.86 112.532 115.868 125.864 132.536 139.208 145.87999">Posterior of the Mean </tspan></text>
<text xml:space="preserve" transform="matrix(1 0 -0 1 0 288)" font-size="12" font-family="Symbol"><tspan y="-273.64" x="149.22">&#x03b4;</tspan></text>
<text xml:space="preserve" transform="matrix(1 0 -0 1 0 288)" font-size="8" font-family="Helvetica"><tspan y="-271.44" x="155.14">i</tspan></text>
<text xml:space="preserve" transform="matrix(1 0 -0 1 0 288)" font-size="12" font-family="Helvetica"><tspan y="-273.64" x="156.92 160.256 169.592 173.588 180.08 188.744 192.08 198.752 202.088 209.252 215.924 218.588 225.26"> Growth Value</tspan></text>
<g clip-path="url(#clip_2)">
<path transform="matrix(1,0,0,-1,0,288)" d="M288 0H576V288H288Z" fill="#ffffff"/>
<path transform="matrix(1,0,0,-1,0,288)" stroke-width="1.07" stroke-linecap="round" stroke-linejoin="round" fill="none" stroke="#ffffff" d="M288 0H576V288H288Z"/>
</g>
<g clip-path="url(#clip_3)">
<path transform="matrix(1,0,0,-1,0,288)" d="M328.58 32.88H570.52V262.52H328.58Z" fill="#ebebeb"/>
<path transform="matrix(1,0,0,-1,0,288)" stroke-width=".53" stroke-linecap="butt" stroke-linejoin="round" fill="none" stroke="#ffffff" d="M328.58 68.47H570.52"/>
<path transform="matrix(1,0,0,-1,0,288)" stroke-width=".53" stroke-linecap="butt" stroke-linejoin="round" fill="none" stroke="#ffffff" d="M328.58 118.78H570.52"/>
<path transform="matrix(1,0,0,-1,0,288)" stroke-width=".53" stroke-linecap="butt" stroke-linejoin="round" fill="none" stroke="#ffffff" d="M328.58 169.08H570.52"/>
<path transform="matrix(1,0,0,-1,0,288)" stroke-width=".53" stroke-linecap="butt" stroke-linejoin="round" fill="none" stroke="#ffffff" d="M328.58 219.39H570.52"/>
<path transform="matrix(1,0,0,-1,0,288)" stroke-width=".53" stroke-linecap="butt" stroke-linejoin="round" fill="none" stroke="#ffffff" d="M371.98 32.88V262.52"/>
<path transform="matrix(1,0,0,-1,0,288)" stroke-width=".53" stroke-linecap="butt" stroke-linejoin="round" fill="none" stroke="#ffffff" d="M431.81 32.88V262.52"/>
<path transform="matrix(1,0,0,-1,0,288)" stroke-width=".53" stroke-linecap="butt" stroke-linejoin="round" fill="none" stroke="#ffffff" d="M491.63 32.88V262.52"/>
<path transform="matrix(1,0,0,-1,0,288)" stroke-width=".53" stroke-linecap="butt" stroke-linejoin="round" fill="none" stroke="#ffffff" d="M551.45 32.88V262.52"/>
<path transform="matrix(1,0,0,-1,0,288)" stroke-width="1.07" stroke-linecap="butt" stroke-linejoin="round" fill="none" stroke="#ffffff" d="M328.58 43.32H570.52"/>
<path transform="matrix(1,0,0,-1,0,288)" stroke-width="1.07" stroke-linecap="butt" stroke-linejoin="round" fill="none" stroke="#ffffff" d="M328.58 93.62H570.52"/>
<path transform="matrix(1,0,0,-1,0,288)" stroke-width="1.07" stroke-linecap="butt" stroke-linejoin="round" fill="none" stroke="#ffffff" d="M328.58 143.93H570.52"/>
<path transform="matrix(1,0,0,-1,0,288)" stroke-width="1.07" stroke-linecap="butt" stroke-linejoin="round" fill="none" stroke="#ffffff" d="M328.58 194.23H570.52"/>
<path transform="matrix(1,0,0,-1,0,288)" stroke-width="1.07" stroke-linecap="butt" stroke-linejoin="round" fill="none" stroke="#ffffff" d="M328.58 244.54H570.52"/>
<path transform="matrix(1,0,0,-1,0,288)" stroke-width="1.07" stroke-linecap="butt" stroke-linejoin="round" fill="none" stroke="#ffffff" d="M342.07 32.88V262.52"/>
<path transform="matrix(1,0,0,-1,0,288)" stroke-width="1.07" stroke-linecap="butt" stroke-linejoin="round" fill="none" stroke="#ffffff" d="M401.9 32.88V262.52"/>
<path transform="matrix(1,0,0,-1,0,288)" stroke-width="1.07" stroke-linecap="butt" stroke-linejoin="round" fill="none" stroke="#ffffff" d="M461.72 32.88V262.52"/>
<path transform="matrix(1,0,0,-1,0,288)" stroke-width="1.07" stroke-linecap="butt" stroke-linejoin="round" fill="none" stroke="#ffffff" d="M521.54 32.88V262.52"/>
<path transform="matrix(1,0,0,-1,0,288)" d="M339.58 43.32H346.90998V43.42H339.58Z" fill="#0000ff" fill-opacity=".502"/>
<path transform="matrix(1,0,0,-1,0,288)" stroke-width="1.07" stroke-linecap="butt" stroke-miterlimit="10" stroke-linejoin="miter" fill="none" stroke="#000000" d="M339.58 43.32H346.90998V43.42H339.58Z"/>
<path transform="matrix(1,0,0,-1,0,288)" d="M346.91 43.32H354.24V43.52H346.91Z" fill="#0000ff" fill-opacity=".502"/>
<path transform="matrix(1,0,0,-1,0,288)" stroke-width="1.07" stroke-linecap="butt" stroke-miterlimit="10" stroke-linejoin="miter" fill="none" stroke="#000000" d="M346.91 43.32H354.24V43.52H346.91Z"/>
<path transform="matrix(1,0,0,-1,0,288)" d="M354.24 43.32H361.56999V44.73H354.24Z" fill="#0000ff" fill-opacity=".502"/>
<path transform="matrix(1,0,0,-1,0,288)" stroke-width="1.07" stroke-linecap="butt" stroke-miterlimit="10" stroke-linejoin="miter" fill="none" stroke="#000000" d="M354.24 43.32H361.56999V44.73H354.24Z"/>
<path transform="matrix(1,0,0,-1,0,288)" d="M361.57 43.32H368.9V46.54H361.57Z" fill="#0000ff" fill-opacity=".502"/>
<path transform="matrix(1,0,0,-1,0,288)" stroke-width="1.07" stroke-linecap="butt" stroke-miterlimit="10" stroke-linejoin="miter" fill="none" stroke="#000000" d="M361.57 43.32H368.9V46.54H361.57Z"/>
<path transform="matrix(1,0,0,-1,0,288)" d="M368.9 43.32H376.22999V48.05H368.9Z" fill="#0000ff" fill-opacity=".502"/>
<path transform="matrix(1,0,0,-1,0,288)" stroke-width="1.07" stroke-linecap="butt" stroke-miterlimit="10" stroke-linejoin="miter" fill="none" stroke="#000000" d="M368.9 43.32H376.22999V48.05H368.9Z"/>
<path transform="matrix(1,0,0,-1,0,288)" d="M376.24 43.32H383.56999V56.9H376.24Z" fill="#0000ff" fill-opacity=".502"/>
<path transform="matrix(1,0,0,-1,0,288)" stroke-width="1.07" stroke-linecap="butt" stroke-miterlimit="10" stroke-linejoin="miter" fill="none" stroke="#000000" d="M376.24 43.32H383.56999V56.9H376.24Z"/>
<path transform="matrix(1,0,0,-1,0,288)" d="M383.57 43.32H390.9V66.46H383.57Z" fill="#0000ff" fill-opacity=".502"/>
<path transform="matrix(1,0,0,-1,0,288)" stroke-width="1.07" stroke-linecap="butt" stroke-miterlimit="10" stroke-linejoin="miter" fill="none" stroke="#000000" d="M383.57 43.32H390.9V66.46H383.57Z"/>
<path transform="matrix(1,0,0,-1,0,288)" d="M390.9 43.32H398.22999V80.65H390.9Z" fill="#0000ff" fill-opacity=".502"/>
<path transform="matrix(1,0,0,-1,0,288)" stroke-width="1.07" stroke-linecap="butt" stroke-miterlimit="10" stroke-linejoin="miter" fill="none" stroke="#000000" d="M390.9 43.32H398.22999V80.65H390.9Z"/>
<path transform="matrix(1,0,0,-1,0,288)" d="M398.23 43.32H405.56V106.4H398.23Z" fill="#0000ff" fill-opacity=".502"/>
<path transform="matrix(1,0,0,-1,0,288)" stroke-width="1.07" stroke-linecap="butt" stroke-miterlimit="10" stroke-linejoin="miter" fill="none" stroke="#000000" d="M398.23 43.32H405.56V106.4H398.23Z"/>
<path transform="matrix(1,0,0,-1,0,288)" d="M405.56 43.32H412.88999V137.69H405.56Z" fill="#0000ff" fill-opacity=".502"/>
<path transform="matrix(1,0,0,-1,0,288)" stroke-width="1.07" stroke-linecap="butt" stroke-miterlimit="10" stroke-linejoin="miter" fill="none" stroke="#000000" d="M405.56 43.32H412.88999V137.69H405.56Z"/>
<path transform="matrix(1,0,0,-1,0,288)" d="M412.89 43.32H420.22V179.65H412.89Z" fill="#0000ff" fill-opacity=".502"/>
<path transform="matrix(1,0,0,-1,0,288)" stroke-width="1.07" stroke-linecap="butt" stroke-miterlimit="10" stroke-linejoin="miter" fill="none" stroke="#000000" d="M412.89 43.32H420.22V179.65H412.89Z"/>
<path transform="matrix(1,0,0,-1,0,288)" d="M420.22 43.32H427.55V218.07999H420.22Z" fill="#0000ff" fill-opacity=".502"/>
<path transform="matrix(1,0,0,-1,0,288)" stroke-width="1.07" stroke-linecap="butt" stroke-miterlimit="10" stroke-linejoin="miter" fill="none" stroke="#000000" d="M420.22 43.32H427.55V218.07999H420.22Z"/>
<path transform="matrix(1,0,0,-1,0,288)" d="M427.56 43.32H434.88999V240.70999H427.56Z" fill="#0000ff" fill-opacity=".502"/>
<path transform="matrix(1,0,0,-1,0,288)" stroke-width="1.07" stroke-linecap="butt" stroke-miterlimit="10" stroke-linejoin="miter" fill="none" stroke="#000000" d="M427.56 43.32H434.88999V240.70999H427.56Z"/>
<path transform="matrix(1,0,0,-1,0,288)" d="M434.89 43.32H442.22V252.07999H434.89Z" fill="#0000ff" fill-opacity=".502"/>
<path transform="matrix(1,0,0,-1,0,288)" stroke-width="1.07" stroke-linecap="butt" stroke-miterlimit="10" stroke-linejoin="miter" fill="none" stroke="#000000" d="M434.89 43.32H442.22V252.07999H434.89Z"/>
<path transform="matrix(1,0,0,-1,0,288)" d="M442.22 43.32H449.55V240.41H442.22Z" fill="#0000ff" fill-opacity=".502"/>
<path transform="matrix(1,0,0,-1,0,288)" stroke-width="1.07" stroke-linecap="butt" stroke-miterlimit="10" stroke-linejoin="miter" fill="none" stroke="#000000" d="M442.22 43.32H449.55V240.41H442.22Z"/>
<path transform="matrix(1,0,0,-1,0,288)" d="M449.55 43.32H456.87998V226.23001H449.55Z" fill="#0000ff" fill-opacity=".502"/>
<path transform="matrix(1,0,0,-1,0,288)" stroke-width="1.07" stroke-linecap="butt" stroke-miterlimit="10" stroke-linejoin="miter" fill="none" stroke="#000000" d="M449.55 43.32H456.87998V226.23001H449.55Z"/>
<path transform="matrix(1,0,0,-1,0,288)" d="M456.88 43.32H464.21V198.26001H456.88Z" fill="#0000ff" fill-opacity=".502"/>
<path transform="matrix(1,0,0,-1,0,288)" stroke-width="1.07" stroke-linecap="butt" stroke-miterlimit="10" stroke-linejoin="miter" fill="none" stroke="#000000" d="M456.88 43.32H464.21V198.26001H456.88Z"/>
<path transform="matrix(1,0,0,-1,0,288)" d="M464.21 43.32H471.53999V168.08H464.21Z" fill="#0000ff" fill-opacity=".502"/>
<path transform="matrix(1,0,0,-1,0,288)" stroke-width="1.07" stroke-linecap="butt" stroke-miterlimit="10" stroke-linejoin="miter" fill="none" stroke="#000000" d="M464.21 43.32H471.53999V168.08H464.21Z"/>
<path transform="matrix(1,0,0,-1,0,288)" d="M471.55 43.32H478.87998V136.58H471.55Z" fill="#0000ff" fill-opacity=".502"/>
<path transform="matrix(1,0,0,-1,0,288)" stroke-width="1.07" stroke-linecap="butt" stroke-miterlimit="10" stroke-linejoin="miter" fill="none" stroke="#000000" d="M471.55 43.32H478.87998V136.58H471.55Z"/>
<path transform="matrix(1,0,0,-1,0,288)" d="M478.88 43.32H486.21V108.31H478.88Z" fill="#0000ff" fill-opacity=".502"/>
<path transform="matrix(1,0,0,-1,0,288)" stroke-width="1.07" stroke-linecap="butt" stroke-miterlimit="10" stroke-linejoin="miter" fill="none" stroke="#000000" d="M478.88 43.32H486.21V108.31H478.88Z"/>
<path transform="matrix(1,0,0,-1,0,288)" d="M486.21 43.32H493.53999V88.49H486.21Z" fill="#0000ff" fill-opacity=".502"/>
<path transform="matrix(1,0,0,-1,0,288)" stroke-width="1.07" stroke-linecap="butt" stroke-miterlimit="10" stroke-linejoin="miter" fill="none" stroke="#000000" d="M486.21 43.32H493.53999V88.49H486.21Z"/>
<path transform="matrix(1,0,0,-1,0,288)" d="M493.54 43.32H500.87V70.38H493.54Z" fill="#0000ff" fill-opacity=".502"/>
<path transform="matrix(1,0,0,-1,0,288)" stroke-width="1.07" stroke-linecap="butt" stroke-miterlimit="10" stroke-linejoin="miter" fill="none" stroke="#000000" d="M493.54 43.32H500.87V70.38H493.54Z"/>
<path transform="matrix(1,0,0,-1,0,288)" d="M500.87 43.32H508.19999V57.2H500.87Z" fill="#0000ff" fill-opacity=".502"/>
<path transform="matrix(1,0,0,-1,0,288)" stroke-width="1.07" stroke-linecap="butt" stroke-miterlimit="10" stroke-linejoin="miter" fill="none" stroke="#000000" d="M500.87 43.32H508.19999V57.2H500.87Z"/>
<path transform="matrix(1,0,0,-1,0,288)" d="M508.2 43.32H515.53V49.96H508.2Z" fill="#0000ff" fill-opacity=".502"/>
<path transform="matrix(1,0,0,-1,0,288)" stroke-width="1.07" stroke-linecap="butt" stroke-miterlimit="10" stroke-linejoin="miter" fill="none" stroke="#000000" d="M508.2 43.32H515.53V49.96H508.2Z"/>
<path transform="matrix(1,0,0,-1,0,288)" d="M515.53 43.32H522.86007V46.34H515.53Z" fill="#0000ff" fill-opacity=".502"/>
<path transform="matrix(1,0,0,-1,0,288)" stroke-width="1.07" stroke-linecap="butt" stroke-miterlimit="10" stroke-linejoin="miter" fill="none" stroke="#000000" d="M515.53 43.32H522.86007V46.34H515.53Z"/>
<path transform="matrix(1,0,0,-1,0,288)" d="M522.87 43.32H530.2V44.23H522.87Z" fill="#0000ff" fill-opacity=".502"/>
<path transform="matrix(1,0,0,-1,0,288)" stroke-width="1.07" stroke-linecap="butt" stroke-miterlimit="10" stroke-linejoin="miter" fill="none" stroke="#000000" d="M522.87 43.32H530.2V44.23H522.87Z"/>
<path transform="matrix(1,0,0,-1,0,288)" d="M530.2 43.32H537.53V43.62H530.2Z" fill="#0000ff" fill-opacity=".502"/>
<path transform="matrix(1,0,0,-1,0,288)" stroke-width="1.07" stroke-linecap="butt" stroke-miterlimit="10" stroke-linejoin="miter" fill="none" stroke="#000000" d="M530.2 43.32H537.53V43.62H530.2Z"/>
<path transform="matrix(1,0,0,-1,0,288)" d="M537.53 43.32H544.86007V43.52H537.53Z" fill="#0000ff" fill-opacity=".502"/>
<path transform="matrix(1,0,0,-1,0,288)" stroke-width="1.07" stroke-linecap="butt" stroke-miterlimit="10" stroke-linejoin="miter" fill="none" stroke="#000000" d="M537.53 43.32H544.86007V43.52H537.53Z"/>
<path transform="matrix(1,0,0,-1,0,288)" d="M544.86 43.32H552.19V43.32H544.86Z" fill="#0000ff" fill-opacity=".502"/>
<path transform="matrix(1,0,0,-1,0,288)" stroke-width="1.07" stroke-linecap="butt" stroke-miterlimit="10" stroke-linejoin="miter" fill="none" stroke="#000000" d="M544.86 43.32H552.19V43.32H544.86Z"/>
<path transform="matrix(1,0,0,-1,0,288)" d="M552.19 43.32H559.52V43.42H552.19Z" fill="#0000ff" fill-opacity=".502"/>
<path transform="matrix(1,0,0,-1,0,288)" stroke-width="1.07" stroke-linecap="butt" stroke-miterlimit="10" stroke-linejoin="miter" fill="none" stroke="#000000" d="M552.19 43.32H559.52V43.42H552.19Z"/>
</g>
<text fill="#4d4d4d" xml:space="preserve" transform="matrix(1 0 -0 1 0 288)" font-size="8" font-family="Helvetica"><tspan y="-40.45" x="319.2">0</tspan></text>
<text fill="#4d4d4d" xml:space="preserve" transform="matrix(1 0 -0 1 0 288)" font-size="8" font-family="Helvetica"><tspan y="-90.75" x="310.31 314.758 319.206">500</tspan></text>
<text fill="#4d4d4d" xml:space="preserve" transform="matrix(1 0 -0 1 0 288)" font-size="8" font-family="Helvetica"><tspan y="-141.06" x="305.86 310.30799 314.75599 319.20399">1000</tspan></text>
<text fill="#4d4d4d" xml:space="preserve" transform="matrix(1 0 -0 1 0 288)" font-size="8" font-family="Helvetica"><tspan y="-191.36" x="305.86 310.30799 314.75599 319.20399">1500</tspan></text>
<text fill="#4d4d4d" xml:space="preserve" transform="matrix(1 0 -0 1 0 288)" font-size="8" font-family="Helvetica"><tspan y="-241.67" x="305.86 310.30799 314.75599 319.20399">2000</tspan></text>
<path transform="matrix(1,0,0,-1,0,288)" stroke-width="1.07" stroke-linecap="butt" stroke-linejoin="round" fill="none" stroke="#333333" d="M325.84 43.32H328.58"/>
<path transform="matrix(1,0,0,-1,0,288)" stroke-width="1.07" stroke-linecap="butt" stroke-linejoin="round" fill="none" stroke="#333333" d="M325.84 93.62H328.58"/>
<path transform="matrix(1,0,0,-1,0,288)" stroke-width="1.07" stroke-linecap="butt" stroke-linejoin="round" fill="none" stroke="#333333" d="M325.84 143.93H328.58"/>
<path transform="matrix(1,0,0,-1,0,288)" stroke-width="1.07" stroke-linecap="butt" stroke-linejoin="round" fill="none" stroke="#333333" d="M325.84 194.23H328.58"/>
<path transform="matrix(1,0,0,-1,0,288)" stroke-width="1.07" stroke-linecap="butt" stroke-linejoin="round" fill="none" stroke="#333333" d="M325.84 244.54H328.58"/>
<path transform="matrix(1,0,0,-1,0,288)" stroke-width="1.07" stroke-linecap="butt" stroke-linejoin="round" fill="none" stroke="#333333" d="M342.07 30.14V32.88"/>
<path transform="matrix(1,0,0,-1,0,288)" stroke-width="1.07" stroke-linecap="butt" stroke-linejoin="round" fill="none" stroke="#333333" d="M401.9 30.14V32.88"/>
<path transform="matrix(1,0,0,-1,0,288)" stroke-width="1.07" stroke-linecap="butt" stroke-linejoin="round" fill="none" stroke="#333333" d="M461.72 30.14V32.88"/>
<path transform="matrix(1,0,0,-1,0,288)" stroke-width="1.07" stroke-linecap="butt" stroke-linejoin="round" fill="none" stroke="#333333" d="M521.54 30.14V32.88"/>
<text fill="#4d4d4d" xml:space="preserve" transform="matrix(1 0 -0 1 0 288)" font-size="8" font-family="Helvetica"><tspan y="-22.21" x="337.51 342.182">&#x2212;1</tspan></text>
<text fill="#4d4d4d" xml:space="preserve" transform="matrix(1 0 -0 1 0 288)" font-size="8" font-family="Helvetica"><tspan y="-22.21" x="399.67">0</tspan></text>
<text fill="#4d4d4d" xml:space="preserve" transform="matrix(1 0 -0 1 0 288)" font-size="8" font-family="Helvetica"><tspan y="-22.21" x="459.49">1</tspan></text>
<text fill="#4d4d4d" xml:space="preserve" transform="matrix(1 0 -0 1 0 288)" font-size="8" font-family="Helvetica"><tspan y="-22.21" x="519.32">2</tspan></text>
<text xml:space="preserve" transform="matrix(1 0 -0 1 0 288)" font-size="10" font-family="Helvetica"><tspan y="-9.56" x="390.04 392.82 398.38 403.94 406.16 411.16 413.38 418.94 424.5 430.06 432.28">Individual </tspan></text>
<text xml:space="preserve" transform="matrix(1 0 -0 1 0 288)" font-size="10" font-family="Symbol"><tspan y="-9.56" x="435.06">&#x03b4;</tspan></text>
<text xml:space="preserve" transform="matrix(1 0 -0 1 0 288)" font-size="7" font-family="Helvetica"><tspan y="-7.73" x="440">i</tspan></text>
<text xml:space="preserve" transform="matrix(1 0 -0 1 0 288)" font-size="10" font-family="Helvetica"><tspan y="-9.56" x="441.55 444.33 452.11 455.43998 460.84999 468.06999 470.84999 476.40998 479.18998 485.15998 490.71998 492.93998 498.49998 504.05998"> Growth Values</tspan></text>
<text xml:space="preserve" transform="matrix(0 -1 1 0 0 288)" font-size="10" font-family="Helvetica"><tspan y="300.66" x="124.08 130.19 133.52 139.08 144.64 150.2 155.76 161.31999 166.31999">Frequency</tspan></text>
<text xml:space="preserve" transform="matrix(1 0 -0 1 0 288)" font-size="12" font-family="Helvetica"><tspan y="-273.64" x="328.58 337.244 339.908 345.908 349.244 355.916 362.58799 366.464 373.136 383.132 386.468 393.13999 396.47599 399.81199 403.14799 409.81999 416.49198 419.15599 425.15599 427.81999 434.49198 441.16398 447.83598 450.49998">Histogram of Individual </tspan></text>
<text xml:space="preserve" transform="matrix(1 0 -0 1 0 288)" font-size="12" font-family="Symbol"><tspan y="-273.64" x="453.84">&#x03b4;</tspan></text>
<text xml:space="preserve" transform="matrix(1 0 -0 1 0 288)" font-size="8" font-family="Helvetica"><tspan y="-271.44" x="459.76">i</tspan></text>
<text xml:space="preserve" transform="matrix(1 0 -0 1 0 288)" font-size="12" font-family="Helvetica"><tspan y="-273.64" x="461.54 464.876 474.212 478.208 484.7 493.364 496.7 503.372 506.708 513.872 520.544 523.208 529.88 536.552"> Growth Values</tspan></text>
</svg>
