<svg xmlns="http://www.w3.org/2000/svg" xmlns:xlink="http://www.w3.org/1999/xlink" version="1.1" width="576" height="288" viewBox="0 0 576 288">
<defs>
<clipPath id="clip_0">
<path transform="matrix(1,0,0,-1,0,288)" d="M0 0H288V288H0Z"/>
</clipPath>
<clipPath id="clip_1">
<path transform="matrix(1,0,0,-1,0,288)" d="M31.58 30.83H282.52V252.46H31.58Z"/>
</clipPath>
<clipPath id="clip_2">
<path transform="matrix(1,0,0,-1,0,288)" d="M288 0H576V288H288Z"/>
</clipPath>
<clipPath id="clip_3">
<path transform="matrix(1,0,0,-1,0,288)" d="M328.58 30.83H570.52V252.46H328.58Z"/>
</clipPath>
</defs>
<g clip-path="url(#clip_0)">
<path transform="matrix(1,0,0,-1,0,288)" d="M0 0H288V288H0Z" fill="#ffffff"/>
<path transform="matrix(1,0,0,-1,0,288)" stroke-width="1.07" stroke-linecap="round" stroke-linejoin="round" fill="none" stroke="#ffffff" d="M0 0H288V288H0Z"/>
</g>
<g clip-path="url(#clip_1)">
<path transform="matrix(1,0,0,-1,0,288)" d="M31.58 30.83H282.52V252.46H31.58Z" fill="#ebebeb"/>
<path transform="matrix(1,0,0,-1,0,288)" stroke-width=".53" stroke-linecap="butt" stroke-linejoin="round" fill="none" stroke="#ffffff" d="M31.58 60.95H282.52"/>
<path transform="matrix(1,0,0,-1,0,288)" stroke-width=".53" stroke-linecap="butt" stroke-linejoin="round" fill="none" stroke="#ffffff" d="M31.58 101.04H282.52"/>
<path transform="matrix(1,0,0,-1,0,288)" stroke-width=".53" stroke-linecap="butt" stroke-linejoin="round" fill="none" stroke="#ffffff" d="M31.58 141.12H282.52"/>
<path transform="matrix(1,0,0,-1,0,288)" stroke-width=".53" stroke-linecap="butt" stroke-linejoin="round" fill="none" stroke="#ffffff" d="M31.58 181.21H282.52"/>
<path transform="matrix(1,0,0,-1,0,288)" stroke-width=".53" stroke-linecap="butt" stroke-linejoin="round" fill="none" stroke="#ffffff" d="M31.58 221.3H282.52"/>
<path transform="matrix(1,0,0,-1,0,288)" stroke-width=".53" stroke-linecap="butt" stroke-linejoin="round" fill="none" stroke="#ffffff" d="M56.57 30.83V252.47"/>
<path transform="matrix(1,0,0,-1,0,288)" stroke-width=".53" stroke-linecap="butt" stroke-linejoin="round" fill="none" stroke="#ffffff" d="M148.3 30.83V252.47"/>
<path transform="matrix(1,0,0,-1,0,288)" stroke-width=".53" stroke-linecap="butt" stroke-linejoin="round" fill="none" stroke="#ffffff" d="M240.03 30.83V252.47"/>
<path transform="matrix(1,0,0,-1,0,288)" stroke-width="1.07" stroke-linecap="butt" stroke-linejoin="round" fill="none" stroke="#ffffff" d="M31.58 40.9H282.52"/>
<path transform="matrix(1,0,0,-1,0,288)" stroke-width="1.07" stroke-linecap="butt" stroke-linejoin="round" fill="none" stroke="#ffffff" d="M31.58 80.99H282.52"/>
<path transform="matrix(1,0,0,-1,0,288)" stroke-width="1.07" stroke-linecap="butt" stroke-linejoin="round" fill="none" stroke="#ffffff" d="M31.58 121.08H282.52"/>
<path transform="matrix(1,0,0,-1,0,288)" stroke-width="1.07" stroke-linecap="butt" stroke-linejoin="round" fill="none" stroke="#ffffff" d="M31.58 161.17H282.52"/>
<path transform="matrix(1,0,0,-1,0,288)" stroke-width="1.07" stroke-linecap="butt" stroke-linejoin="round" fill="none" stroke="#ffffff" d="M31.58 201.25H282.52"/>
<path transform="matrix(1,0,0,-1,0,288)" stroke-width="1.07" stroke-linecap="butt" stroke-linejoin="round" fill="none" stroke="#ffffff" d="M31.58 241.34H282.52"/>
<path transform="matrix(1,0,0,-1,0,288)" stroke-width="1.07" stroke-linecap="butt" stroke-linejoin="round" fill="none" stroke="#ffffff" d="M102.44 30.83V252.47"/>
<path transform="matrix(1,0,0,-1,0,288)" stroke-width="1.07" stroke-linecap="butt" stroke-linejoin="round" fill="none" stroke="#ffffff" d="M194.17 30.83V252.47"/>
<path transform="matrix(1,0,0,-1,0,288)" d="M42.99 41.35 43.43 41.38 43.88 41.43 44.33 41.47 44.77 41.53 45.22 41.59 45.67 41.65 46.11 41.72 46.56 41.8 47 41.88 47.45 41.98 47.9 42.08 48.34 42.19 48.79 42.3 49.24 42.42 49.68 42.55 50.13 42.68 50.58 42.81 51.02 42.95 51.47 43.09 51.92 43.23 52.36 43.36 52.81 43.5 53.25 43.64 53.7 43.77 54.15 43.9 54.59 44.03 55.04 44.16 55.49 44.28 55.93 44.4 56.38 44.53 56.83 44.65 57.27 44.77 57.72 44.9 58.17 45.04 58.61 45.18 59.06 45.32 59.51 45.48 59.95 45.65 60.4 45.84 60.84 46.04 61.29 46.25 61.74 46.48 62.18 46.73 62.63 46.99 63.08 47.28 63.52 47.58 63.97 47.9 64.42 48.24 64.86 48.6 65.31 48.97 65.76 49.35 66.2 49.75 66.65 50.16 67.09 50.58 67.54 51.01 67.99 51.45 68.43 51.9 68.88 52.35 69.33 52.8 69.77 53.26 70.22 53.71 70.67 54.18 71.11 54.64 71.56 55.1 72.01 55.57 72.45 56.04 72.9 56.51 73.34 56.98 73.79 57.47 74.24 57.96 74.68 58.46 75.13 58.97 75.58 59.5 76.02 60.05 76.47 60.62 76.92 61.21 77.36 61.83 77.81 62.48 78.26 63.17 78.7 63.89 79.15 64.66 79.59 65.46 80.04 66.31 80.49 67.2 80.93 68.13 81.38 69.1 81.83 70.12 82.27 71.19 82.72 72.29 83.17 73.43 83.61 74.59 84.06 75.79 84.51 77.02 84.95 78.27 85.4 79.54 85.84 80.82 86.29 82.11 86.74 83.41 87.18 84.71 87.63 86 88.08 87.29 88.52 88.56 88.97 89.82 89.42 91.06 89.86 92.28 90.31 93.48 90.76 94.66 91.2 95.81 91.65 96.94 92.09 98.04 92.54 99.12 92.99 100.19 93.43 101.25 93.88 102.29 94.33 103.34 94.77 104.38 95.22 105.44 95.67 106.52 96.11 107.62 96.56 108.76 97.01 109.94 97.45 111.17 97.9 112.47 98.34 113.83 98.79 115.27 99.24 116.78 99.68 118.37 100.13 120.04 100.58 121.8 101.02 123.65 101.47 125.58 101.92 127.59 102.36 129.67 102.81 131.81 103.26 134 103.7 136.25 104.15 138.54 104.59 140.84 105.04 143.16 105.49 145.48 105.93 147.79 106.38 150.08 106.83 152.34 107.27 154.55 107.72 156.72 108.17 158.83 108.61 160.89 109.06 162.89 109.51 164.83 109.95 166.71 110.4 168.54 110.84 170.31 111.29 172.05 111.74 173.75 112.18 175.43 112.63 177.09 113.08 178.74 113.52 180.39 113.97 182.05 114.42 183.73 114.86 185.42 115.31 187.14 115.76 188.89 116.2 190.65 116.65 192.45 117.09 194.26 117.54 196.09 117.99 197.92 118.43 199.76 118.88 201.58 119.33 203.39 119.77 205.17 120.22 206.92 120.67 208.63 121.11 210.28 121.56 211.89 122.01 213.45 122.45 214.95 122.9 216.38 123.34 217.75 123.79 219.07 124.24 220.33 124.68 221.55 125.13 222.72 125.58 223.85 126.02 224.93 126.47 225.98 126.92 226.99 127.36 227.97 127.81 228.92 128.26 229.84 128.7 230.74 129.15 231.61 129.6 232.45 130.04 233.26 130.49 234.05 130.93 234.81 131.38 235.54 131.83 236.25 132.27 236.92 132.72 237.57 133.17 238.18 133.61 238.77 134.06 239.32 134.51 239.84 134.95 240.32 135.4 240.75 135.85 241.14 136.29 241.48 136.74 241.78 137.18 242.02 137.63 242.2 138.08 242.33 138.52 242.39H138.97L139.42 242.33 139.86 242.21 140.31 242.03 140.76 241.8 141.2 241.51 141.65 241.17 142.1 240.78 142.54 240.34 142.99 239.86 143.43 239.34 143.88 238.78 144.33 238.18 144.77 237.53 145.22 236.83 145.67 236.09 146.11 235.29 146.56 234.44 147.01 233.53 147.45 232.55 147.9 231.5 148.35 230.38 148.79 229.18 149.24 227.91 149.68 226.57 150.13 225.16 150.58 223.69 151.02 222.15 151.47 220.56 151.92 218.92 152.36 217.25 152.81 215.56 153.26 213.85 153.7 212.14 154.15 210.43 154.6 208.74 155.04 207.07 155.49 205.43 155.93 203.81 156.38 202.23 156.83 200.69 157.27 199.18 157.72 197.71 158.17 196.27 158.61 194.86 159.06 193.46 159.51 192.09 159.95 190.73 160.4 189.38 160.85 188.02 161.29 186.67 161.74 185.3 162.18 183.92 162.63 182.52 163.08 181.1 163.52 179.65 163.97 178.18 164.42 176.67 164.86 175.14 165.31 173.58 165.76 171.99 166.2 170.37 166.65 168.72 167.1 167.04 167.54 165.35 167.99 163.63 168.43 161.91 168.88 160.17 169.33 158.43 169.77 156.68 170.22 154.94 170.67 153.21 171.11 151.48 171.56 149.77 172.01 148.08 172.45 146.39 172.9 144.72 173.35 143.07 173.79 141.42 174.24 139.78 174.68 138.15 175.13 136.52 175.58 134.89 176.02 133.25 176.47 131.6 176.92 129.95 177.36 128.28 177.81 126.6 178.26 124.91 178.7 123.2 179.15 121.49 179.6 119.76 180.04 118.03 180.49 116.31 180.93 114.59 181.38 112.87 181.83 111.17 182.27 109.5 182.72 107.85 183.17 106.23 183.61 104.64 184.06 103.1 184.51 101.6 184.95 100.14 185.4 98.73 185.85 97.37 186.29 96.06 186.74 94.8 187.18 93.58 187.63 92.41 188.08 91.27 188.52 90.18 188.97 89.12 189.42 88.08 189.86 87.07 190.31 86.08 190.76 85.1 191.2 84.14 191.65 83.18 192.1 82.23 192.54 81.28 192.99 80.32 193.43 79.37 193.88 78.41 194.33 77.44 194.77 76.47 195.22 75.5 195.67 74.52 196.11 73.54 196.56 72.56 197.01 71.57 197.45 70.59 197.9 69.61 198.35 68.64 198.79 67.67 199.24 66.72 199.68 65.77 200.13 64.84 200.58 63.92 201.02 63.02 201.47 62.14 201.92 61.29 202.36 60.46 202.81 59.65 203.26 58.87 203.7 58.12 204.15 57.39 204.6 56.7 205.04 56.04 205.49 55.4 205.94 54.79 206.38 54.2 206.83 53.64 207.27 53.11 207.72 52.59 208.17 52.1 208.61 51.63 209.06 51.17 209.51 50.73 209.95 50.31 210.4 49.9 210.85 49.51 211.29 49.13 211.74 48.76 212.19 48.41 212.63 48.06 213.08 47.73 213.52 47.41 213.97 47.11 214.42 46.81 214.86 46.53 215.31 46.26 215.76 46 216.2 45.74 216.65 45.5 217.1 45.27 217.54 45.04 217.99 44.82 218.44 44.61 218.88 44.41 219.33 44.21 219.77 44.02 220.22 43.84 220.67 43.67 221.11 43.5 221.56 43.34 222.01 43.18 222.45 43.04 222.9 42.9 223.35 42.77 223.79 42.66 224.24 42.55 224.69 42.46 225.13 42.37 225.58 42.3 226.02 42.24 226.47 42.19 226.92 42.15 227.36 42.13 227.81 42.11 228.26 42.1 228.7 42.09 229.15 42.1H229.6L230.04 42.12 230.49 42.13 230.94 42.15 231.38 42.17 231.83 42.19 232.27 42.21 232.72 42.22 233.17 42.24 233.61 42.25 234.06 42.26H234.51 234.95L235.4 42.25 235.85 42.24 236.29 42.23 236.74 42.21 237.19 42.19 237.63 42.16 238.08 42.13 238.52 42.1 238.97 42.06 239.42 42.02 239.86 41.98 240.31 41.94 240.76 41.89 241.2 41.85 241.65 41.8 242.1 41.75 242.54 41.7 242.99 41.65 243.44 41.61 243.88 41.56 244.33 41.51 244.77 41.46 245.22 41.42 245.67 41.37 246.11 41.33 246.56 41.29 247.01 41.25 247.45 41.21 247.9 41.18 248.35 41.14 248.79 41.11 249.24 41.09 249.69 41.06 250.13 41.04 250.58 41.02 251.02 41 251.47 40.99 251.92 40.97 252.36 40.96 252.81 40.95 253.26 40.94H253.7L254.15 40.93 254.6 40.92H255.04 255.49 255.94L256.38 40.91H256.83 257.27 257.72 258.17 258.61L259.06 40.92H259.51 259.95 260.4L260.85 40.93H261.29L261.74 40.94 262.19 40.95H262.63L263.08 40.96 263.52 40.97 263.97 40.98 264.42 41 264.86 41.01 265.31 41.02 265.76 41.04 266.2 41.05 266.65 41.06 267.1 41.08 267.54 41.09 267.99 41.1 268.44 41.12 268.88 41.13 269.33 41.14H269.77L270.22 41.15H270.67 271.11V40.9H270.67 270.22 269.77 269.33 268.88 268.44 267.99 267.54 267.1 266.65 266.2 265.76 265.31 264.86 264.42 263.97 263.52 263.08 262.63 262.19 261.74 261.29 260.85 260.4 259.95 259.51 259.06 258.61 258.17 257.72 257.27 256.83 256.38 255.94 255.49 255.04 254.6 254.15 253.7 253.26 252.81 252.36 251.92 251.47 251.02 250.58 250.13 249.69 249.24 248.79 248.35 247.9 247.45 247.01 246.56 246.11 245.67 245.22 244.77 244.33 243.88 243.44 242.99 242.54 242.1 241.65 241.2 240.76 240.31 239.86 239.42 238.97 238.52 238.08 237.63 237.19 236.74 236.29 235.85 235.4 234.95 234.51 234.06 233.61 233.17 232.72 232.27 231.83 231.38 230.94 230.49 230.04 229.6 229.15 228.7 228.26 227.81 227.36 226.92 226.47 226.02 225.58 225.13 224.69 224.24 223.79 223.35 222.9 222.45 222.01 221.56 221.11 220.67 220.22 219.77 219.33 218.88 218.44 217.99 217.54 217.1 216.65 216.2 215.76 215.31 214.86 214.42 213.97 213.52 213.08 212.63 212.19 211.74 211.29 210.85 210.4 209.95 209.51 209.06 208.61 208.17 207.72 207.27 206.83 206.38 205.94 205.49 205.04 204.6 204.15 203.7 203.26 202.81 202.36 201.92 201.47 201.02 200.58 200.13 199.68 199.24 198.79 198.35 197.9 197.45 197.01 196.56 196.11 195.67 195.22 194.77 194.33 193.88 193.43 192.99 192.54 192.1 191.65 191.2 190.76 190.31 189.86 189.42 188.97 188.52 188.08 187.63 187.18 186.74 186.29 185.85 185.4 184.95 184.51 184.06 183.61 183.17 182.72 182.27 181.83 181.38 180.93 180.49 180.04 179.6 179.15 178.7 178.26 177.81 177.36 176.92 176.47 176.02 175.58 175.13 174.68 174.24 173.79 173.35 172.9 172.45 172.01 171.56 171.11 170.67 170.22 169.77 169.33 168.88 168.43 167.99 167.54 167.1 166.65 166.2 165.76 165.31 164.86 164.42 163.97 163.52 163.08 162.63 162.18 161.74 161.29 160.85 160.4 159.95 159.51 159.06 158.61 158.17 157.72 157.27 156.83 156.38 155.93 155.49 155.04 154.6 154.15 153.7 153.26 152.81 152.36 151.92 151.47 151.02 150.58 150.13 149.68 149.24 148.79 148.35 147.9 147.45 147.01 146.56 146.11 145.67 145.22 144.77 144.33 143.88 143.43 142.99 142.54 142.1 141.65 141.2 140.76 140.31 139.86 139.42 138.97 138.52 138.08 137.63 137.18 136.74 136.29 135.85 135.4 134.95 134.51 134.06 133.61 133.17 132.72 132.27 131.83 131.38 130.93 130.49 130.04 129.6 129.15 128.7 128.26 127.81 127.36 126.92 126.47 126.02 125.58 125.13 124.68 124.24 123.79 123.34 122.9 122.45 122.01 121.56 121.11 120.67 120.22 119.77 119.33 118.88 118.43 117.99 117.54 117.09 116.65 116.2 115.76 115.31 114.86 114.42 113.97 113.52 113.08 112.63 112.18 111.74 111.29 110.84 110.4 109.95 109.51 109.06 108.61 108.17 107.72 107.27 106.83 106.38 105.93 105.49 105.04 104.59 104.15 103.7 103.26 102.81 102.36 101.92 101.47 101.02 100.58 100.13 99.68 99.24 98.79 98.34 97.9 97.45 97.01 96.56 96.11 95.67 95.22 94.77 94.33 93.88 93.43 92.99 92.54 92.09 91.65 91.2 90.76 90.31 89.86 89.42 88.97 88.52 88.08 87.63 87.18 86.74 86.29 85.84 85.4 84.95 84.51 84.06 83.61 83.17 82.72 82.27 81.83 81.38 80.93 80.49 80.04 79.59 79.15 78.7 78.26 77.81 77.36 76.92 76.47 76.02 75.58 75.13 74.68 74.24 73.79 73.34 72.9 72.45 72.01 71.56 71.11 70.67 70.22 69.77 69.33 68.88 68.43 67.99 67.54 67.09 66.65 66.2 65.76 65.31 64.86 64.42 63.97 63.52 63.08 62.63 62.18 61.74 61.29 60.84 60.4 59.95 59.51 59.06 58.61 58.17 57.72 57.27 56.83 56.38 55.93 55.49 55.04 54.59 54.15 53.7 53.25 52.81 52.36 51.92 51.47 51.02 50.58 50.13 49.68 49.24 48.79 48.34 47.9 47.45 47 46.56 46.11 45.67 45.22 44.77 44.33 43.88 43.43 42.99Z" fill="#0000ff" fill-opacity=".502"/>
<path transform="matrix(1,0,0,-1,0,288)" stroke-width="1.07" stroke-linecap="butt" stroke-linejoin="round" fill="none" stroke="#000000" d="M42.99 41.35 43.43 41.38 43.88 41.43 44.33 41.47 44.77 41.53 45.22 41.59 45.67 41.65 46.11 41.72 46.56 41.8 47 41.88 47.45 41.98 47.9 42.08 48.34 42.19 48.79 42.3 49.24 42.42 49.68 42.55 50.13 42.68 50.58 42.81 51.02 42.95 51.47 43.09 51.92 43.23 52.36 43.36 52.81 43.5 53.25 43.64 53.7 43.77 54.15 43.9 54.59 44.03 55.04 44.16 55.49 44.28 55.93 44.4 56.38 44.53 56.83 44.65 57.27 44.77 57.72 44.9 58.17 45.04 58.61 45.18 59.06 45.32 59.51 45.48 59.95 45.65 60.4 45.84 60.84 46.04 61.29 46.25 61.74 46.48 62.18 46.73 62.63 46.99 63.08 47.28 63.52 47.58 63.97 47.9 64.42 48.24 64.86 48.6 65.31 48.97 65.76 49.35 66.2 49.75 66.65 50.16 67.09 50.58 67.54 51.01 67.99 51.45 68.43 51.9 68.88 52.35 69.33 52.8 69.77 53.26 70.22 53.71 70.67 54.18 71.11 54.64 71.56 55.1 72.01 55.57 72.45 56.04 72.9 56.51 73.34 56.98 73.79 57.47 74.24 57.96 74.68 58.46 75.13 58.97 75.58 59.5 76.02 60.05 76.47 60.62 76.92 61.21 77.36 61.83 77.81 62.48 78.26 63.17 78.7 63.89 79.15 64.66 79.59 65.46 80.04 66.31 80.49 67.2 80.93 68.13 81.38 69.1 81.83 70.12 82.27 71.19 82.72 72.29 83.17 73.43 83.61 74.59 84.06 75.79 84.51 77.02 84.95 78.27 85.4 79.54 85.84 80.82 86.29 82.11 86.74 83.41 87.18 84.71 87.63 86 88.08 87.29 88.52 88.56 88.97 89.82 89.42 91.06 89.86 92.28 90.31 93.48 90.76 94.66 91.2 95.81 91.65 96.94 92.09 98.04 92.54 99.12 92.99 100.19 93.43 101.25 93.88 102.29 94.33 103.34 94.77 104.38 95.22 105.44 95.67 106.52 96.11 107.62 96.56 108.76 97.01 109.94 97.45 111.17 97.9 112.47 98.34 113.83 98.79 115.27 99.24 116.78 99.68 118.37 100.13 120.04 100.58 121.8 101.02 123.65 101.47 125.58 101.92 127.59 102.36 129.67 102.81 131.81 103.26 134 103.7 136.25 104.15 138.54 104.59 140.84 105.04 143.16 105.49 145.48 105.93 147.79 106.38 150.08 106.83 152.34 107.27 154.55 107.72 156.72 108.17 158.83 108.61 160.89 109.06 162.89 109.51 164.83 109.95 166.71 110.4 168.54 110.84 170.31 111.29 172.05 111.74 173.75 112.18 175.43 112.63 177.09 113.08 178.74 113.52 180.39 113.97 182.05 114.42 183.73 114.86 185.42 115.31 187.14 115.76 188.89 116.2 190.65 116.65 192.45 117.09 194.26 117.54 196.09 117.99 197.92 118.43 199.76 118.88 201.58 119.33 203.39 119.77 205.17 120.22 206.92 120.67 208.63 121.11 210.28 121.56 211.89 122.01 213.45 122.45 214.95 122.9 216.38 123.34 217.75 123.79 219.07 124.24 220.33 124.68 221.55 125.13 222.72 125.58 223.85 126.02 224.93 126.47 225.98 126.92 226.99 127.36 227.97 127.81 228.92 128.26 229.84 128.7 230.74 129.15 231.61 129.6 232.45 130.04 233.26 130.49 234.05 130.93 234.81 131.38 235.54 131.83 236.25 132.27 236.92 132.72 237.57 133.17 238.18 133.61 238.77 134.06 239.32 134.51 239.84 134.95 240.32 135.4 240.75 135.85 241.14 136.29 241.48 136.74 241.78 137.18 242.02 137.63 242.2 138.08 242.33 138.52 242.39H138.97L139.42 242.33 139.86 242.21 140.31 242.03 140.76 241.8 141.2 241.51 141.65 241.17 142.1 240.78 142.54 240.34 142.99 239.86 143.43 239.34 143.88 238.78 144.33 238.18 144.77 237.53 145.22 236.83 145.67 236.09 146.11 235.29 146.56 234.44 147.01 233.53 147.45 232.55 147.9 231.5 148.35 230.38 148.79 229.18 149.24 227.91 149.68 226.57 150.13 225.16 150.58 223.69 151.02 222.15 151.47 220.56 151.92 218.92 152.36 217.25 152.81 215.56 153.26 213.85 153.7 212.14 154.15 210.43 154.6 208.74 155.04 207.07 155.49 205.43 155.93 203.81 156.38 202.23 156.83 200.69 157.27 199.18 157.72 197.71 158.17 196.27 158.61 194.86 159.06 193.46 159.51 192.09 159.95 190.73 160.4 189.38 160.85 188.02 161.29 186.67 161.74 185.3 162.18 183.92 162.63 182.52 163.08 181.1 163.52 179.65 163.97 178.18 164.42 176.67 164.86 175.14 165.31 173.58 165.76 171.99 166.2 170.37 166.65 168.72 167.1 167.04 167.54 165.35 167.99 163.63 168.43 161.91 168.88 160.17 169.33 158.43 169.77 156.68 170.22 154.94 170.67 153.21 171.11 151.48 171.56 149.77 172.01 148.08 172.45 146.39 172.9 144.72 173.35 143.07 173.79 141.42 174.24 139.78 174.68 138.15 175.13 136.52 175.58 134.89 176.02 133.25 176.47 131.6 176.92 129.95 177.36 128.28 177.81 126.6 178.26 124.91 178.7 123.2 179.15 121.49 179.6 119.76 180.04 118.03 180.49 116.31 180.93 114.59 181.38 112.87 181.83 111.17 182.27 109.5 182.72 107.85 183.17 106.23 183.61 104.64 184.06 103.1 184.51 101.6 184.95 100.14 185.4 98.73 185.85 97.37 186.29 96.06 186.74 94.8 187.18 93.58 187.63 92.41 188.08 91.27 188.52 90.18 188.97 89.12 189.42 88.08 189.86 87.07 190.31 86.08 190.76 85.1 191.2 84.14 191.65 83.18 192.1 82.23 192.54 81.28 192.99 80.32 193.43 79.37 193.88 78.41 194.33 77.44 194.77 76.47 195.22 75.5 195.67 74.52 196.11 73.54 196.56 72.56 197.01 71.57 197.45 70.59 197.9 69.61 198.35 68.64 198.79 67.67 199.24 66.72 199.68 65.77 200.13 64.84 200.58 63.92 201.02 63.02 201.47 62.14 201.92 61.29 202.36 60.46 202.81 59.65 203.26 58.87 203.7 58.12 204.15 57.39 204.6 56.7 205.04 56.04 205.49 55.4 205.94 54.79 206.38 54.2 206.83 53.64 207.27 53.11 207.72 52.59 208.17 52.1 208.61 51.63 209.06 51.17 209.51 50.73 209.95 50.31 210.4 49.9 210.85 49.51 211.29 49.13 211.74 48.76 212.19 48.41 212.63 48.06 213.08 47.73 213.52 47.41 213.97 47.11 214.42 46.81 214.86 46.53 215.31 46.26 215.76 46 216.2 45.74 216.65 45.5 217.1 45.27 217.54 45.04 217.99 44.82 218.44 44.61 218.88 44.41 219.33 44.21 219.77 44.02 220.22 43.84 220.67 43.67 221.11 43.5 221.56 43.34 222.01 43.18 222.45 43.04 222.9 42.9 223.35 42.77 223.79 42.66 224.24 42.55 224.69 42.46 225.13 42.37 225.58 42.3 226.02 42.24 226.47 42.19 226.92 42.15 227.36 42.13 227.81 42.11 228.26 42.1 228.7 42.09 229.15 42.1H229.6L230.04 42.12 230.49 42.13 230.94 42.15 231.38 42.17 231.83 42.19 232.27 42.21 232.72 42.22 233.17 42.24 233.61 42.25 234.06 42.26H234.51 234.95L235.4 42.25 235.85 42.24 236.29 42.23 236.74 42.21 237.19 42.19 237.63 42.16 238.08 42.13 238.52 42.1 238.97 42.06 239.42 42.02 239.86 41.98 240.31 41.94 240.76 41.89 241.2 41.85 241.65 41.8 242.1 41.75 242.54 41.7 242.99 41.65 243.44 41.61 243.88 41.56 244.33 41.51 244.77 41.46 245.22 41.42 245.67 41.37 246.11 41.33 246.56 41.29 247.01 41.25 247.45 41.21 247.9 41.18 248.35 41.14 248.79 41.11 249.24 41.09 249.69 41.06 250.13 41.04 250.58 41.02 251.02 41 251.47 40.99 251.92 40.97 252.36 40.96 252.81 40.95 253.26 40.94H253.7L254.15 40.93 254.6 40.92H255.04 255.49 255.94L256.38 40.91H256.83 257.27 257.72 258.17 258.61L259.06 40.92H259.51 259.95 260.4L260.85 40.93H261.29L261.74 40.94 262.19 40.95H262.63L263.08 40.96 263.52 40.97 263.97 40.98 264.42 41 264.86 41.01 265.31 41.02 265.76 41.04 266.2 41.05 266.65 41.06 267.1 41.08 267.54 41.09 267.99 41.1 268.44 41.12 268.88 41.13 269.33 41.14H269.77L270.22 41.15H270.67 271.11"/>
<path transform="matrix(1,0,0,-1,0,288)" stroke-width="1.07" stroke-linecap="butt" stroke-linejoin="round" fill="none" stroke="#000000" d="M139.04 30.83V252.47"/>
<path transform="matrix(1,0,0,-1,0,288)" stroke-width="1.07" stroke-linecap="butt" stroke-dasharray="7.47,3.2" stroke-linejoin="round" fill="none" stroke="#000000" d="M83.7 30.83V252.47"/>
<path transform="matrix(1,0,0,-1,0,288)" stroke-width="1.07" stroke-linecap="butt" stroke-dasharray="7.47,3.2" stroke-linejoin="round" fill="none" stroke="#000000" d="M194.95 30.83V252.47"/>
</g>
<text fill="#4d4d4d" xml:space="preserve" transform="matrix(1 0 -0 1 0 288)" font-size="8" font-family="Helvetica"><tspan y="-38.03" x="22.2">0</tspan></text>
<text fill="#4d4d4d" xml:space="preserve" transform="matrix(1 0 -0 1 0 288)" font-size="8" font-family="Helvetica"><tspan y="-78.12" x="22.2">5</tspan></text>
<text fill="#4d4d4d" xml:space="preserve" transform="matrix(1 0 -0 1 0 288)" font-size="8" font-family="Helvetica"><tspan y="-118.21" x="17.75 22.198">10</tspan></text>
<text fill="#4d4d4d" xml:space="preserve" transform="matrix(1 0 -0 1 0 288)" font-size="8" font-family="Helvetica"><tspan y="-158.29" x="17.75 22.198">15</tspan></text>
<text fill="#4d4d4d" xml:space="preserve" transform="matrix(1 0 -0 1 0 288)" font-size="8" font-family="Helvetica"><tspan y="-198.38" x="17.75 22.198">20</tspan></text>
<text fill="#4d4d4d" xml:space="preserve" transform="matrix(1 0 -0 1 0 288)" font-size="8" font-family="Helvetica"><tspan y="-238.47" x="17.75 22.198">25</tspan></text>
<path transform="matrix(1,0,0,-1,0,288)" stroke-width="1.07" stroke-linecap="butt" stroke-linejoin="round" fill="none" stroke="#333333" d="M28.84 40.9H31.58"/>
<path transform="matrix(1,0,0,-1,0,288)" stroke-width="1.07" stroke-linecap="butt" stroke-linejoin="round" fill="none" stroke="#333333" d="M28.84 80.99H31.58"/>
<path transform="matrix(1,0,0,-1,0,288)" stroke-width="1.07" stroke-linecap="butt" stroke-linejoin="round" fill="none" stroke="#333333" d="M28.84 121.08H31.58"/>
<path transform="matrix(1,0,0,-1,0,288)" stroke-width="1.07" stroke-linecap="butt" stroke-linejoin="round" fill="none" stroke="#333333" d="M28.84 161.17H31.58"/>
<path transform="matrix(1,0,0,-1,0,288)" stroke-width="1.07" stroke-linecap="butt" stroke-linejoin="round" fill="none" stroke="#333333" d="M28.84 201.25H31.58"/>
<path transform="matrix(1,0,0,-1,0,288)" stroke-width="1.07" stroke-linecap="butt" stroke-linejoin="round" fill="none" stroke="#333333" d="M28.84 241.34H31.58"/>
<path transform="matrix(1,0,0,-1,0,288)" stroke-width="1.07" stroke-linecap="butt" stroke-linejoin="round" fill="none" stroke="#333333" d="M102.44 28.09V30.83"/>
<path transform="matrix(1,0,0,-1,0,288)" stroke-width="1.07" stroke-linecap="butt" stroke-linejoin="round" fill="none" stroke="#333333" d="M194.17 28.09V30.83"/>
<text fill="#4d4d4d" xml:space="preserve" transform="matrix(1 0 -0 1 0 288)" font-size="8" font-family="Helvetica"><tspan y="-20.16" x="92.32 96.992 101.439998 103.663997 108.11199">&#x2212;0.10</tspan></text>
<text fill="#4d4d4d" xml:space="preserve" transform="matrix(1 0 -0 1 0 288)" font-size="8" font-family="Helvetica"><tspan y="-20.16" x="184.05 188.722 193.17 195.394 199.842">&#x2212;0.05</tspan></text>
<text xml:space="preserve" transform="matrix(1 0 -0 1 0 288)" font-size="10" font-family="Helvetica"><tspan y="-7.73" x="147.93 153.4 159.51">ATE</tspan></text>
<text xml:space="preserve" transform="matrix(0 -1 1 0 0 288)" font-size="10" font-family="Helvetica"><tspan y="12.66" x="124.98 132.2 137.76 143.31999 148.31999 150.54 153.31999">Density</tspan></text>
<text xml:space="preserve" transform="matrix(1 0 -0 1 0 288)" font-size="12" font-family="Helvetica"><tspan y="-273.9" x="31.58 38.984 45.656003 51.656003 54.992006 61.664007 65.840007 68.504009 75.17601 79.17201 82.50801 89.18001 92.51601 95.852008 99.188 105.86 112.532 115.868 123.39199 129.092 135.76399 139.64 146.312 152.984">Posterior of the Average</tspan></text>
<text xml:space="preserve" transform="matrix(1 0 -0 1 0 288)" font-size="12" font-family="Helvetica"><tspan y="-260.94" x="31.58 37.472 41.468 48.14 54.812 58.148004 68.144008 74.81601 81.48801 84.824008 88.16 96.164 99.5 102.476 109.147998 115.147998">Treatment Effect</tspan></text>
<g clip-path="url(#clip_2)">
<path transform="matrix(1,0,0,-1,0,288)" d="M288 0H576V288H288Z" fill="#ffffff"/>
<path transform="matrix(1,0,0,-1,0,288)" stroke-width="1.07" stroke-linecap="round" stroke-linejoin="round" fill="none" stroke="#ffffff" d="M288 0H576V288H288Z"/>
</g>
<g clip-path="url(#clip_3)">
<path transform="matrix(1,0,0,-1,0,288)" d="M328.58 30.83H570.52V252.46H328.58Z" fill="#ebebeb"/>
<path transform="matrix(1,0,0,-1,0,288)" stroke-width=".53" stroke-linecap="butt" stroke-linejoin="round" fill="none" stroke="#ffffff" d="M328.58 68.05H570.52"/>
<path transform="matrix(1,0,0,-1,0,288)" stroke-width=".53" stroke-linecap="butt" stroke-linejoin="round" fill="none" stroke="#ffffff" d="M328.58 122.35H570.52"/>
<path transform="matrix(1,0,0,-1,0,288)" stroke-width=".53" stroke-linecap="butt" stroke-linejoin="round" fill="none" stroke="#ffffff" d="M328.58 176.64H570.52"/>
<path transform="matrix(1,0,0,-1,0,288)" stroke-width=".53" stroke-linecap="butt" stroke-linejoin="round" fill="none" stroke="#ffffff" d="M328.58 230.93H570.52"/>
<path transform="matrix(1,0,0,-1,0,288)" stroke-width=".53" stroke-linecap="butt" stroke-linejoin="round" fill="none" stroke="#ffffff" d="M360.63 30.83V252.47"/>
<path transform="matrix(1,0,0,-1,0,288)" stroke-width=".53" stroke-linecap="butt" stroke-linejoin="round" fill="none" stroke="#ffffff" d="M417.47 30.83V252.47"/>
<path transform="matrix(1,0,0,-1,0,288)" stroke-width=".53" stroke-linecap="butt" stroke-linejoin="round" fill="none" stroke="#ffffff" d="M474.3 30.83V252.47"/>
<path transform="matrix(1,0,0,-1,0,288)" stroke-width=".53" stroke-linecap="butt" stroke-linejoin="round" fill="none" stroke="#ffffff" d="M531.14 30.83V252.47"/>
<path transform="matrix(1,0,0,-1,0,288)" stroke-width="1.07" stroke-linecap="butt" stroke-linejoin="round" fill="none" stroke="#ffffff" d="M328.58 40.9H570.52"/>
<path transform="matrix(1,0,0,-1,0,288)" stroke-width="1.07" stroke-linecap="butt" stroke-linejoin="round" fill="none" stroke="#ffffff" d="M328.58 95.2H570.52"/>
<path transform="matrix(1,0,0,-1,0,288)" stroke-width="1.07" stroke-linecap="butt" stroke-linejoin="round" fill="none" stroke="#ffffff" d="M328.58 149.49H570.52"/>
<path transform="matrix(1,0,0,-1,0,288)" stroke-width="1.07" stroke-linecap="butt" stroke-linejoin="round" fill="none" stroke="#ffffff" d="M328.58 203.79H570.52"/>
<path transform="matrix(1,0,0,-1,0,288)" stroke-width="1.07" stroke-linecap="butt" stroke-linejoin="round" fill="none" stroke="#ffffff" d="M332.21 30.83V252.47"/>
<path transform="matrix(1,0,0,-1,0,288)" stroke-width="1.07" stroke-linecap="butt" stroke-linejoin="round" fill="none" stroke="#ffffff" d="M389.05 30.83V252.47"/>
<path transform="matrix(1,0,0,-1,0,288)" stroke-width="1.07" stroke-linecap="butt" stroke-linejoin="round" fill="none" stroke="#ffffff" d="M445.88 30.83V252.47"/>
<path transform="matrix(1,0,0,-1,0,288)" stroke-width="1.07" stroke-linecap="butt" stroke-linejoin="round" fill="none" stroke="#ffffff" d="M502.72 30.83V252.47"/>
<path transform="matrix(1,0,0,-1,0,288)" stroke-width="1.07" stroke-linecap="butt" stroke-linejoin="round" fill="none" stroke="#ffffff" d="M559.56 30.83V252.47"/>
<path transform="matrix(1,0,0,-1,0,288)" d="M339.58 40.9H346.90998V41.440004H339.58Z" fill="#0000ff" fill-opacity=".502"/>
<path transform="matrix(1,0,0,-1,0,288)" stroke-width="1.07" stroke-linecap="butt" stroke-miterlimit="10" stroke-linejoin="miter" fill="none" stroke="#000000" d="M339.58 40.9H346.90998V41.440004H339.58Z"/>
<path transform="matrix(1,0,0,-1,0,288)" d="M346.91 40.9H354.24V44.54H346.91Z" fill="#0000ff" fill-opacity=".502"/>
<path transform="matrix(1,0,0,-1,0,288)" stroke-width="1.07" stroke-linecap="butt" stroke-miterlimit="10" stroke-linejoin="miter" fill="none" stroke="#000000" d="M346.91 40.9H354.24V44.54H346.91Z"/>
<path transform="matrix(1,0,0,-1,0,288)" d="M354.24 40.9H361.56999V56.32H354.24Z" fill="#0000ff" fill-opacity=".502"/>
<path transform="matrix(1,0,0,-1,0,288)" stroke-width="1.07" stroke-linecap="butt" stroke-miterlimit="10" stroke-linejoin="miter" fill="none" stroke="#000000" d="M354.24 40.9H361.56999V56.32H354.24Z"/>
<path transform="matrix(1,0,0,-1,0,288)" d="M361.57 40.9H368.9V94H361.57Z" fill="#0000ff" fill-opacity=".502"/>
<path transform="matrix(1,0,0,-1,0,288)" stroke-width="1.07" stroke-linecap="butt" stroke-miterlimit="10" stroke-linejoin="miter" fill="none" stroke="#000000" d="M361.57 40.9H368.9V94H361.57Z"/>
<path transform="matrix(1,0,0,-1,0,288)" d="M368.9 40.9H376.22999V151.01001H368.9Z" fill="#0000ff" fill-opacity=".502"/>
<path transform="matrix(1,0,0,-1,0,288)" stroke-width="1.07" stroke-linecap="butt" stroke-miterlimit="10" stroke-linejoin="miter" fill="none" stroke="#000000" d="M368.9 40.9H376.22999V151.01001H368.9Z"/>
<path transform="matrix(1,0,0,-1,0,288)" d="M376.24 40.9H383.56999V204H376.24Z" fill="#0000ff" fill-opacity=".502"/>
<path transform="matrix(1,0,0,-1,0,288)" stroke-width="1.07" stroke-linecap="butt" stroke-miterlimit="10" stroke-linejoin="miter" fill="none" stroke="#000000" d="M376.24 40.9H383.56999V204H376.24Z"/>
<path transform="matrix(1,0,0,-1,0,288)" d="M383.57 40.9H390.9V242.39002H383.57Z" fill="#0000ff" fill-opacity=".502"/>
<path transform="matrix(1,0,0,-1,0,288)" stroke-width="1.07" stroke-linecap="butt" stroke-miterlimit="10" stroke-linejoin="miter" fill="none" stroke="#000000" d="M383.57 40.9H390.9V242.39002H383.57Z"/>
<path transform="matrix(1,0,0,-1,0,288)" d="M390.9 40.9H398.22999V189.12H390.9Z" fill="#0000ff" fill-opacity=".502"/>
<path transform="matrix(1,0,0,-1,0,288)" stroke-width="1.07" stroke-linecap="butt" stroke-miterlimit="10" stroke-linejoin="miter" fill="none" stroke="#000000" d="M390.9 40.9H398.22999V189.12H390.9Z"/>
<path transform="matrix(1,0,0,-1,0,288)" d="M398.23 40.9H405.56V114.090007H398.23Z" fill="#0000ff" fill-opacity=".502"/>
<path transform="matrix(1,0,0,-1,0,288)" stroke-width="1.07" stroke-linecap="butt" stroke-miterlimit="10" stroke-linejoin="miter" fill="none" stroke="#000000" d="M398.23 40.9H405.56V114.090007H398.23Z"/>
<path transform="matrix(1,0,0,-1,0,288)" d="M405.56 40.9H412.88999V97.09H405.56Z" fill="#0000ff" fill-opacity=".502"/>
<path transform="matrix(1,0,0,-1,0,288)" stroke-width="1.07" stroke-linecap="butt" stroke-miterlimit="10" stroke-linejoin="miter" fill="none" stroke="#000000" d="M405.56 40.9H412.88999V97.09H405.56Z"/>
<path transform="matrix(1,0,0,-1,0,288)" d="M412.89 40.9H420.22V82.380008H412.89Z" fill="#0000ff" fill-opacity=".502"/>
<path transform="matrix(1,0,0,-1,0,288)" stroke-width="1.07" stroke-linecap="butt" stroke-miterlimit="10" stroke-linejoin="miter" fill="none" stroke="#000000" d="M412.89 40.9H420.22V82.380008H412.89Z"/>
<path transform="matrix(1,0,0,-1,0,288)" d="M420.22 40.9H427.55V75.87H420.22Z" fill="#0000ff" fill-opacity=".502"/>
<path transform="matrix(1,0,0,-1,0,288)" stroke-width="1.07" stroke-linecap="butt" stroke-miterlimit="10" stroke-linejoin="miter" fill="none" stroke="#000000" d="M420.22 40.9H427.55V75.87H420.22Z"/>
<path transform="matrix(1,0,0,-1,0,288)" d="M427.56 40.9H434.88999V64.840007H427.56Z" fill="#0000ff" fill-opacity=".502"/>
<path transform="matrix(1,0,0,-1,0,288)" stroke-width="1.07" stroke-linecap="butt" stroke-miterlimit="10" stroke-linejoin="miter" fill="none" stroke="#000000" d="M427.56 40.9H434.88999V64.840007H427.56Z"/>
<path transform="matrix(1,0,0,-1,0,288)" d="M434.89 40.9H442.22V59.850004H434.89Z" fill="#0000ff" fill-opacity=".502"/>
<path transform="matrix(1,0,0,-1,0,288)" stroke-width="1.07" stroke-linecap="butt" stroke-miterlimit="10" stroke-linejoin="miter" fill="none" stroke="#000000" d="M434.89 40.9H442.22V59.850004H434.89Z"/>
<path transform="matrix(1,0,0,-1,0,288)" d="M442.22 40.9H449.55V52.410005H442.22Z" fill="#0000ff" fill-opacity=".502"/>
<path transform="matrix(1,0,0,-1,0,288)" stroke-width="1.07" stroke-linecap="butt" stroke-miterlimit="10" stroke-linejoin="miter" fill="none" stroke="#000000" d="M442.22 40.9H449.55V52.410005H442.22Z"/>
<path transform="matrix(1,0,0,-1,0,288)" d="M449.55 40.9H456.87998V48.88H449.55Z" fill="#0000ff" fill-opacity=".502"/>
<path transform="matrix(1,0,0,-1,0,288)" stroke-width="1.07" stroke-linecap="butt" stroke-miterlimit="10" stroke-linejoin="miter" fill="none" stroke="#000000" d="M449.55 40.9H456.87998V48.88H449.55Z"/>
<path transform="matrix(1,0,0,-1,0,288)" d="M456.88 40.9H464.21V47.31H456.88Z" fill="#0000ff" fill-opacity=".502"/>
<path transform="matrix(1,0,0,-1,0,288)" stroke-width="1.07" stroke-linecap="butt" stroke-miterlimit="10" stroke-linejoin="miter" fill="none" stroke="#000000" d="M456.88 40.9H464.21V47.31H456.88Z"/>
<path transform="matrix(1,0,0,-1,0,288)" d="M464.21 40.9H471.53999V47.2H464.21Z" fill="#0000ff" fill-opacity=".502"/>
<path transform="matrix(1,0,0,-1,0,288)" stroke-width="1.07" stroke-linecap="butt" stroke-miterlimit="10" stroke-linejoin="miter" fill="none" stroke="#000000" d="M464.21 40.9H471.53999V47.2H464.21Z"/>
<path transform="matrix(1,0,0,-1,0,288)" d="M471.55 40.9H478.87998V48.18H471.55Z" fill="#0000ff" fill-opacity=".502"/>
<path transform="matrix(1,0,0,-1,0,288)" stroke-width="1.07" stroke-linecap="butt" stroke-miterlimit="10" stroke-linejoin="miter" fill="none" stroke="#000000" d="M471.55 40.9H478.87998V48.18H471.55Z"/>
<path transform="matrix(1,0,0,-1,0,288)" d="M478.88 40.9H486.21V48.39H478.88Z" fill="#0000ff" fill-opacity=".502"/>
<path transform="matrix(1,0,0,-1,0,288)" stroke-width="1.07" stroke-linecap="butt" stroke-miterlimit="10" stroke-linejoin="miter" fill="none" stroke="#000000" d="M478.88 40.9H486.21V48.39H478.88Z"/>
<path transform="matrix(1,0,0,-1,0,288)" d="M486.21 40.9H493.53999V46.38H486.21Z" fill="#0000ff" fill-opacity=".502"/>
<path transform="matrix(1,0,0,-1,0,288)" stroke-width="1.07" stroke-linecap="butt" stroke-miterlimit="10" stroke-linejoin="miter" fill="none" stroke="#000000" d="M486.21 40.9H493.53999V46.38H486.21Z"/>
<path transform="matrix(1,0,0,-1,0,288)" d="M493.54 40.9H500.87V44.75H493.54Z" fill="#0000ff" fill-opacity=".502"/>
<path transform="matrix(1,0,0,-1,0,288)" stroke-width="1.07" stroke-linecap="butt" stroke-miterlimit="10" stroke-linejoin="miter" fill="none" stroke="#000000" d="M493.54 40.9H500.87V44.75H493.54Z"/>
<path transform="matrix(1,0,0,-1,0,288)" d="M500.87 40.9H508.19999V44.54H500.87Z" fill="#0000ff" fill-opacity=".502"/>
<path transform="matrix(1,0,0,-1,0,288)" stroke-width="1.07" stroke-linecap="butt" stroke-miterlimit="10" stroke-linejoin="miter" fill="none" stroke="#000000" d="M500.87 40.9H508.19999V44.54H500.87Z"/>
<path transform="matrix(1,0,0,-1,0,288)" d="M508.2 40.9H515.53V43.510004H508.2Z" fill="#0000ff" fill-opacity=".502"/>
<path transform="matrix(1,0,0,-1,0,288)" stroke-width="1.07" stroke-linecap="butt" stroke-miterlimit="10" stroke-linejoin="miter" fill="none" stroke="#000000" d="M508.2 40.9H515.53V43.510004H508.2Z"/>
<path transform="matrix(1,0,0,-1,0,288)" d="M515.53 40.9H522.86007V42.91H515.53Z" fill="#0000ff" fill-opacity=".502"/>
<path transform="matrix(1,0,0,-1,0,288)" stroke-width="1.07" stroke-linecap="butt" stroke-miterlimit="10" stroke-linejoin="miter" fill="none" stroke="#000000" d="M515.53 40.9H522.86007V42.91H515.53Z"/>
<path transform="matrix(1,0,0,-1,0,288)" d="M522.87 40.9H530.2V41.93H522.87Z" fill="#0000ff" fill-opacity=".502"/>
<path transform="matrix(1,0,0,-1,0,288)" stroke-width="1.07" stroke-linecap="butt" stroke-miterlimit="10" stroke-linejoin="miter" fill="none" stroke="#000000" d="M522.87 40.9H530.2V41.93H522.87Z"/>
<path transform="matrix(1,0,0,-1,0,288)" d="M530.2 40.9H537.53V41.710004H530.2Z" fill="#0000ff" fill-opacity=".502"/>
<path transform="matrix(1,0,0,-1,0,288)" stroke-width="1.07" stroke-linecap="butt" stroke-miterlimit="10" stroke-linejoin="miter" fill="none" stroke="#000000" d="M530.2 40.9H537.53V41.710004H530.2Z"/>
<path transform="matrix(1,0,0,-1,0,288)" d="M537.53 40.9H544.86007V41.010004H537.53Z" fill="#0000ff" fill-opacity=".502"/>
<path transform="matrix(1,0,0,-1,0,288)" stroke-width="1.07" stroke-linecap="butt" stroke-miterlimit="10" stroke-linejoin="miter" fill="none" stroke="#000000" d="M537.53 40.9H544.86007V41.010004H537.53Z"/>
<path transform="matrix(1,0,0,-1,0,288)" d="M544.86 40.9H552.19V41.06H544.86Z" fill="#0000ff" fill-opacity=".502"/>
<path transform="matrix(1,0,0,-1,0,288)" stroke-width="1.07" stroke-linecap="butt" stroke-miterlimit="10" stroke-linejoin="miter" fill="none" stroke="#000000" d="M544.86 40.9H552.19V41.06H544.86Z"/>
<path transform="matrix(1,0,0,-1,0,288)" d="M552.19 40.9H559.52V41.010004H552.19Z" fill="#0000ff" fill-opacity=".502"/>
<path transform="matrix(1,0,0,-1,0,288)" stroke-width="1.07" stroke-linecap="butt" stroke-miterlimit="10" stroke-linejoin="miter" fill="none" stroke="#000000" d="M552.19 40.9H559.52V41.010004H552.19Z"/>
</g>
<text fill="#4d4d4d" xml:space="preserve" transform="matrix(1 0 -0 1 0 288)" font-size="8" font-family="Helvetica"><tspan y="-38.03" x="319.2">0</tspan></text>
<text fill="#4d4d4d" xml:space="preserve" transform="matrix(1 0 -0 1 0 288)" font-size="8" font-family="Helvetica"><tspan y="-92.33" x="305.86 310.30799 314.75599 319.20399">1000</tspan></text>
<text fill="#4d4d4d" xml:space="preserve" transform="matrix(1 0 -0 1 0 288)" font-size="8" font-family="Helvetica"><tspan y="-146.62" x="305.86 310.30799 314.75599 319.20399">2000</tspan></text>
<text fill="#4d4d4d" xml:space="preserve" transform="matrix(1 0 -0 1 0 288)" font-size="8" font-family="Helvetica"><tspan y="-200.92" x="305.86 310.30799 314.75599 319.20399">3000</tspan></text>
<path transform="matrix(1,0,0,-1,0,288)" stroke-width="1.07" stroke-linecap="butt" stroke-linejoin="round" fill="none" stroke="#333333" d="M325.84 40.9H328.58"/>
<path transform="matrix(1,0,0,-1,0,288)" stroke-width="1.07" stroke-linecap="butt" stroke-linejoin="round" fill="none" stroke="#333333" d="M325.84 95.2H328.58"/>
<path transform="matrix(1,0,0,-1,0,288)" stroke-width="1.07" stroke-linecap="butt" stroke-linejoin="round" fill="none" stroke="#333333" d="M325.84 149.49H328.58"/>
<path transform="matrix(1,0,0,-1,0,288)" stroke-width="1.07" stroke-linecap="butt" stroke-linejoin="round" fill="none" stroke="#333333" d="M325.84 203.79H328.58"/>
<path transform="matrix(1,0,0,-1,0,288)" stroke-width="1.07" stroke-linecap="butt" stroke-linejoin="round" fill="none" stroke="#333333" d="M332.21 28.09V30.83"/>
<path transform="matrix(1,0,0,-1,0,288)" stroke-width="1.07" stroke-linecap="butt" stroke-linejoin="round" fill="none" stroke="#333333" d="M389.05 28.09V30.83"/>
<path transform="matrix(1,0,0,-1,0,288)" stroke-width="1.07" stroke-linecap="butt" stroke-linejoin="round" fill="none" stroke="#333333" d="M445.88 28.09V30.83"/>
<path transform="matrix(1,0,0,-1,0,288)" stroke-width="1.07" stroke-linecap="butt" stroke-linejoin="round" fill="none" stroke="#333333" d="M502.72 28.09V30.83"/>
<path transform="matrix(1,0,0,-1,0,288)" stroke-width="1.07" stroke-linecap="butt" stroke-linejoin="round" fill="none" stroke="#333333" d="M559.56 28.09V30.83"/>
<text fill="#4d4d4d" xml:space="preserve" transform="matrix(1 0 -0 1 0 288)" font-size="8" font-family="Helvetica"><tspan y="-20.16" x="324.31 328.982 333.43 335.654">&#x2212;0.2</tspan></text>
<text fill="#4d4d4d" xml:space="preserve" transform="matrix(1 0 -0 1 0 288)" font-size="8" font-family="Helvetica"><tspan y="-20.16" x="381.15 385.822 390.27 392.494">&#x2212;0.1</tspan></text>
<text fill="#4d4d4d" xml:space="preserve" transform="matrix(1 0 -0 1 0 288)" font-size="8" font-family="Helvetica"><tspan y="-20.16" x="440.32 444.768 446.992">0.0</tspan></text>
<text fill="#4d4d4d" xml:space="preserve" transform="matrix(1 0 -0 1 0 288)" font-size="8" font-family="Helvetica"><tspan y="-20.16" x="497.16 501.608 503.832">0.1</tspan></text>
<text fill="#4d4d4d" xml:space="preserve" transform="matrix(1 0 -0 1 0 288)" font-size="8" font-family="Helvetica"><tspan y="-20.16" x="554 558.448 560.672">0.2</tspan></text>
<text xml:space="preserve" transform="matrix(1 0 -0 1 0 288)" font-size="10" font-family="Helvetica"><tspan y="-7.73" x="432.09 434.87 442.09 447.56 453.66999 460.34">ICATES</tspan></text>
<text xml:space="preserve" transform="matrix(0 -1 1 0 0 288)" font-size="10" font-family="Helvetica"><tspan y="300.66" x="118.03 124.14 127.47 133.03 138.59 144.15 149.70999 155.26999 160.26999">Frequency</tspan></text>
<text xml:space="preserve" transform="matrix(1 0 -0 1 0 288)" font-size="12" font-family="Helvetica"><tspan y="-273.9" x="328.58 337.244 339.908 345.908 349.244 355.916 362.58799 366.464 373.136 383.132 386.468 393.13999 396.47599 399.81199 403.14799 409.81999 416.49198 419.15599 425.15599 427.81999 434.49198 441.16398 447.83598 450.49998 453.83598 462.49998 469.17198 475.84397 482.51597 485.17997 488.51597 491.17997 497.85197 504.52397 511.19596">Histogram of Individual Conditional</tspan></text>
<text xml:space="preserve" transform="matrix(1 0 -0 1 0 288)" font-size="12" font-family="Helvetica"><tspan y="-260.94" x="328.58 336.10398 341.804 348.47599 352.352 359.024 365.69599 372.36799 375.70399 381.59599 385.59199 392.26399 398.93598 402.27198 412.26799 418.93998 425.61198 428.94798 432.28398 440.28797 443.62397 446.59999 453.27198 459.27198 462.60798">Average Treatment Effects</tspan></text>
</svg>
